<mxfile host="app.diagrams.net" agent="Mozilla/5.0 (Windows NT 10.0; Win64; x64) AppleWebKit/537.36 (KHTML, like Gecko) Chrome/129.0.0.0 Safari/537.36" version="24.8.0" pages="3">
  <diagram id="2oWvJzjtY4Egoq6OIcb6" name="Page-2">
    <mxGraphModel dx="4173" dy="1412" grid="1" gridSize="10" guides="1" tooltips="1" connect="1" arrows="1" fold="1" page="1" pageScale="1" pageWidth="827" pageHeight="1169" math="0" shadow="0">
      <root>
        <mxCell id="0" />
        <mxCell id="1" parent="0" />
        <mxCell id="PVkASZqiZ4NwRG8XRCTv-19" value="Управление заказами" style="swimlane;startSize=20;whiteSpace=wrap;html=1;" parent="1" vertex="1">
          <mxGeometry x="-330" y="250" width="350" height="1480" as="geometry" />
        </mxCell>
        <mxCell id="DtDmamrIcuMd9pOrzGWH-17" style="edgeStyle=orthogonalEdgeStyle;rounded=0;orthogonalLoop=1;jettySize=auto;html=1;entryX=0.5;entryY=0;entryDx=0;entryDy=0;" edge="1" parent="PVkASZqiZ4NwRG8XRCTv-19" source="PVkASZqiZ4NwRG8XRCTv-7" target="PVkASZqiZ4NwRG8XRCTv-3">
          <mxGeometry relative="1" as="geometry" />
        </mxCell>
        <mxCell id="PVkASZqiZ4NwRG8XRCTv-7" value="" style="ellipse;html=1;shape=startState;fillColor=#000000;strokeColor=#ff0000;" parent="PVkASZqiZ4NwRG8XRCTv-19" vertex="1">
          <mxGeometry x="135" y="50" width="30" height="30" as="geometry" />
        </mxCell>
        <mxCell id="DtDmamrIcuMd9pOrzGWH-14" style="edgeStyle=orthogonalEdgeStyle;rounded=0;orthogonalLoop=1;jettySize=auto;html=1;" edge="1" parent="PVkASZqiZ4NwRG8XRCTv-19" source="PVkASZqiZ4NwRG8XRCTv-3" target="DtDmamrIcuMd9pOrzGWH-13">
          <mxGeometry relative="1" as="geometry" />
        </mxCell>
        <mxCell id="PVkASZqiZ4NwRG8XRCTv-3" value="Получить Заказ" style="rounded=1;whiteSpace=wrap;html=1;arcSize=40;fontColor=#000000;fillColor=#ffffc0;strokeColor=#ff0000;" parent="PVkASZqiZ4NwRG8XRCTv-19" vertex="1">
          <mxGeometry x="90" y="100" width="120" height="40" as="geometry" />
        </mxCell>
        <mxCell id="DtDmamrIcuMd9pOrzGWH-18" style="edgeStyle=orthogonalEdgeStyle;rounded=0;orthogonalLoop=1;jettySize=auto;html=1;entryX=0.5;entryY=0;entryDx=0;entryDy=0;" edge="1" parent="PVkASZqiZ4NwRG8XRCTv-19" source="DtDmamrIcuMd9pOrzGWH-13" target="PVkASZqiZ4NwRG8XRCTv-10">
          <mxGeometry relative="1" as="geometry" />
        </mxCell>
        <mxCell id="DtDmamrIcuMd9pOrzGWH-13" value="Проверить наличия товара на складе" style="rounded=1;whiteSpace=wrap;html=1;arcSize=40;fontColor=#000000;fillColor=#ffffc0;strokeColor=#ff0000;" vertex="1" parent="PVkASZqiZ4NwRG8XRCTv-19">
          <mxGeometry x="90" y="170" width="120" height="40" as="geometry" />
        </mxCell>
        <mxCell id="DtDmamrIcuMd9pOrzGWH-19" style="edgeStyle=orthogonalEdgeStyle;rounded=0;orthogonalLoop=1;jettySize=auto;html=1;entryX=0.5;entryY=0;entryDx=0;entryDy=0;exitX=0;exitY=0.5;exitDx=0;exitDy=0;" edge="1" parent="PVkASZqiZ4NwRG8XRCTv-19" source="PVkASZqiZ4NwRG8XRCTv-10" target="DtDmamrIcuMd9pOrzGWH-21">
          <mxGeometry relative="1" as="geometry">
            <mxPoint x="70" y="340" as="targetPoint" />
          </mxGeometry>
        </mxCell>
        <mxCell id="DtDmamrIcuMd9pOrzGWH-20" style="edgeStyle=orthogonalEdgeStyle;rounded=0;orthogonalLoop=1;jettySize=auto;html=1;entryX=0.5;entryY=0;entryDx=0;entryDy=0;exitX=1;exitY=0.5;exitDx=0;exitDy=0;" edge="1" parent="PVkASZqiZ4NwRG8XRCTv-19" source="PVkASZqiZ4NwRG8XRCTv-10" target="DtDmamrIcuMd9pOrzGWH-25">
          <mxGeometry relative="1" as="geometry">
            <mxPoint x="230" y="340" as="targetPoint" />
          </mxGeometry>
        </mxCell>
        <mxCell id="DtDmamrIcuMd9pOrzGWH-28" value="да" style="edgeLabel;html=1;align=center;verticalAlign=middle;resizable=0;points=[];" vertex="1" connectable="0" parent="DtDmamrIcuMd9pOrzGWH-20">
          <mxGeometry x="-0.2517" y="-1" relative="1" as="geometry">
            <mxPoint x="-4" y="-11" as="offset" />
          </mxGeometry>
        </mxCell>
        <mxCell id="PVkASZqiZ4NwRG8XRCTv-10" value="Товар на складе?" style="rhombus;whiteSpace=wrap;html=1;fontColor=#000000;fillColor=#ffffc0;strokeColor=#ff0000;" parent="PVkASZqiZ4NwRG8XRCTv-19" vertex="1">
          <mxGeometry x="100" y="240" width="100" height="50" as="geometry" />
        </mxCell>
        <mxCell id="DtDmamrIcuMd9pOrzGWH-23" style="edgeStyle=orthogonalEdgeStyle;rounded=0;orthogonalLoop=1;jettySize=auto;html=1;entryX=0.5;entryY=0;entryDx=0;entryDy=0;" edge="1" parent="PVkASZqiZ4NwRG8XRCTv-19" source="DtDmamrIcuMd9pOrzGWH-21" target="DtDmamrIcuMd9pOrzGWH-22">
          <mxGeometry relative="1" as="geometry" />
        </mxCell>
        <mxCell id="DtDmamrIcuMd9pOrzGWH-21" value="Уведомить клиента о нехватке товара" style="rounded=1;whiteSpace=wrap;html=1;arcSize=40;fontColor=#000000;fillColor=#ffffc0;strokeColor=#ff0000;" vertex="1" parent="PVkASZqiZ4NwRG8XRCTv-19">
          <mxGeometry x="15" y="310" width="120" height="40" as="geometry" />
        </mxCell>
        <mxCell id="DtDmamrIcuMd9pOrzGWH-24" style="edgeStyle=orthogonalEdgeStyle;rounded=0;orthogonalLoop=1;jettySize=auto;html=1;entryX=0.25;entryY=0.5;entryDx=0;entryDy=0;entryPerimeter=0;" edge="1" parent="PVkASZqiZ4NwRG8XRCTv-19" source="DtDmamrIcuMd9pOrzGWH-22" target="PVkASZqiZ4NwRG8XRCTv-13">
          <mxGeometry relative="1" as="geometry">
            <mxPoint x="100" y="1360" as="targetPoint" />
            <Array as="points" />
          </mxGeometry>
        </mxCell>
        <mxCell id="DtDmamrIcuMd9pOrzGWH-22" value="Предложить замену или отмену заказа" style="rounded=1;whiteSpace=wrap;html=1;arcSize=40;fontColor=#000000;fillColor=#ffffc0;strokeColor=#ff0000;" vertex="1" parent="PVkASZqiZ4NwRG8XRCTv-19">
          <mxGeometry x="15" y="390" width="120" height="40" as="geometry" />
        </mxCell>
        <mxCell id="PVkASZqiZ4NwRG8XRCTv-15" value="&lt;div&gt;&lt;br&gt;&lt;/div&gt;" style="ellipse;html=1;shape=endState;fillColor=#000000;strokeColor=#ff0000;" parent="PVkASZqiZ4NwRG8XRCTv-19" vertex="1">
          <mxGeometry x="125" y="1430" width="30" height="30" as="geometry" />
        </mxCell>
        <mxCell id="DtDmamrIcuMd9pOrzGWH-27" style="edgeStyle=orthogonalEdgeStyle;rounded=0;orthogonalLoop=1;jettySize=auto;html=1;entryX=0.5;entryY=0;entryDx=0;entryDy=0;" edge="1" parent="PVkASZqiZ4NwRG8XRCTv-19" source="DtDmamrIcuMd9pOrzGWH-25" target="DtDmamrIcuMd9pOrzGWH-26">
          <mxGeometry relative="1" as="geometry" />
        </mxCell>
        <mxCell id="DtDmamrIcuMd9pOrzGWH-25" value="Создать заказ в системе" style="rounded=1;whiteSpace=wrap;html=1;arcSize=40;fontColor=#000000;fillColor=#ffffc0;strokeColor=#ff0000;" vertex="1" parent="PVkASZqiZ4NwRG8XRCTv-19">
          <mxGeometry x="170" y="300" width="120" height="40" as="geometry" />
        </mxCell>
        <mxCell id="DtDmamrIcuMd9pOrzGWH-26" value="Подтвердить заказ клиенту" style="rounded=1;whiteSpace=wrap;html=1;arcSize=40;fontColor=#000000;fillColor=#ffffc0;strokeColor=#ff0000;" vertex="1" parent="PVkASZqiZ4NwRG8XRCTv-19">
          <mxGeometry x="170" y="390" width="120" height="40" as="geometry" />
        </mxCell>
        <mxCell id="DtDmamrIcuMd9pOrzGWH-63" style="edgeStyle=orthogonalEdgeStyle;rounded=0;orthogonalLoop=1;jettySize=auto;html=1;" edge="1" parent="PVkASZqiZ4NwRG8XRCTv-19" source="PVkASZqiZ4NwRG8XRCTv-13" target="PVkASZqiZ4NwRG8XRCTv-15">
          <mxGeometry relative="1" as="geometry" />
        </mxCell>
        <mxCell id="PVkASZqiZ4NwRG8XRCTv-13" value="" style="shape=line;html=1;strokeWidth=6;strokeColor=#ff0000;" parent="PVkASZqiZ4NwRG8XRCTv-19" vertex="1">
          <mxGeometry x="40" y="1370" width="200" height="10" as="geometry" />
        </mxCell>
        <mxCell id="DtDmamrIcuMd9pOrzGWH-29" value="нет" style="text;html=1;align=center;verticalAlign=middle;resizable=0;points=[];autosize=1;strokeColor=none;fillColor=none;" vertex="1" parent="PVkASZqiZ4NwRG8XRCTv-19">
          <mxGeometry x="70" y="240" width="40" height="30" as="geometry" />
        </mxCell>
        <mxCell id="DtDmamrIcuMd9pOrzGWH-4" value="Поддержка клиентов" style="swimlane;startSize=20;whiteSpace=wrap;html=1;" vertex="1" parent="1">
          <mxGeometry x="600" y="250" width="300" height="1480" as="geometry" />
        </mxCell>
        <mxCell id="DtDmamrIcuMd9pOrzGWH-60" style="edgeStyle=orthogonalEdgeStyle;rounded=0;orthogonalLoop=1;jettySize=auto;html=1;entryX=0.5;entryY=0;entryDx=0;entryDy=0;" edge="1" parent="DtDmamrIcuMd9pOrzGWH-4" source="DtDmamrIcuMd9pOrzGWH-56" target="DtDmamrIcuMd9pOrzGWH-58">
          <mxGeometry relative="1" as="geometry" />
        </mxCell>
        <mxCell id="DtDmamrIcuMd9pOrzGWH-56" value="Информировать клиента о статусе заказа" style="rounded=1;whiteSpace=wrap;html=1;arcSize=40;fontColor=#000000;fillColor=#ffffc0;strokeColor=#ff0000;" vertex="1" parent="DtDmamrIcuMd9pOrzGWH-4">
          <mxGeometry x="90" y="1060" width="140" height="40" as="geometry" />
        </mxCell>
        <mxCell id="DtDmamrIcuMd9pOrzGWH-61" style="edgeStyle=orthogonalEdgeStyle;rounded=0;orthogonalLoop=1;jettySize=auto;html=1;entryX=0.5;entryY=0;entryDx=0;entryDy=0;" edge="1" parent="DtDmamrIcuMd9pOrzGWH-4" source="DtDmamrIcuMd9pOrzGWH-58" target="DtDmamrIcuMd9pOrzGWH-59">
          <mxGeometry relative="1" as="geometry" />
        </mxCell>
        <mxCell id="DtDmamrIcuMd9pOrzGWH-58" value="Предоставить клиенту информацию о доставке" style="rounded=1;whiteSpace=wrap;html=1;arcSize=40;fontColor=#000000;fillColor=#ffffc0;strokeColor=#ff0000;" vertex="1" parent="DtDmamrIcuMd9pOrzGWH-4">
          <mxGeometry x="90" y="1140" width="140" height="40" as="geometry" />
        </mxCell>
        <mxCell id="DtDmamrIcuMd9pOrzGWH-59" value="Обеспечить послепродажную поддержку" style="rounded=1;whiteSpace=wrap;html=1;arcSize=40;fontColor=#000000;fillColor=#ffffc0;strokeColor=#ff0000;" vertex="1" parent="DtDmamrIcuMd9pOrzGWH-4">
          <mxGeometry x="75" y="1220" width="170" height="40" as="geometry" />
        </mxCell>
        <mxCell id="DtDmamrIcuMd9pOrzGWH-7" value="Логистика и доставка" style="swimlane;startSize=20;whiteSpace=wrap;html=1;" vertex="1" parent="1">
          <mxGeometry x="310" y="250" width="290" height="1480" as="geometry" />
        </mxCell>
        <mxCell id="DtDmamrIcuMd9pOrzGWH-50" style="edgeStyle=orthogonalEdgeStyle;rounded=0;orthogonalLoop=1;jettySize=auto;html=1;entryX=0.5;entryY=0;entryDx=0;entryDy=0;" edge="1" parent="DtDmamrIcuMd9pOrzGWH-7" source="DtDmamrIcuMd9pOrzGWH-39" target="DtDmamrIcuMd9pOrzGWH-49">
          <mxGeometry relative="1" as="geometry" />
        </mxCell>
        <mxCell id="DtDmamrIcuMd9pOrzGWH-39" value="Создать план доставки" style="rounded=1;whiteSpace=wrap;html=1;arcSize=40;fontColor=#000000;fillColor=#ffffc0;strokeColor=#ff0000;" vertex="1" parent="DtDmamrIcuMd9pOrzGWH-7">
          <mxGeometry x="80" y="605" width="140" height="40" as="geometry" />
        </mxCell>
        <mxCell id="DtDmamrIcuMd9pOrzGWH-52" style="edgeStyle=orthogonalEdgeStyle;rounded=0;orthogonalLoop=1;jettySize=auto;html=1;" edge="1" parent="DtDmamrIcuMd9pOrzGWH-7" source="DtDmamrIcuMd9pOrzGWH-49" target="DtDmamrIcuMd9pOrzGWH-51">
          <mxGeometry relative="1" as="geometry" />
        </mxCell>
        <mxCell id="DtDmamrIcuMd9pOrzGWH-49" value="Определить время доставки" style="rounded=1;whiteSpace=wrap;html=1;arcSize=40;fontColor=#000000;fillColor=#ffffc0;strokeColor=#ff0000;" vertex="1" parent="DtDmamrIcuMd9pOrzGWH-7">
          <mxGeometry x="80" y="680" width="140" height="40" as="geometry" />
        </mxCell>
        <mxCell id="DtDmamrIcuMd9pOrzGWH-64" style="edgeStyle=orthogonalEdgeStyle;rounded=0;orthogonalLoop=1;jettySize=auto;html=1;entryX=0.5;entryY=0;entryDx=0;entryDy=0;" edge="1" parent="DtDmamrIcuMd9pOrzGWH-7" source="DtDmamrIcuMd9pOrzGWH-51" target="DtDmamrIcuMd9pOrzGWH-53">
          <mxGeometry relative="1" as="geometry" />
        </mxCell>
        <mxCell id="DtDmamrIcuMd9pOrzGWH-51" value="Уведомить клиента о времени доставки" style="rounded=1;whiteSpace=wrap;html=1;arcSize=40;fontColor=#000000;fillColor=#ffffc0;strokeColor=#ff0000;" vertex="1" parent="DtDmamrIcuMd9pOrzGWH-7">
          <mxGeometry x="80" y="760" width="140" height="40" as="geometry" />
        </mxCell>
        <mxCell id="DtDmamrIcuMd9pOrzGWH-65" style="edgeStyle=orthogonalEdgeStyle;rounded=0;orthogonalLoop=1;jettySize=auto;html=1;" edge="1" parent="DtDmamrIcuMd9pOrzGWH-7" source="DtDmamrIcuMd9pOrzGWH-53" target="DtDmamrIcuMd9pOrzGWH-54">
          <mxGeometry relative="1" as="geometry" />
        </mxCell>
        <mxCell id="DtDmamrIcuMd9pOrzGWH-53" value="Назначить курьера" style="rounded=1;whiteSpace=wrap;html=1;arcSize=40;fontColor=#000000;fillColor=#ffffc0;strokeColor=#ff0000;" vertex="1" parent="DtDmamrIcuMd9pOrzGWH-7">
          <mxGeometry x="80" y="840" width="140" height="40" as="geometry" />
        </mxCell>
        <mxCell id="DtDmamrIcuMd9pOrzGWH-66" style="edgeStyle=orthogonalEdgeStyle;rounded=0;orthogonalLoop=1;jettySize=auto;html=1;" edge="1" parent="DtDmamrIcuMd9pOrzGWH-7" source="DtDmamrIcuMd9pOrzGWH-54" target="DtDmamrIcuMd9pOrzGWH-55">
          <mxGeometry relative="1" as="geometry" />
        </mxCell>
        <mxCell id="DtDmamrIcuMd9pOrzGWH-54" value="Отправить товар" style="rounded=1;whiteSpace=wrap;html=1;arcSize=40;fontColor=#000000;fillColor=#ffffc0;strokeColor=#ff0000;" vertex="1" parent="DtDmamrIcuMd9pOrzGWH-7">
          <mxGeometry x="80" y="919" width="140" height="40" as="geometry" />
        </mxCell>
        <mxCell id="DtDmamrIcuMd9pOrzGWH-55" value="Отслеживать доставку" style="rounded=1;whiteSpace=wrap;html=1;arcSize=40;fontColor=#000000;fillColor=#ffffc0;strokeColor=#ff0000;" vertex="1" parent="DtDmamrIcuMd9pOrzGWH-7">
          <mxGeometry x="80" y="1000" width="140" height="40" as="geometry" />
        </mxCell>
        <mxCell id="DtDmamrIcuMd9pOrzGWH-10" value="Обработка платежей" style="swimlane;startSize=20;whiteSpace=wrap;html=1;" vertex="1" parent="1">
          <mxGeometry x="20" y="250" width="290" height="1480" as="geometry" />
        </mxCell>
        <mxCell id="DtDmamrIcuMd9pOrzGWH-33" style="edgeStyle=orthogonalEdgeStyle;rounded=0;orthogonalLoop=1;jettySize=auto;html=1;entryX=0.5;entryY=0;entryDx=0;entryDy=0;" edge="1" parent="DtDmamrIcuMd9pOrzGWH-10" source="DtDmamrIcuMd9pOrzGWH-30" target="DtDmamrIcuMd9pOrzGWH-32">
          <mxGeometry relative="1" as="geometry" />
        </mxCell>
        <mxCell id="DtDmamrIcuMd9pOrzGWH-30" value="Проверить информацию о платеже" style="rounded=1;whiteSpace=wrap;html=1;arcSize=40;fontColor=#000000;fillColor=#ffffc0;strokeColor=#ff0000;" vertex="1" parent="DtDmamrIcuMd9pOrzGWH-10">
          <mxGeometry x="100" y="390" width="140" height="40" as="geometry" />
        </mxCell>
        <mxCell id="DtDmamrIcuMd9pOrzGWH-35" style="edgeStyle=orthogonalEdgeStyle;rounded=0;orthogonalLoop=1;jettySize=auto;html=1;" edge="1" parent="DtDmamrIcuMd9pOrzGWH-10" source="DtDmamrIcuMd9pOrzGWH-32" target="DtDmamrIcuMd9pOrzGWH-34">
          <mxGeometry relative="1" as="geometry" />
        </mxCell>
        <mxCell id="DtDmamrIcuMd9pOrzGWH-32" value="Инициализировать платеж" style="rounded=1;whiteSpace=wrap;html=1;arcSize=40;fontColor=#000000;fillColor=#ffffc0;strokeColor=#ff0000;" vertex="1" parent="DtDmamrIcuMd9pOrzGWH-10">
          <mxGeometry x="100" y="460" width="140" height="40" as="geometry" />
        </mxCell>
        <mxCell id="DtDmamrIcuMd9pOrzGWH-37" style="edgeStyle=orthogonalEdgeStyle;rounded=0;orthogonalLoop=1;jettySize=auto;html=1;" edge="1" parent="DtDmamrIcuMd9pOrzGWH-10" source="DtDmamrIcuMd9pOrzGWH-34" target="DtDmamrIcuMd9pOrzGWH-36">
          <mxGeometry relative="1" as="geometry" />
        </mxCell>
        <mxCell id="DtDmamrIcuMd9pOrzGWH-34" value="Отправить запрос на оплату в банк" style="rounded=1;whiteSpace=wrap;html=1;arcSize=40;fontColor=#000000;fillColor=#ffffc0;strokeColor=#ff0000;" vertex="1" parent="DtDmamrIcuMd9pOrzGWH-10">
          <mxGeometry x="100" y="530" width="140" height="40" as="geometry" />
        </mxCell>
        <mxCell id="DtDmamrIcuMd9pOrzGWH-42" style="edgeStyle=orthogonalEdgeStyle;rounded=0;orthogonalLoop=1;jettySize=auto;html=1;" edge="1" parent="DtDmamrIcuMd9pOrzGWH-10" source="DtDmamrIcuMd9pOrzGWH-36" target="DtDmamrIcuMd9pOrzGWH-41">
          <mxGeometry relative="1" as="geometry" />
        </mxCell>
        <mxCell id="DtDmamrIcuMd9pOrzGWH-36" value="Оплата успешна?" style="rhombus;whiteSpace=wrap;html=1;fontColor=#000000;fillColor=#ffffc0;strokeColor=#ff0000;" vertex="1" parent="DtDmamrIcuMd9pOrzGWH-10">
          <mxGeometry x="120" y="600" width="100" height="50" as="geometry" />
        </mxCell>
        <mxCell id="DtDmamrIcuMd9pOrzGWH-40" value="да" style="text;html=1;align=center;verticalAlign=middle;resizable=0;points=[];autosize=1;strokeColor=none;fillColor=none;" vertex="1" parent="DtDmamrIcuMd9pOrzGWH-10">
          <mxGeometry x="200" y="600" width="40" height="30" as="geometry" />
        </mxCell>
        <mxCell id="DtDmamrIcuMd9pOrzGWH-46" style="edgeStyle=orthogonalEdgeStyle;rounded=0;orthogonalLoop=1;jettySize=auto;html=1;entryX=0.5;entryY=0;entryDx=0;entryDy=0;" edge="1" parent="DtDmamrIcuMd9pOrzGWH-10" source="DtDmamrIcuMd9pOrzGWH-41" target="DtDmamrIcuMd9pOrzGWH-44">
          <mxGeometry relative="1" as="geometry" />
        </mxCell>
        <mxCell id="DtDmamrIcuMd9pOrzGWH-41" value="Зафиксировать ошибку оплаты" style="rounded=1;whiteSpace=wrap;html=1;arcSize=40;fontColor=#000000;fillColor=#ffffc0;strokeColor=#ff0000;" vertex="1" parent="DtDmamrIcuMd9pOrzGWH-10">
          <mxGeometry x="100" y="690" width="140" height="40" as="geometry" />
        </mxCell>
        <mxCell id="DtDmamrIcuMd9pOrzGWH-43" value="нет" style="text;html=1;align=center;verticalAlign=middle;resizable=0;points=[];autosize=1;strokeColor=none;fillColor=none;" vertex="1" parent="DtDmamrIcuMd9pOrzGWH-10">
          <mxGeometry x="130" y="650" width="40" height="30" as="geometry" />
        </mxCell>
        <mxCell id="DtDmamrIcuMd9pOrzGWH-47" style="edgeStyle=orthogonalEdgeStyle;rounded=0;orthogonalLoop=1;jettySize=auto;html=1;entryX=0.5;entryY=0;entryDx=0;entryDy=0;" edge="1" parent="DtDmamrIcuMd9pOrzGWH-10" source="DtDmamrIcuMd9pOrzGWH-44" target="DtDmamrIcuMd9pOrzGWH-45">
          <mxGeometry relative="1" as="geometry" />
        </mxCell>
        <mxCell id="DtDmamrIcuMd9pOrzGWH-44" value="Уведомить клиента о неудаче" style="rounded=1;whiteSpace=wrap;html=1;arcSize=40;fontColor=#000000;fillColor=#ffffc0;strokeColor=#ff0000;" vertex="1" parent="DtDmamrIcuMd9pOrzGWH-10">
          <mxGeometry x="100" y="760" width="140" height="40" as="geometry" />
        </mxCell>
        <mxCell id="DtDmamrIcuMd9pOrzGWH-48" style="edgeStyle=orthogonalEdgeStyle;rounded=0;orthogonalLoop=1;jettySize=auto;html=1;entryX=0;entryY=0.5;entryDx=0;entryDy=0;exitX=0.5;exitY=1;exitDx=0;exitDy=0;" edge="1" parent="DtDmamrIcuMd9pOrzGWH-10" source="DtDmamrIcuMd9pOrzGWH-45" target="DtDmamrIcuMd9pOrzGWH-32">
          <mxGeometry relative="1" as="geometry">
            <Array as="points">
              <mxPoint x="170" y="900" />
              <mxPoint x="80" y="900" />
              <mxPoint x="80" y="480" />
            </Array>
          </mxGeometry>
        </mxCell>
        <mxCell id="DtDmamrIcuMd9pOrzGWH-45" value="Запросить повторный платеж" style="rounded=1;whiteSpace=wrap;html=1;arcSize=40;fontColor=#000000;fillColor=#ffffc0;strokeColor=#ff0000;" vertex="1" parent="DtDmamrIcuMd9pOrzGWH-10">
          <mxGeometry x="100" y="830" width="140" height="40" as="geometry" />
        </mxCell>
        <mxCell id="DtDmamrIcuMd9pOrzGWH-31" style="edgeStyle=orthogonalEdgeStyle;rounded=0;orthogonalLoop=1;jettySize=auto;html=1;entryX=0;entryY=0.5;entryDx=0;entryDy=0;" edge="1" parent="1" source="DtDmamrIcuMd9pOrzGWH-26" target="DtDmamrIcuMd9pOrzGWH-30">
          <mxGeometry relative="1" as="geometry" />
        </mxCell>
        <mxCell id="DtDmamrIcuMd9pOrzGWH-38" style="edgeStyle=orthogonalEdgeStyle;rounded=0;orthogonalLoop=1;jettySize=auto;html=1;" edge="1" parent="1" source="DtDmamrIcuMd9pOrzGWH-36" target="DtDmamrIcuMd9pOrzGWH-39">
          <mxGeometry relative="1" as="geometry">
            <mxPoint x="490" y="1050" as="targetPoint" />
          </mxGeometry>
        </mxCell>
        <mxCell id="DtDmamrIcuMd9pOrzGWH-57" style="edgeStyle=orthogonalEdgeStyle;rounded=0;orthogonalLoop=1;jettySize=auto;html=1;" edge="1" parent="1" source="DtDmamrIcuMd9pOrzGWH-55" target="DtDmamrIcuMd9pOrzGWH-56">
          <mxGeometry relative="1" as="geometry" />
        </mxCell>
        <mxCell id="DtDmamrIcuMd9pOrzGWH-62" style="edgeStyle=orthogonalEdgeStyle;rounded=0;orthogonalLoop=1;jettySize=auto;html=1;entryX=0.75;entryY=0.5;entryDx=0;entryDy=0;entryPerimeter=0;" edge="1" parent="1" source="DtDmamrIcuMd9pOrzGWH-59" target="PVkASZqiZ4NwRG8XRCTv-13">
          <mxGeometry relative="1" as="geometry">
            <mxPoint x="-130" y="1620" as="targetPoint" />
            <Array as="points">
              <mxPoint x="760" y="1590" />
              <mxPoint x="-140" y="1590" />
            </Array>
          </mxGeometry>
        </mxCell>
      </root>
    </mxGraphModel>
  </diagram>
  <diagram id="C5RBs43oDa-KdzZeNtuy" name="Page-1">
    <mxGraphModel dx="1223" dy="871" grid="1" gridSize="10" guides="1" tooltips="1" connect="1" arrows="1" fold="1" page="1" pageScale="1" pageWidth="827" pageHeight="1169" math="0" shadow="0">
      <root>
        <mxCell id="WIyWlLk6GJQsqaUBKTNV-0" />
        <mxCell id="WIyWlLk6GJQsqaUBKTNV-1" parent="WIyWlLk6GJQsqaUBKTNV-0" />
        <mxCell id="zkfFHV4jXpPFQw0GAbJ--0" value="Person" style="swimlane;fontStyle=2;align=center;verticalAlign=top;childLayout=stackLayout;horizontal=1;startSize=26;horizontalStack=0;resizeParent=1;resizeLast=0;collapsible=1;marginBottom=0;rounded=0;shadow=0;strokeWidth=1;" parent="WIyWlLk6GJQsqaUBKTNV-1" vertex="1">
          <mxGeometry x="220" y="120" width="160" height="138" as="geometry">
            <mxRectangle x="230" y="140" width="160" height="26" as="alternateBounds" />
          </mxGeometry>
        </mxCell>
        <mxCell id="zkfFHV4jXpPFQw0GAbJ--1" value="Name" style="text;align=left;verticalAlign=top;spacingLeft=4;spacingRight=4;overflow=hidden;rotatable=0;points=[[0,0.5],[1,0.5]];portConstraint=eastwest;" parent="zkfFHV4jXpPFQw0GAbJ--0" vertex="1">
          <mxGeometry y="26" width="160" height="26" as="geometry" />
        </mxCell>
        <mxCell id="zkfFHV4jXpPFQw0GAbJ--2" value="Phone Number" style="text;align=left;verticalAlign=top;spacingLeft=4;spacingRight=4;overflow=hidden;rotatable=0;points=[[0,0.5],[1,0.5]];portConstraint=eastwest;rounded=0;shadow=0;html=0;" parent="zkfFHV4jXpPFQw0GAbJ--0" vertex="1">
          <mxGeometry y="52" width="160" height="26" as="geometry" />
        </mxCell>
        <mxCell id="zkfFHV4jXpPFQw0GAbJ--3" value="Email Address" style="text;align=left;verticalAlign=top;spacingLeft=4;spacingRight=4;overflow=hidden;rotatable=0;points=[[0,0.5],[1,0.5]];portConstraint=eastwest;rounded=0;shadow=0;html=0;" parent="zkfFHV4jXpPFQw0GAbJ--0" vertex="1">
          <mxGeometry y="78" width="160" height="26" as="geometry" />
        </mxCell>
        <mxCell id="zkfFHV4jXpPFQw0GAbJ--4" value="" style="line;html=1;strokeWidth=1;align=left;verticalAlign=middle;spacingTop=-1;spacingLeft=3;spacingRight=3;rotatable=0;labelPosition=right;points=[];portConstraint=eastwest;" parent="zkfFHV4jXpPFQw0GAbJ--0" vertex="1">
          <mxGeometry y="104" width="160" height="8" as="geometry" />
        </mxCell>
        <mxCell id="zkfFHV4jXpPFQw0GAbJ--5" value="Purchase Parking Pass" style="text;align=left;verticalAlign=top;spacingLeft=4;spacingRight=4;overflow=hidden;rotatable=0;points=[[0,0.5],[1,0.5]];portConstraint=eastwest;" parent="zkfFHV4jXpPFQw0GAbJ--0" vertex="1">
          <mxGeometry y="112" width="160" height="26" as="geometry" />
        </mxCell>
        <mxCell id="zkfFHV4jXpPFQw0GAbJ--6" value="Student" style="swimlane;fontStyle=0;align=center;verticalAlign=top;childLayout=stackLayout;horizontal=1;startSize=26;horizontalStack=0;resizeParent=1;resizeLast=0;collapsible=1;marginBottom=0;rounded=0;shadow=0;strokeWidth=1;" parent="WIyWlLk6GJQsqaUBKTNV-1" vertex="1">
          <mxGeometry x="120" y="360" width="160" height="138" as="geometry">
            <mxRectangle x="130" y="380" width="160" height="26" as="alternateBounds" />
          </mxGeometry>
        </mxCell>
        <mxCell id="zkfFHV4jXpPFQw0GAbJ--7" value="Student Number" style="text;align=left;verticalAlign=top;spacingLeft=4;spacingRight=4;overflow=hidden;rotatable=0;points=[[0,0.5],[1,0.5]];portConstraint=eastwest;" parent="zkfFHV4jXpPFQw0GAbJ--6" vertex="1">
          <mxGeometry y="26" width="160" height="26" as="geometry" />
        </mxCell>
        <mxCell id="zkfFHV4jXpPFQw0GAbJ--8" value="Average Mark" style="text;align=left;verticalAlign=top;spacingLeft=4;spacingRight=4;overflow=hidden;rotatable=0;points=[[0,0.5],[1,0.5]];portConstraint=eastwest;rounded=0;shadow=0;html=0;" parent="zkfFHV4jXpPFQw0GAbJ--6" vertex="1">
          <mxGeometry y="52" width="160" height="26" as="geometry" />
        </mxCell>
        <mxCell id="zkfFHV4jXpPFQw0GAbJ--9" value="" style="line;html=1;strokeWidth=1;align=left;verticalAlign=middle;spacingTop=-1;spacingLeft=3;spacingRight=3;rotatable=0;labelPosition=right;points=[];portConstraint=eastwest;" parent="zkfFHV4jXpPFQw0GAbJ--6" vertex="1">
          <mxGeometry y="78" width="160" height="8" as="geometry" />
        </mxCell>
        <mxCell id="zkfFHV4jXpPFQw0GAbJ--10" value="Is Eligible To Enroll" style="text;align=left;verticalAlign=top;spacingLeft=4;spacingRight=4;overflow=hidden;rotatable=0;points=[[0,0.5],[1,0.5]];portConstraint=eastwest;fontStyle=4" parent="zkfFHV4jXpPFQw0GAbJ--6" vertex="1">
          <mxGeometry y="86" width="160" height="26" as="geometry" />
        </mxCell>
        <mxCell id="zkfFHV4jXpPFQw0GAbJ--11" value="Get Seminars Taken" style="text;align=left;verticalAlign=top;spacingLeft=4;spacingRight=4;overflow=hidden;rotatable=0;points=[[0,0.5],[1,0.5]];portConstraint=eastwest;" parent="zkfFHV4jXpPFQw0GAbJ--6" vertex="1">
          <mxGeometry y="112" width="160" height="26" as="geometry" />
        </mxCell>
        <mxCell id="zkfFHV4jXpPFQw0GAbJ--12" value="" style="endArrow=block;endSize=10;endFill=0;shadow=0;strokeWidth=1;rounded=0;curved=0;edgeStyle=elbowEdgeStyle;elbow=vertical;" parent="WIyWlLk6GJQsqaUBKTNV-1" source="zkfFHV4jXpPFQw0GAbJ--6" target="zkfFHV4jXpPFQw0GAbJ--0" edge="1">
          <mxGeometry width="160" relative="1" as="geometry">
            <mxPoint x="200" y="203" as="sourcePoint" />
            <mxPoint x="200" y="203" as="targetPoint" />
          </mxGeometry>
        </mxCell>
        <mxCell id="zkfFHV4jXpPFQw0GAbJ--13" value="Professor" style="swimlane;fontStyle=0;align=center;verticalAlign=top;childLayout=stackLayout;horizontal=1;startSize=26;horizontalStack=0;resizeParent=1;resizeLast=0;collapsible=1;marginBottom=0;rounded=0;shadow=0;strokeWidth=1;" parent="WIyWlLk6GJQsqaUBKTNV-1" vertex="1">
          <mxGeometry x="330" y="360" width="160" height="70" as="geometry">
            <mxRectangle x="340" y="380" width="170" height="26" as="alternateBounds" />
          </mxGeometry>
        </mxCell>
        <mxCell id="zkfFHV4jXpPFQw0GAbJ--14" value="Salary" style="text;align=left;verticalAlign=top;spacingLeft=4;spacingRight=4;overflow=hidden;rotatable=0;points=[[0,0.5],[1,0.5]];portConstraint=eastwest;" parent="zkfFHV4jXpPFQw0GAbJ--13" vertex="1">
          <mxGeometry y="26" width="160" height="26" as="geometry" />
        </mxCell>
        <mxCell id="zkfFHV4jXpPFQw0GAbJ--15" value="" style="line;html=1;strokeWidth=1;align=left;verticalAlign=middle;spacingTop=-1;spacingLeft=3;spacingRight=3;rotatable=0;labelPosition=right;points=[];portConstraint=eastwest;" parent="zkfFHV4jXpPFQw0GAbJ--13" vertex="1">
          <mxGeometry y="52" width="160" height="8" as="geometry" />
        </mxCell>
        <mxCell id="zkfFHV4jXpPFQw0GAbJ--16" value="" style="endArrow=block;endSize=10;endFill=0;shadow=0;strokeWidth=1;rounded=0;curved=0;edgeStyle=elbowEdgeStyle;elbow=vertical;" parent="WIyWlLk6GJQsqaUBKTNV-1" source="zkfFHV4jXpPFQw0GAbJ--13" target="zkfFHV4jXpPFQw0GAbJ--0" edge="1">
          <mxGeometry width="160" relative="1" as="geometry">
            <mxPoint x="210" y="373" as="sourcePoint" />
            <mxPoint x="310" y="271" as="targetPoint" />
          </mxGeometry>
        </mxCell>
        <mxCell id="zkfFHV4jXpPFQw0GAbJ--17" value="Address" style="swimlane;fontStyle=0;align=center;verticalAlign=top;childLayout=stackLayout;horizontal=1;startSize=26;horizontalStack=0;resizeParent=1;resizeLast=0;collapsible=1;marginBottom=0;rounded=0;shadow=0;strokeWidth=1;" parent="WIyWlLk6GJQsqaUBKTNV-1" vertex="1">
          <mxGeometry x="508" y="120" width="160" height="216" as="geometry">
            <mxRectangle x="550" y="140" width="160" height="26" as="alternateBounds" />
          </mxGeometry>
        </mxCell>
        <mxCell id="zkfFHV4jXpPFQw0GAbJ--18" value="Street" style="text;align=left;verticalAlign=top;spacingLeft=4;spacingRight=4;overflow=hidden;rotatable=0;points=[[0,0.5],[1,0.5]];portConstraint=eastwest;" parent="zkfFHV4jXpPFQw0GAbJ--17" vertex="1">
          <mxGeometry y="26" width="160" height="26" as="geometry" />
        </mxCell>
        <mxCell id="zkfFHV4jXpPFQw0GAbJ--19" value="City" style="text;align=left;verticalAlign=top;spacingLeft=4;spacingRight=4;overflow=hidden;rotatable=0;points=[[0,0.5],[1,0.5]];portConstraint=eastwest;rounded=0;shadow=0;html=0;" parent="zkfFHV4jXpPFQw0GAbJ--17" vertex="1">
          <mxGeometry y="52" width="160" height="26" as="geometry" />
        </mxCell>
        <mxCell id="zkfFHV4jXpPFQw0GAbJ--20" value="State" style="text;align=left;verticalAlign=top;spacingLeft=4;spacingRight=4;overflow=hidden;rotatable=0;points=[[0,0.5],[1,0.5]];portConstraint=eastwest;rounded=0;shadow=0;html=0;" parent="zkfFHV4jXpPFQw0GAbJ--17" vertex="1">
          <mxGeometry y="78" width="160" height="26" as="geometry" />
        </mxCell>
        <mxCell id="zkfFHV4jXpPFQw0GAbJ--21" value="Postal Code" style="text;align=left;verticalAlign=top;spacingLeft=4;spacingRight=4;overflow=hidden;rotatable=0;points=[[0,0.5],[1,0.5]];portConstraint=eastwest;rounded=0;shadow=0;html=0;" parent="zkfFHV4jXpPFQw0GAbJ--17" vertex="1">
          <mxGeometry y="104" width="160" height="26" as="geometry" />
        </mxCell>
        <mxCell id="zkfFHV4jXpPFQw0GAbJ--22" value="Country" style="text;align=left;verticalAlign=top;spacingLeft=4;spacingRight=4;overflow=hidden;rotatable=0;points=[[0,0.5],[1,0.5]];portConstraint=eastwest;rounded=0;shadow=0;html=0;" parent="zkfFHV4jXpPFQw0GAbJ--17" vertex="1">
          <mxGeometry y="130" width="160" height="26" as="geometry" />
        </mxCell>
        <mxCell id="zkfFHV4jXpPFQw0GAbJ--23" value="" style="line;html=1;strokeWidth=1;align=left;verticalAlign=middle;spacingTop=-1;spacingLeft=3;spacingRight=3;rotatable=0;labelPosition=right;points=[];portConstraint=eastwest;" parent="zkfFHV4jXpPFQw0GAbJ--17" vertex="1">
          <mxGeometry y="156" width="160" height="8" as="geometry" />
        </mxCell>
        <mxCell id="zkfFHV4jXpPFQw0GAbJ--24" value="Validate" style="text;align=left;verticalAlign=top;spacingLeft=4;spacingRight=4;overflow=hidden;rotatable=0;points=[[0,0.5],[1,0.5]];portConstraint=eastwest;" parent="zkfFHV4jXpPFQw0GAbJ--17" vertex="1">
          <mxGeometry y="164" width="160" height="26" as="geometry" />
        </mxCell>
        <mxCell id="zkfFHV4jXpPFQw0GAbJ--25" value="Output As Label" style="text;align=left;verticalAlign=top;spacingLeft=4;spacingRight=4;overflow=hidden;rotatable=0;points=[[0,0.5],[1,0.5]];portConstraint=eastwest;" parent="zkfFHV4jXpPFQw0GAbJ--17" vertex="1">
          <mxGeometry y="190" width="160" height="26" as="geometry" />
        </mxCell>
        <mxCell id="zkfFHV4jXpPFQw0GAbJ--26" value="" style="endArrow=open;shadow=0;strokeWidth=1;rounded=0;curved=0;endFill=1;edgeStyle=elbowEdgeStyle;elbow=vertical;" parent="WIyWlLk6GJQsqaUBKTNV-1" source="zkfFHV4jXpPFQw0GAbJ--0" target="zkfFHV4jXpPFQw0GAbJ--17" edge="1">
          <mxGeometry x="0.5" y="41" relative="1" as="geometry">
            <mxPoint x="380" y="192" as="sourcePoint" />
            <mxPoint x="540" y="192" as="targetPoint" />
            <mxPoint x="-40" y="32" as="offset" />
          </mxGeometry>
        </mxCell>
        <mxCell id="zkfFHV4jXpPFQw0GAbJ--27" value="0..1" style="resizable=0;align=left;verticalAlign=bottom;labelBackgroundColor=none;fontSize=12;" parent="zkfFHV4jXpPFQw0GAbJ--26" connectable="0" vertex="1">
          <mxGeometry x="-1" relative="1" as="geometry">
            <mxPoint y="4" as="offset" />
          </mxGeometry>
        </mxCell>
        <mxCell id="zkfFHV4jXpPFQw0GAbJ--28" value="1" style="resizable=0;align=right;verticalAlign=bottom;labelBackgroundColor=none;fontSize=12;" parent="zkfFHV4jXpPFQw0GAbJ--26" connectable="0" vertex="1">
          <mxGeometry x="1" relative="1" as="geometry">
            <mxPoint x="-7" y="4" as="offset" />
          </mxGeometry>
        </mxCell>
        <mxCell id="zkfFHV4jXpPFQw0GAbJ--29" value="lives at" style="text;html=1;resizable=0;points=[];;align=center;verticalAlign=middle;labelBackgroundColor=none;rounded=0;shadow=0;strokeWidth=1;fontSize=12;" parent="zkfFHV4jXpPFQw0GAbJ--26" vertex="1" connectable="0">
          <mxGeometry x="0.5" y="49" relative="1" as="geometry">
            <mxPoint x="-38" y="40" as="offset" />
          </mxGeometry>
        </mxCell>
      </root>
    </mxGraphModel>
  </diagram>
  <diagram id="-Q79XHKLUMNNheeag9UI" name="Page-3">
    <mxGraphModel dx="9192" dy="4699" grid="1" gridSize="10" guides="1" tooltips="1" connect="1" arrows="1" fold="1" page="1" pageScale="1" pageWidth="827" pageHeight="1169" math="0" shadow="0">
      <root>
        <mxCell id="0" />
        <mxCell id="1" parent="0" />
        <UserObject label="" plantUmlData="{&#xa;  &quot;data&quot;: &quot;@startuml\nstart\n:Получен заказ;\nif (Товар на складе?) then (Да)\n    :Подтверждение заказа;\n    :Переход к оплате;\n    :Обработка платежа;\n    if (Оплата успешна?) then (Да)\n        :Подтверждение оплаты;\n        :Планирование доставки;\n        :Подтверждение с клиентом;\n        :Отправка заказа;\n        :Информирование о статусе;\n        :Послепродажная поддержка;\n    else (Нет)\n        :Ошибка оплаты;\n        :Повторная попытка или отказ;\n    endif\nelse (Нет)\n    :Уведомление клиента;\n    :Завершение заказа;\nendif\nstop\n@enduml\n&quot;,&#xa;  &quot;format&quot;: &quot;svg&quot;&#xa;}" id="rWyMwrhODxbir77O0bZQ-1">
          <mxCell style="shape=image;noLabel=1;verticalAlign=top;aspect=fixed;imageAspect=0;image=data:image/svg+xml,PD94bWwgdmVyc2lvbj0iMS4wIiBlbmNvZGluZz0idXMtYXNjaWkiIHN0YW5kYWxvbmU9Im5vIj8+PHN2ZyB4bWxucz0iaHR0cDovL3d3dy53My5vcmcvMjAwMC9zdmciIHhtbG5zOnhsaW5rPSJodHRwOi8vd3d3LnczLm9yZy8xOTk5L3hsaW5rIiBjb250ZW50U3R5bGVUeXBlPSJ0ZXh0L2NzcyIgaGVpZ2h0PSI3MzlweCIgcHJlc2VydmVBc3BlY3RSYXRpbz0ibm9uZSIgc3R5bGU9IndpZHRoOjYwM3B4O2hlaWdodDo3MzlweDtiYWNrZ3JvdW5kOiNGRkZGRkY7IiB2ZXJzaW9uPSIxLjEiIHZpZXdCb3g9IjAgMCA2MDMgNzM5IiB3aWR0aD0iNjAzcHgiIHpvb21BbmRQYW49Im1hZ25pZnkiPjxkZWZzLz48Zz48ZWxsaXBzZSBjeD0iMzYzLjM3NSIgY3k9IjIwIiBmaWxsPSIjMjIyMjIyIiByeD0iMTAiIHJ5PSIxMCIgc3R5bGU9InN0cm9rZTojMjIyMjIyO3N0cm9rZS13aWR0aDoxLjA7Ii8+PHJlY3QgZmlsbD0iI0YxRjFGMSIgaGVpZ2h0PSIzMi44NDM4IiByeD0iMTIuNSIgcnk9IjEyLjUiIHN0eWxlPSJzdHJva2U6IzE4MTgxODtzdHJva2Utd2lkdGg6MC41OyIgd2lkdGg9IjEwNiIgeD0iMzEwLjM3NSIgeT0iNTAiLz48dGV4dCBmaWxsPSIjMDAwMDAwIiBmb250LWZhbWlseT0ic2Fucy1zZXJpZiIgZm9udC1zaXplPSIxMiIgbGVuZ3RoQWRqdXN0PSJzcGFjaW5nIiB0ZXh0TGVuZ3RoPSI4NiIgeD0iMzIwLjM3NSIgeT0iNzEuMzQzOCI+JiMxMDU1OyYjMTA4NjsmIzEwODM7JiMxMDkxOyYjMTA5NTsmIzEwNzc7JiMxMDg1OyAmIzEwNzk7JiMxMDcyOyYjMTA4MjsmIzEwNzI7JiMxMDc5OzwvdGV4dD48cG9seWdvbiBmaWxsPSIjRjFGMUYxIiBwb2ludHM9IjMxNS4zNzUsMTAyLjg0MzgsNDExLjM3NSwxMDIuODQzOCw0MjMuMzc1LDExNC44NDM4LDQxMS4zNzUsMTI2Ljg0MzgsMzE1LjM3NSwxMjYuODQzOCwzMDMuMzc1LDExNC44NDM4LDMxNS4zNzUsMTAyLjg0MzgiIHN0eWxlPSJzdHJva2U6IzE4MTgxODtzdHJva2Utd2lkdGg6MC41OyIvPjx0ZXh0IGZpbGw9IiMwMDAwMDAiIGZvbnQtZmFtaWx5PSJzYW5zLXNlcmlmIiBmb250LXNpemU9IjExIiBsZW5ndGhBZGp1c3Q9InNwYWNpbmciIHRleHRMZW5ndGg9Ijk2IiB4PSIzMTUuMzc1IiB5PSIxMTkuMzU1NSI+JiMxMDU4OyYjMTA4NjsmIzEwNzQ7JiMxMDcyOyYjMTA4ODsgJiMxMDg1OyYjMTA3MjsgJiMxMDg5OyYjMTA4MjsmIzEwODM7JiMxMDcyOyYjMTA3NjsmIzEwNzc7PzwvdGV4dD48dGV4dCBmaWxsPSIjMDAwMDAwIiBmb250LWZhbWlseT0ic2Fucy1zZXJpZiIgZm9udC1zaXplPSIxMSIgbGVuZ3RoQWRqdXN0PSJzcGFjaW5nIiB0ZXh0TGVuZ3RoPSIxMiIgeD0iMjkxLjM3NSIgeT0iMTEzLjQ2ODgiPiYjMTA0NDsmIzEwNzI7PC90ZXh0Pjx0ZXh0IGZpbGw9IiMwMDAwMDAiIGZvbnQtZmFtaWx5PSJzYW5zLXNlcmlmIiBmb250LXNpemU9IjExIiBsZW5ndGhBZGp1c3Q9InNwYWNpbmciIHRleHRMZW5ndGg9IjE4IiB4PSI0MjMuMzc1IiB5PSIxMTMuNDY4OCI+JiMxMDUzOyYjMTA3NzsmIzEwOTA7PC90ZXh0PjxyZWN0IGZpbGw9IiNGMUYxRjEiIGhlaWdodD0iMzIuODQzOCIgcng9IjEyLjUiIHJ5PSIxMi41IiBzdHlsZT0ic3Ryb2tlOiMxODE4MTg7c3Ryb2tlLXdpZHRoOjAuNTsiIHdpZHRoPSIxNTUiIHg9IjEzMS4yNSIgeT0iMTM2Ljg0MzgiLz48dGV4dCBmaWxsPSIjMDAwMDAwIiBmb250LWZhbWlseT0ic2Fucy1zZXJpZiIgZm9udC1zaXplPSIxMiIgbGVuZ3RoQWRqdXN0PSJzcGFjaW5nIiB0ZXh0TGVuZ3RoPSIxMzUiIHg9IjE0MS4yNSIgeT0iMTU4LjE4NzUiPiYjMTA1NTsmIzEwODY7JiMxMDc2OyYjMTA5MDsmIzEwNzQ7JiMxMDc3OyYjMTA4ODsmIzEwNzg7JiMxMDc2OyYjMTA3NzsmIzEwODU7JiMxMDgwOyYjMTA3NzsgJiMxMDc5OyYjMTA3MjsmIzEwODI7JiMxMDcyOyYjMTA3OTsmIzEwNzI7PC90ZXh0PjxyZWN0IGZpbGw9IiNGMUYxRjEiIGhlaWdodD0iMzIuODQzOCIgcng9IjEyLjUiIHJ5PSIxMi41IiBzdHlsZT0ic3Ryb2tlOiMxODE4MTg7c3Ryb2tlLXdpZHRoOjAuNTsiIHdpZHRoPSIxMjciIHg9IjE0NS4yNSIgeT0iMTg5LjY4NzUiLz48dGV4dCBmaWxsPSIjMDAwMDAwIiBmb250LWZhbWlseT0ic2Fucy1zZXJpZiIgZm9udC1zaXplPSIxMiIgbGVuZ3RoQWRqdXN0PSJzcGFjaW5nIiB0ZXh0TGVuZ3RoPSIxMDciIHg9IjE1NS4yNSIgeT0iMjExLjAzMTMiPiYjMTA1NTsmIzEwNzc7JiMxMDg4OyYjMTA3NzsmIzEwOTM7JiMxMDg2OyYjMTA3NjsgJiMxMDgyOyAmIzEwODY7JiMxMDg3OyYjMTA4MzsmIzEwNzI7JiMxMDkwOyYjMTA3Nzs8L3RleHQ+PHJlY3QgZmlsbD0iI0YxRjFGMSIgaGVpZ2h0PSIzMi44NDM4IiByeD0iMTIuNSIgcnk9IjEyLjUiIHN0eWxlPSJzdHJva2U6IzE4MTgxODtzdHJva2Utd2lkdGg6MC41OyIgd2lkdGg9IjEzNCIgeD0iMTQxLjc1IiB5PSIyNDIuNTMxMyIvPjx0ZXh0IGZpbGw9IiMwMDAwMDAiIGZvbnQtZmFtaWx5PSJzYW5zLXNlcmlmIiBmb250LXNpemU9IjEyIiBsZW5ndGhBZGp1c3Q9InNwYWNpbmciIHRleHRMZW5ndGg9IjExNCIgeD0iMTUxLjc1IiB5PSIyNjMuODc1Ij4mIzEwNTQ7JiMxMDczOyYjMTA4ODsmIzEwNzI7JiMxMDczOyYjMTA4NjsmIzEwOTA7JiMxMDgyOyYjMTA3MjsgJiMxMDg3OyYjMTA4MzsmIzEwNzI7JiMxMDkwOyYjMTA3NzsmIzEwNzg7JiMxMDcyOzwvdGV4dD48cG9seWdvbiBmaWxsPSIjRjFGMUYxIiBwb2ludHM9IjE2My43NSwyOTUuMzc1LDI1My43NSwyOTUuMzc1LDI2NS43NSwzMDcuMzc1LDI1My43NSwzMTkuMzc1LDE2My43NSwzMTkuMzc1LDE1MS43NSwzMDcuMzc1LDE2My43NSwyOTUuMzc1IiBzdHlsZT0ic3Ryb2tlOiMxODE4MTg7c3Ryb2tlLXdpZHRoOjAuNTsiLz48dGV4dCBmaWxsPSIjMDAwMDAwIiBmb250LWZhbWlseT0ic2Fucy1zZXJpZiIgZm9udC1zaXplPSIxMSIgbGVuZ3RoQWRqdXN0PSJzcGFjaW5nIiB0ZXh0TGVuZ3RoPSI5MCIgeD0iMTYzLjc1IiB5PSIzMTEuODg2NyI+JiMxMDU0OyYjMTA4NzsmIzEwODM7JiMxMDcyOyYjMTA5MDsmIzEwNzI7ICYjMTA5MTsmIzEwODk7JiMxMDg3OyYjMTA3NzsmIzEwOTY7JiMxMDg1OyYjMTA3Mjs/PC90ZXh0Pjx0ZXh0IGZpbGw9IiMwMDAwMDAiIGZvbnQtZmFtaWx5PSJzYW5zLXNlcmlmIiBmb250LXNpemU9IjExIiBsZW5ndGhBZGp1c3Q9InNwYWNpbmciIHRleHRMZW5ndGg9IjEyIiB4PSIxMzkuNzUiIHk9IjMwNiI+JiMxMDQ0OyYjMTA3Mjs8L3RleHQ+PHRleHQgZmlsbD0iIzAwMDAwMCIgZm9udC1mYW1pbHk9InNhbnMtc2VyaWYiIGZvbnQtc2l6ZT0iMTEiIGxlbmd0aEFkanVzdD0ic3BhY2luZyIgdGV4dExlbmd0aD0iMTgiIHg9IjI2NS43NSIgeT0iMzA2Ij4mIzEwNTM7JiMxMDc3OyYjMTA5MDs8L3RleHQ+PHJlY3QgZmlsbD0iI0YxRjFGMSIgaGVpZ2h0PSIzMi44NDM4IiByeD0iMTIuNSIgcnk9IjEyLjUiIHN0eWxlPSJzdHJva2U6IzE4MTgxODtzdHJva2Utd2lkdGg6MC41OyIgd2lkdGg9IjE1NiIgeD0iMjUiIHk9IjMyOS4zNzUiLz48dGV4dCBmaWxsPSIjMDAwMDAwIiBmb250LWZhbWlseT0ic2Fucy1zZXJpZiIgZm9udC1zaXplPSIxMiIgbGVuZ3RoQWRqdXN0PSJzcGFjaW5nIiB0ZXh0TGVuZ3RoPSIxMzYiIHg9IjM1IiB5PSIzNTAuNzE4OCI+JiMxMDU1OyYjMTA4NjsmIzEwNzY7JiMxMDkwOyYjMTA3NDsmIzEwNzc7JiMxMDg4OyYjMTA3ODsmIzEwNzY7JiMxMDc3OyYjMTA4NTsmIzEwODA7JiMxMDc3OyAmIzEwODY7JiMxMDg3OyYjMTA4MzsmIzEwNzI7JiMxMDkwOyYjMTA5OTs8L3RleHQ+PHJlY3QgZmlsbD0iI0YxRjFGMSIgaGVpZ2h0PSIzMi44NDM4IiByeD0iMTIuNSIgcnk9IjEyLjUiIHN0eWxlPSJzdHJva2U6IzE4MTgxODtzdHJva2Utd2lkdGg6MC41OyIgd2lkdGg9IjE2MiIgeD0iMjIiIHk9IjM4Mi4yMTg4Ii8+PHRleHQgZmlsbD0iIzAwMDAwMCIgZm9udC1mYW1pbHk9InNhbnMtc2VyaWYiIGZvbnQtc2l6ZT0iMTIiIGxlbmd0aEFkanVzdD0ic3BhY2luZyIgdGV4dExlbmd0aD0iMTQyIiB4PSIzMiIgeT0iNDAzLjU2MjUiPiYjMTA1NTsmIzEwODM7JiMxMDcyOyYjMTA4NTsmIzEwODA7JiMxMDg4OyYjMTA4NjsmIzEwNzQ7JiMxMDcyOyYjMTA4NTsmIzEwODA7JiMxMDc3OyAmIzEwNzY7JiMxMDg2OyYjMTA4OTsmIzEwOTA7JiMxMDcyOyYjMTA3NDsmIzEwODI7JiMxMDgwOzwvdGV4dD48cmVjdCBmaWxsPSIjRjFGMUYxIiBoZWlnaHQ9IjMyLjg0MzgiIHJ4PSIxMi41IiByeT0iMTIuNSIgc3R5bGU9InN0cm9rZTojMTgxODE4O3N0cm9rZS13aWR0aDowLjU7IiB3aWR0aD0iMTgxIiB4PSIxMi41IiB5PSI0MzUuMDYyNSIvPjx0ZXh0IGZpbGw9IiMwMDAwMDAiIGZvbnQtZmFtaWx5PSJzYW5zLXNlcmlmIiBmb250LXNpemU9IjEyIiBsZW5ndGhBZGp1c3Q9InNwYWNpbmciIHRleHRMZW5ndGg9IjE2MSIgeD0iMjIuNSIgeT0iNDU2LjQwNjMiPiYjMTA1NTsmIzEwODY7JiMxMDc2OyYjMTA5MDsmIzEwNzQ7JiMxMDc3OyYjMTA4ODsmIzEwNzg7JiMxMDc2OyYjMTA3NzsmIzEwODU7JiMxMDgwOyYjMTA3NzsgJiMxMDg5OyAmIzEwODI7JiMxMDgzOyYjMTA4MDsmIzEwNzc7JiMxMDg1OyYjMTA5MDsmIzEwODY7JiMxMDg0OzwvdGV4dD48cmVjdCBmaWxsPSIjRjFGMUYxIiBoZWlnaHQ9IjMyLjg0MzgiIHJ4PSIxMi41IiByeT0iMTIuNSIgc3R5bGU9InN0cm9rZTojMTgxODE4O3N0cm9rZS13aWR0aDowLjU7IiB3aWR0aD0iMTE5IiB4PSI0My41IiB5PSI0ODcuOTA2MyIvPjx0ZXh0IGZpbGw9IiMwMDAwMDAiIGZvbnQtZmFtaWx5PSJzYW5zLXNlcmlmIiBmb250LXNpemU9IjEyIiBsZW5ndGhBZGp1c3Q9InNwYWNpbmciIHRleHRMZW5ndGg9Ijk5IiB4PSI1My41IiB5PSI1MDkuMjUiPiYjMTA1NDsmIzEwOTA7JiMxMDg3OyYjMTA4ODsmIzEwNzI7JiMxMDc0OyYjMTA4MjsmIzEwNzI7ICYjMTA3OTsmIzEwNzI7JiMxMDgyOyYjMTA3MjsmIzEwNzk7JiMxMDcyOzwvdGV4dD48cmVjdCBmaWxsPSIjRjFGMUYxIiBoZWlnaHQ9IjMyLjg0MzgiIHJ4PSIxMi41IiByeT0iMTIuNSIgc3R5bGU9InN0cm9rZTojMTgxODE4O3N0cm9rZS13aWR0aDowLjU7IiB3aWR0aD0iMTgxIiB4PSIxMi41IiB5PSI1NDAuNzUiLz48dGV4dCBmaWxsPSIjMDAwMDAwIiBmb250LWZhbWlseT0ic2Fucy1zZXJpZiIgZm9udC1zaXplPSIxMiIgbGVuZ3RoQWRqdXN0PSJzcGFjaW5nIiB0ZXh0TGVuZ3RoPSIxNjEiIHg9IjIyLjUiIHk9IjU2Mi4wOTM4Ij4mIzEwNDg7JiMxMDg1OyYjMTA5MjsmIzEwODY7JiMxMDg4OyYjMTA4NDsmIzEwODA7JiMxMDg4OyYjMTA4NjsmIzEwNzQ7JiMxMDcyOyYjMTA4NTsmIzEwODA7JiMxMDc3OyAmIzEwODY7ICYjMTA4OTsmIzEwOTA7JiMxMDcyOyYjMTA5MDsmIzEwOTE7JiMxMDg5OyYjMTA3Nzs8L3RleHQ+PHJlY3QgZmlsbD0iI0YxRjFGMSIgaGVpZ2h0PSIzMi44NDM4IiByeD0iMTIuNSIgcnk9IjEyLjUiIHN0eWxlPSJzdHJva2U6IzE4MTgxODtzdHJva2Utd2lkdGg6MC41OyIgd2lkdGg9IjE4NCIgeD0iMTEiIHk9IjU5My41OTM4Ii8+PHRleHQgZmlsbD0iIzAwMDAwMCIgZm9udC1mYW1pbHk9InNhbnMtc2VyaWYiIGZvbnQtc2l6ZT0iMTIiIGxlbmd0aEFkanVzdD0ic3BhY2luZyIgdGV4dExlbmd0aD0iMTY0IiB4PSIyMSIgeT0iNjE0LjkzNzUiPiYjMTA1NTsmIzEwODY7JiMxMDg5OyYjMTA4MzsmIzEwNzc7JiMxMDg3OyYjMTA4ODsmIzEwODY7JiMxMDc2OyYjMTA3MjsmIzEwNzg7JiMxMDg1OyYjMTA3MjsmIzExMDM7ICYjMTA4NzsmIzEwODY7JiMxMDc2OyYjMTA3NjsmIzEwNzc7JiMxMDg4OyYjMTA3ODsmIzEwODI7JiMxMDcyOzwvdGV4dD48cmVjdCBmaWxsPSIjRjFGMUYxIiBoZWlnaHQ9IjMyLjg0MzgiIHJ4PSIxMi41IiByeT0iMTIuNSIgc3R5bGU9InN0cm9rZTojMTgxODE4O3N0cm9rZS13aWR0aDowLjU7IiB3aWR0aD0iMTA2IiB4PSIyNjEuNSIgeT0iMzI5LjM3NSIvPjx0ZXh0IGZpbGw9IiMwMDAwMDAiIGZvbnQtZmFtaWx5PSJzYW5zLXNlcmlmIiBmb250LXNpemU9IjEyIiBsZW5ndGhBZGp1c3Q9InNwYWNpbmciIHRleHRMZW5ndGg9Ijg2IiB4PSIyNzEuNSIgeT0iMzUwLjcxODgiPiYjMTA1NDsmIzEwOTY7JiMxMDgwOyYjMTA3MzsmIzEwODI7JiMxMDcyOyAmIzEwODY7JiMxMDg3OyYjMTA4MzsmIzEwNzI7JiMxMDkwOyYjMTA5OTs8L3RleHQ+PHJlY3QgZmlsbD0iI0YxRjFGMSIgaGVpZ2h0PSIzMi44NDM4IiByeD0iMTIuNSIgcnk9IjEyLjUiIHN0eWxlPSJzdHJva2U6IzE4MTgxODtzdHJva2Utd2lkdGg6MC41OyIgd2lkdGg9IjE5OSIgeD0iMjE1IiB5PSIzODIuMjE4OCIvPjx0ZXh0IGZpbGw9IiMwMDAwMDAiIGZvbnQtZmFtaWx5PSJzYW5zLXNlcmlmIiBmb250LXNpemU9IjEyIiBsZW5ndGhBZGp1c3Q9InNwYWNpbmciIHRleHRMZW5ndGg9IjE3OSIgeD0iMjI1IiB5PSI0MDMuNTYyNSI+JiMxMDU1OyYjMTA4NjsmIzEwNzQ7JiMxMDkwOyYjMTA4NjsmIzEwODg7JiMxMDg1OyYjMTA3MjsmIzExMDM7ICYjMTA4NzsmIzEwODY7JiMxMDg3OyYjMTA5OTsmIzEwOTA7JiMxMDgyOyYjMTA3MjsgJiMxMDgwOyYjMTA4MzsmIzEwODA7ICYjMTA4NjsmIzEwOTA7JiMxMDgyOyYjMTA3MjsmIzEwNzk7PC90ZXh0Pjxwb2x5Z29uIGZpbGw9IiNGMUYxRjEiIHBvaW50cz0iMjA4Ljc1LDYzMi40Mzc1LDIyMC43NSw2NDQuNDM3NSwyMDguNzUsNjU2LjQzNzUsMTk2Ljc1LDY0NC40Mzc1LDIwOC43NSw2MzIuNDM3NSIgc3R5bGU9InN0cm9rZTojMTgxODE4O3N0cm9rZS13aWR0aDowLjU7Ii8+PHJlY3QgZmlsbD0iI0YxRjFGMSIgaGVpZ2h0PSIzMi44NDM4IiByeD0iMTIuNSIgcnk9IjEyLjUiIHN0eWxlPSJzdHJva2U6IzE4MTgxODtzdHJva2Utd2lkdGg6MC41OyIgd2lkdGg9IjE0OCIgeD0iNDQ0IiB5PSIxMzYuODQzOCIvPjx0ZXh0IGZpbGw9IiMwMDAwMDAiIGZvbnQtZmFtaWx5PSJzYW5zLXNlcmlmIiBmb250LXNpemU9IjEyIiBsZW5ndGhBZGp1c3Q9InNwYWNpbmciIHRleHRMZW5ndGg9IjEyOCIgeD0iNDU0IiB5PSIxNTguMTg3NSI+JiMxMDU5OyYjMTA3NDsmIzEwNzc7JiMxMDc2OyYjMTA4NjsmIzEwODQ7JiMxMDgzOyYjMTA3NzsmIzEwODU7JiMxMDgwOyYjMTA3NzsgJiMxMDgyOyYjMTA4MzsmIzEwODA7JiMxMDc3OyYjMTA4NTsmIzEwOTA7JiMxMDcyOzwvdGV4dD48cmVjdCBmaWxsPSIjRjFGMUYxIiBoZWlnaHQ9IjMyLjg0MzgiIHJ4PSIxMi41IiByeT0iMTIuNSIgc3R5bGU9InN0cm9rZTojMTgxODE4O3N0cm9rZS13aWR0aDowLjU7IiB3aWR0aD0iMTMzIiB4PSI0NTEuNSIgeT0iMTg5LjY4NzUiLz48dGV4dCBmaWxsPSIjMDAwMDAwIiBmb250LWZhbWlseT0ic2Fucy1zZXJpZiIgZm9udC1zaXplPSIxMiIgbGVuZ3RoQWRqdXN0PSJzcGFjaW5nIiB0ZXh0TGVuZ3RoPSIxMTMiIHg9IjQ2MS41IiB5PSIyMTEuMDMxMyI+JiMxMDQ3OyYjMTA3MjsmIzEwNzQ7JiMxMDc3OyYjMTA4ODsmIzEwOTY7JiMxMDc3OyYjMTA4NTsmIzEwODA7JiMxMDc3OyAmIzEwNzk7JiMxMDcyOyYjMTA4MjsmIzEwNzI7JiMxMDc5OyYjMTA3Mjs8L3RleHQ+PHBvbHlnb24gZmlsbD0iI0YxRjFGMSIgcG9pbnRzPSIzNjMuMzc1LDY2Mi40Mzc1LDM3NS4zNzUsNjc0LjQzNzUsMzYzLjM3NSw2ODYuNDM3NSwzNTEuMzc1LDY3NC40Mzc1LDM2My4zNzUsNjYyLjQzNzUiIHN0eWxlPSJzdHJva2U6IzE4MTgxODtzdHJva2Utd2lkdGg6MC41OyIvPjxlbGxpcHNlIGN4PSIzNjMuMzc1IiBjeT0iNzE3LjQzNzUiIGZpbGw9Im5vbmUiIHJ4PSIxMSIgcnk9IjExIiBzdHlsZT0ic3Ryb2tlOiMyMjIyMjI7c3Ryb2tlLXdpZHRoOjEuMDsiLz48ZWxsaXBzZSBjeD0iMzYzLjM3NSIgY3k9IjcxNy40Mzc1IiBmaWxsPSIjMjIyMjIyIiByeD0iNiIgcnk9IjYiIHN0eWxlPSJzdHJva2U6IzIyMjIyMjtzdHJva2Utd2lkdGg6MS4wOyIvPjxsaW5lIHN0eWxlPSJzdHJva2U6IzE4MTgxODtzdHJva2Utd2lkdGg6MS4wOyIgeDE9IjM2My4zNzUiIHgyPSIzNjMuMzc1IiB5MT0iMzAiIHkyPSI1MCIvPjxwb2x5Z29uIGZpbGw9IiMxODE4MTgiIHBvaW50cz0iMzU5LjM3NSw0MCwzNjMuMzc1LDUwLDM2Ny4zNzUsNDAsMzYzLjM3NSw0NCIgc3R5bGU9InN0cm9rZTojMTgxODE4O3N0cm9rZS13aWR0aDoxLjA7Ii8+PGxpbmUgc3R5bGU9InN0cm9rZTojMTgxODE4O3N0cm9rZS13aWR0aDoxLjA7IiB4MT0iMjA4Ljc1IiB4Mj0iMjA4Ljc1IiB5MT0iMTY5LjY4NzUiIHkyPSIxODkuNjg3NSIvPjxwb2x5Z29uIGZpbGw9IiMxODE4MTgiIHBvaW50cz0iMjA0Ljc1LDE3OS42ODc1LDIwOC43NSwxODkuNjg3NSwyMTIuNzUsMTc5LjY4NzUsMjA4Ljc1LDE4My42ODc1IiBzdHlsZT0ic3Ryb2tlOiMxODE4MTg7c3Ryb2tlLXdpZHRoOjEuMDsiLz48bGluZSBzdHlsZT0ic3Ryb2tlOiMxODE4MTg7c3Ryb2tlLXdpZHRoOjEuMDsiIHgxPSIyMDguNzUiIHgyPSIyMDguNzUiIHkxPSIyMjIuNTMxMyIgeTI9IjI0Mi41MzEzIi8+PHBvbHlnb24gZmlsbD0iIzE4MTgxOCIgcG9pbnRzPSIyMDQuNzUsMjMyLjUzMTMsMjA4Ljc1LDI0Mi41MzEzLDIxMi43NSwyMzIuNTMxMywyMDguNzUsMjM2LjUzMTMiIHN0eWxlPSJzdHJva2U6IzE4MTgxODtzdHJva2Utd2lkdGg6MS4wOyIvPjxsaW5lIHN0eWxlPSJzdHJva2U6IzE4MTgxODtzdHJva2Utd2lkdGg6MS4wOyIgeDE9IjEwMyIgeDI9IjEwMyIgeTE9IjM2Mi4yMTg4IiB5Mj0iMzgyLjIxODgiLz48cG9seWdvbiBmaWxsPSIjMTgxODE4IiBwb2ludHM9Ijk5LDM3Mi4yMTg4LDEwMywzODIuMjE4OCwxMDcsMzcyLjIxODgsMTAzLDM3Ni4yMTg4IiBzdHlsZT0ic3Ryb2tlOiMxODE4MTg7c3Ryb2tlLXdpZHRoOjEuMDsiLz48bGluZSBzdHlsZT0ic3Ryb2tlOiMxODE4MTg7c3Ryb2tlLXdpZHRoOjEuMDsiIHgxPSIxMDMiIHgyPSIxMDMiIHkxPSI0MTUuMDYyNSIgeTI9IjQzNS4wNjI1Ii8+PHBvbHlnb24gZmlsbD0iIzE4MTgxOCIgcG9pbnRzPSI5OSw0MjUuMDYyNSwxMDMsNDM1LjA2MjUsMTA3LDQyNS4wNjI1LDEwMyw0MjkuMDYyNSIgc3R5bGU9InN0cm9rZTojMTgxODE4O3N0cm9rZS13aWR0aDoxLjA7Ii8+PGxpbmUgc3R5bGU9InN0cm9rZTojMTgxODE4O3N0cm9rZS13aWR0aDoxLjA7IiB4MT0iMTAzIiB4Mj0iMTAzIiB5MT0iNDY3LjkwNjMiIHkyPSI0ODcuOTA2MyIvPjxwb2x5Z29uIGZpbGw9IiMxODE4MTgiIHBvaW50cz0iOTksNDc3LjkwNjMsMTAzLDQ4Ny45MDYzLDEwNyw0NzcuOTA2MywxMDMsNDgxLjkwNjMiIHN0eWxlPSJzdHJva2U6IzE4MTgxODtzdHJva2Utd2lkdGg6MS4wOyIvPjxsaW5lIHN0eWxlPSJzdHJva2U6IzE4MTgxODtzdHJva2Utd2lkdGg6MS4wOyIgeDE9IjEwMyIgeDI9IjEwMyIgeTE9IjUyMC43NSIgeTI9IjU0MC43NSIvPjxwb2x5Z29uIGZpbGw9IiMxODE4MTgiIHBvaW50cz0iOTksNTMwLjc1LDEwMyw1NDAuNzUsMTA3LDUzMC43NSwxMDMsNTM0Ljc1IiBzdHlsZT0ic3Ryb2tlOiMxODE4MTg7c3Ryb2tlLXdpZHRoOjEuMDsiLz48bGluZSBzdHlsZT0ic3Ryb2tlOiMxODE4MTg7c3Ryb2tlLXdpZHRoOjEuMDsiIHgxPSIxMDMiIHgyPSIxMDMiIHkxPSI1NzMuNTkzOCIgeTI9IjU5My41OTM4Ii8+PHBvbHlnb24gZmlsbD0iIzE4MTgxOCIgcG9pbnRzPSI5OSw1ODMuNTkzOCwxMDMsNTkzLjU5MzgsMTA3LDU4My41OTM4LDEwMyw1ODcuNTkzOCIgc3R5bGU9InN0cm9rZTojMTgxODE4O3N0cm9rZS13aWR0aDoxLjA7Ii8+PGxpbmUgc3R5bGU9InN0cm9rZTojMTgxODE4O3N0cm9rZS13aWR0aDoxLjA7IiB4MT0iMzE0LjUiIHgyPSIzMTQuNSIgeTE9IjM2Mi4yMTg4IiB5Mj0iMzgyLjIxODgiLz48cG9seWdvbiBmaWxsPSIjMTgxODE4IiBwb2ludHM9IjMxMC41LDM3Mi4yMTg4LDMxNC41LDM4Mi4yMTg4LDMxOC41LDM3Mi4yMTg4LDMxNC41LDM3Ni4yMTg4IiBzdHlsZT0ic3Ryb2tlOiMxODE4MTg7c3Ryb2tlLXdpZHRoOjEuMDsiLz48bGluZSBzdHlsZT0ic3Ryb2tlOiMxODE4MTg7c3Ryb2tlLXdpZHRoOjEuMDsiIHgxPSIxNTEuNzUiIHgyPSIxMDMiIHkxPSIzMDcuMzc1IiB5Mj0iMzA3LjM3NSIvPjxsaW5lIHN0eWxlPSJzdHJva2U6IzE4MTgxODtzdHJva2Utd2lkdGg6MS4wOyIgeDE9IjEwMyIgeDI9IjEwMyIgeTE9IjMwNy4zNzUiIHkyPSIzMjkuMzc1Ii8+PHBvbHlnb24gZmlsbD0iIzE4MTgxOCIgcG9pbnRzPSI5OSwzMTkuMzc1LDEwMywzMjkuMzc1LDEwNywzMTkuMzc1LDEwMywzMjMuMzc1IiBzdHlsZT0ic3Ryb2tlOiMxODE4MTg7c3Ryb2tlLXdpZHRoOjEuMDsiLz48bGluZSBzdHlsZT0ic3Ryb2tlOiMxODE4MTg7c3Ryb2tlLXdpZHRoOjEuMDsiIHgxPSIyNjUuNzUiIHgyPSIzMTQuNSIgeTE9IjMwNy4zNzUiIHkyPSIzMDcuMzc1Ii8+PGxpbmUgc3R5bGU9InN0cm9rZTojMTgxODE4O3N0cm9rZS13aWR0aDoxLjA7IiB4MT0iMzE0LjUiIHgyPSIzMTQuNSIgeTE9IjMwNy4zNzUiIHkyPSIzMjkuMzc1Ii8+PHBvbHlnb24gZmlsbD0iIzE4MTgxOCIgcG9pbnRzPSIzMTAuNSwzMTkuMzc1LDMxNC41LDMyOS4zNzUsMzE4LjUsMzE5LjM3NSwzMTQuNSwzMjMuMzc1IiBzdHlsZT0ic3Ryb2tlOiMxODE4MTg7c3Ryb2tlLXdpZHRoOjEuMDsiLz48bGluZSBzdHlsZT0ic3Ryb2tlOiMxODE4MTg7c3Ryb2tlLXdpZHRoOjEuMDsiIHgxPSIxMDMiIHgyPSIxMDMiIHkxPSI2MjYuNDM3NSIgeTI9IjY0NC40Mzc1Ii8+PGxpbmUgc3R5bGU9InN0cm9rZTojMTgxODE4O3N0cm9rZS13aWR0aDoxLjA7IiB4MT0iMTAzIiB4Mj0iMTk2Ljc1IiB5MT0iNjQ0LjQzNzUiIHkyPSI2NDQuNDM3NSIvPjxwb2x5Z29uIGZpbGw9IiMxODE4MTgiIHBvaW50cz0iMTg2Ljc1LDY0MC40Mzc1LDE5Ni43NSw2NDQuNDM3NSwxODYuNzUsNjQ4LjQzNzUsMTkwLjc1LDY0NC40Mzc1IiBzdHlsZT0ic3Ryb2tlOiMxODE4MTg7c3Ryb2tlLXdpZHRoOjEuMDsiLz48bGluZSBzdHlsZT0ic3Ryb2tlOiMxODE4MTg7c3Ryb2tlLXdpZHRoOjEuMDsiIHgxPSIzMTQuNSIgeDI9IjMxNC41IiB5MT0iNDE1LjA2MjUiIHkyPSI2NDQuNDM3NSIvPjxsaW5lIHN0eWxlPSJzdHJva2U6IzE4MTgxODtzdHJva2Utd2lkdGg6MS4wOyIgeDE9IjMxNC41IiB4Mj0iMjIwLjc1IiB5MT0iNjQ0LjQzNzUiIHkyPSI2NDQuNDM3NSIvPjxwb2x5Z29uIGZpbGw9IiMxODE4MTgiIHBvaW50cz0iMjMwLjc1LDY0MC40Mzc1LDIyMC43NSw2NDQuNDM3NSwyMzAuNzUsNjQ4LjQzNzUsMjI2Ljc1LDY0NC40Mzc1IiBzdHlsZT0ic3Ryb2tlOiMxODE4MTg7c3Ryb2tlLXdpZHRoOjEuMDsiLz48bGluZSBzdHlsZT0ic3Ryb2tlOiMxODE4MTg7c3Ryb2tlLXdpZHRoOjEuMDsiIHgxPSIyMDguNzUiIHgyPSIyMDguNzUiIHkxPSIyNzUuMzc1IiB5Mj0iMjk1LjM3NSIvPjxwb2x5Z29uIGZpbGw9IiMxODE4MTgiIHBvaW50cz0iMjA0Ljc1LDI4NS4zNzUsMjA4Ljc1LDI5NS4zNzUsMjEyLjc1LDI4NS4zNzUsMjA4Ljc1LDI4OS4zNzUiIHN0eWxlPSJzdHJva2U6IzE4MTgxODtzdHJva2Utd2lkdGg6MS4wOyIvPjxsaW5lIHN0eWxlPSJzdHJva2U6IzE4MTgxODtzdHJva2Utd2lkdGg6MS4wOyIgeDE9IjUxOCIgeDI9IjUxOCIgeTE9IjE2OS42ODc1IiB5Mj0iMTg5LjY4NzUiLz48cG9seWdvbiBmaWxsPSIjMTgxODE4IiBwb2ludHM9IjUxNCwxNzkuNjg3NSw1MTgsMTg5LjY4NzUsNTIyLDE3OS42ODc1LDUxOCwxODMuNjg3NSIgc3R5bGU9InN0cm9rZTojMTgxODE4O3N0cm9rZS13aWR0aDoxLjA7Ii8+PGxpbmUgc3R5bGU9InN0cm9rZTojMTgxODE4O3N0cm9rZS13aWR0aDoxLjA7IiB4MT0iMzAzLjM3NSIgeDI9IjIwOC43NSIgeTE9IjExNC44NDM4IiB5Mj0iMTE0Ljg0MzgiLz48bGluZSBzdHlsZT0ic3Ryb2tlOiMxODE4MTg7c3Ryb2tlLXdpZHRoOjEuMDsiIHgxPSIyMDguNzUiIHgyPSIyMDguNzUiIHkxPSIxMTQuODQzOCIgeTI9IjEzNi44NDM4Ii8+PHBvbHlnb24gZmlsbD0iIzE4MTgxOCIgcG9pbnRzPSIyMDQuNzUsMTI2Ljg0MzgsMjA4Ljc1LDEzNi44NDM4LDIxMi43NSwxMjYuODQzOCwyMDguNzUsMTMwLjg0MzgiIHN0eWxlPSJzdHJva2U6IzE4MTgxODtzdHJva2Utd2lkdGg6MS4wOyIvPjxsaW5lIHN0eWxlPSJzdHJva2U6IzE4MTgxODtzdHJva2Utd2lkdGg6MS4wOyIgeDE9IjQyMy4zNzUiIHgyPSI1MTgiIHkxPSIxMTQuODQzOCIgeTI9IjExNC44NDM4Ii8+PGxpbmUgc3R5bGU9InN0cm9rZTojMTgxODE4O3N0cm9rZS13aWR0aDoxLjA7IiB4MT0iNTE4IiB4Mj0iNTE4IiB5MT0iMTE0Ljg0MzgiIHkyPSIxMzYuODQzOCIvPjxwb2x5Z29uIGZpbGw9IiMxODE4MTgiIHBvaW50cz0iNTE0LDEyNi44NDM4LDUxOCwxMzYuODQzOCw1MjIsMTI2Ljg0MzgsNTE4LDEzMC44NDM4IiBzdHlsZT0ic3Ryb2tlOiMxODE4MTg7c3Ryb2tlLXdpZHRoOjEuMDsiLz48bGluZSBzdHlsZT0ic3Ryb2tlOiMxODE4MTg7c3Ryb2tlLXdpZHRoOjEuMDsiIHgxPSIyMDguNzUiIHgyPSIyMDguNzUiIHkxPSI2NTYuNDM3NSIgeTI9IjY3NC40Mzc1Ii8+PGxpbmUgc3R5bGU9InN0cm9rZTojMTgxODE4O3N0cm9rZS13aWR0aDoxLjA7IiB4MT0iMjA4Ljc1IiB4Mj0iMzUxLjM3NSIgeTE9IjY3NC40Mzc1IiB5Mj0iNjc0LjQzNzUiLz48cG9seWdvbiBmaWxsPSIjMTgxODE4IiBwb2ludHM9IjM0MS4zNzUsNjcwLjQzNzUsMzUxLjM3NSw2NzQuNDM3NSwzNDEuMzc1LDY3OC40Mzc1LDM0NS4zNzUsNjc0LjQzNzUiIHN0eWxlPSJzdHJva2U6IzE4MTgxODtzdHJva2Utd2lkdGg6MS4wOyIvPjxsaW5lIHN0eWxlPSJzdHJva2U6IzE4MTgxODtzdHJva2Utd2lkdGg6MS4wOyIgeDE9IjUxOCIgeDI9IjUxOCIgeTE9IjIyMi41MzEzIiB5Mj0iNjc0LjQzNzUiLz48bGluZSBzdHlsZT0ic3Ryb2tlOiMxODE4MTg7c3Ryb2tlLXdpZHRoOjEuMDsiIHgxPSI1MTgiIHgyPSIzNzUuMzc1IiB5MT0iNjc0LjQzNzUiIHkyPSI2NzQuNDM3NSIvPjxwb2x5Z29uIGZpbGw9IiMxODE4MTgiIHBvaW50cz0iMzg1LjM3NSw2NzAuNDM3NSwzNzUuMzc1LDY3NC40Mzc1LDM4NS4zNzUsNjc4LjQzNzUsMzgxLjM3NSw2NzQuNDM3NSIgc3R5bGU9InN0cm9rZTojMTgxODE4O3N0cm9rZS13aWR0aDoxLjA7Ii8+PGxpbmUgc3R5bGU9InN0cm9rZTojMTgxODE4O3N0cm9rZS13aWR0aDoxLjA7IiB4MT0iMzYzLjM3NSIgeDI9IjM2My4zNzUiIHkxPSI4Mi44NDM4IiB5Mj0iMTAyLjg0MzgiLz48cG9seWdvbiBmaWxsPSIjMTgxODE4IiBwb2ludHM9IjM1OS4zNzUsOTIuODQzOCwzNjMuMzc1LDEwMi44NDM4LDM2Ny4zNzUsOTIuODQzOCwzNjMuMzc1LDk2Ljg0MzgiIHN0eWxlPSJzdHJva2U6IzE4MTgxODtzdHJva2Utd2lkdGg6MS4wOyIvPjxsaW5lIHN0eWxlPSJzdHJva2U6IzE4MTgxODtzdHJva2Utd2lkdGg6MS4wOyIgeDE9IjM2My4zNzUiIHgyPSIzNjMuMzc1IiB5MT0iNjg2LjQzNzUiIHkyPSI3MDYuNDM3NSIvPjxwb2x5Z29uIGZpbGw9IiMxODE4MTgiIHBvaW50cz0iMzU5LjM3NSw2OTYuNDM3NSwzNjMuMzc1LDcwNi40Mzc1LDM2Ny4zNzUsNjk2LjQzNzUsMzYzLjM3NSw3MDAuNDM3NSIgc3R5bGU9InN0cm9rZTojMTgxODE4O3N0cm9rZS13aWR0aDoxLjA7Ii8+PCEtLVNSQz1bWkw5RElpRDA2RHRkNUJDcUxzV01kYUttbk85S2lKYjBxWWVNa2QwWnI4cUx6MDk5b1JHWFFQQ2hsQmNIeHZpcVFNZWdNV1k1Unp4VnpzT2NtVEwzdTBwbVdIQTVjUGJkUUVtTGplWUh5emp3cGNZZUJsMzl1cExZNG9oaTRJaUp5UkpXVUdmendRaFduWHlKejhoT1RISF9qTG5nZmtIZTRzOFpFMThwdzh1cU9nejUycWdSOXM0ZnY4aF9iVVhKR0pVVzVIQTJPWUdlRVFRMkVjQmVTMTJwUUxWajJRRkU2QlFZLTVvSWRtZHhQLTBzWXJidTltbWZXMVpZUkphREZjTjBJQm12cDk1dl90OG5hUkFMUFo4WGVpSWtJcm5uTERkcnJfTmdsSFBodDFsOVpfR0ZpVWk3QXJNVFl2ajhBVmY3Q2V1QWtiVU1iZkFzYVNSQ1lfR2lXX0dHRWN5aV9Uazlwb1JWRVAtdzlzN2RENHBnZUItc25zWW85b0t4QmZMUEQ5VVJJSGtna01udllUUHBWM3FRRWR0ZDBSd2FMSWNWZ25WN3Mta01zWnd1ZklzSXdwM2YtT1RQLXFvMmtfamxdLS0+PC9nPjwvc3ZnPg==;" vertex="1" parent="1">
            <mxGeometry x="-30" y="-50" width="603" height="739" as="geometry" />
          </mxCell>
        </UserObject>
        <UserObject label="" plantUmlData="{&#xa;  &quot;data&quot;: &quot;@startuml\n|Управление заказами|\nstart\n:Получен заказ;\n:Ввод данных заказа;\nif (Товар на складе?) then (Да)\n    :Подтверждение заказа;\n    |Обработка платежей|\n    :Переход к оплате;\n    :Обработка платежа;\n    if (Оплата успешна?) then (Да)\n        :Подтверждение оплаты;\n        |Логистика и доставка|\n        :Планирование доставки;\n        :Подтверждение времени с клиентом;\n        :Отправка заказа;\n        :Информирование о статусе;\n        |Поддержка клиентов|\n        :Предоставление послепродажной поддержки;\n    else (Нет)\n        :Ошибка оплаты;\n        :Повторная попытка;\n    endif\nelse (Нет)\n    :Уведомление клиента;\n    :Завершение заказа;\nendif\nstop\n@enduml\n&quot;,&#xa;  &quot;format&quot;: &quot;svg&quot;&#xa;}" id="rWyMwrhODxbir77O0bZQ-2">
          <mxCell style="shape=image;noLabel=1;verticalAlign=top;aspect=fixed;imageAspect=0;image=data:image/svg+xml,PD94bWwgdmVyc2lvbj0iMS4wIiBlbmNvZGluZz0idXMtYXNjaWkiIHN0YW5kYWxvbmU9Im5vIj8+PHN2ZyB4bWxucz0iaHR0cDovL3d3dy53My5vcmcvMjAwMC9zdmciIHhtbG5zOnhsaW5rPSJodHRwOi8vd3d3LnczLm9yZy8xOTk5L3hsaW5rIiBjb250ZW50U3R5bGVUeXBlPSJ0ZXh0L2NzcyIgaGVpZ2h0PSI4NDZweCIgcHJlc2VydmVBc3BlY3RSYXRpbz0ibm9uZSIgc3R5bGU9IndpZHRoOjE0NjlweDtoZWlnaHQ6ODQ2cHg7YmFja2dyb3VuZDojRkZGRkZGOyIgdmVyc2lvbj0iMS4xIiB2aWV3Qm94PSIwIDAgMTQ2OSA4NDYiIHdpZHRoPSIxNDY5cHgiIHpvb21BbmRQYW49Im1hZ25pZnkiPjxkZWZzLz48Zz48cmVjdCBmaWxsPSJub25lIiBoZWlnaHQ9IjE5LjI2NTYiIHN0eWxlPSJzdHJva2U6bm9uZTtzdHJva2Utd2lkdGg6MS4wOyIgd2lkdGg9IjE0MzYuMjUiIHg9IjE1IiB5PSIxMSIvPjxlbGxpcHNlIGN4PSIyNDEuNzUiIGN5PSI0NS4yNjU2IiBmaWxsPSIjMjIyMjIyIiByeD0iMTAiIHJ5PSIxMCIgc3R5bGU9InN0cm9rZTojMjIyMjIyO3N0cm9rZS13aWR0aDoxLjA7Ii8+PHJlY3QgZmlsbD0iI0YxRjFGMSIgaGVpZ2h0PSIzMi44NDM4IiByeD0iMTIuNSIgcnk9IjEyLjUiIHN0eWxlPSJzdHJva2U6IzE4MTgxODtzdHJva2Utd2lkdGg6MC41OyIgd2lkdGg9IjEwNiIgeD0iMTg4Ljc1IiB5PSI3NS4yNjU2Ii8+PHRleHQgZmlsbD0iIzAwMDAwMCIgZm9udC1mYW1pbHk9InNhbnMtc2VyaWYiIGZvbnQtc2l6ZT0iMTIiIGxlbmd0aEFkanVzdD0ic3BhY2luZyIgdGV4dExlbmd0aD0iODYiIHg9IjE5OC43NSIgeT0iOTYuNjA5NCI+JiMxMDU1OyYjMTA4NjsmIzEwODM7JiMxMDkxOyYjMTA5NTsmIzEwNzc7JiMxMDg1OyAmIzEwNzk7JiMxMDcyOyYjMTA4MjsmIzEwNzI7JiMxMDc5OzwvdGV4dD48cmVjdCBmaWxsPSIjRjFGMUYxIiBoZWlnaHQ9IjMyLjg0MzgiIHJ4PSIxMi41IiByeT0iMTIuNSIgc3R5bGU9InN0cm9rZTojMTgxODE4O3N0cm9rZS13aWR0aDowLjU7IiB3aWR0aD0iMTQxIiB4PSIxNzEuMjUiIHk9IjEyOC4xMDk0Ii8+PHRleHQgZmlsbD0iIzAwMDAwMCIgZm9udC1mYW1pbHk9InNhbnMtc2VyaWYiIGZvbnQtc2l6ZT0iMTIiIGxlbmd0aEFkanVzdD0ic3BhY2luZyIgdGV4dExlbmd0aD0iMTIxIiB4PSIxODEuMjUiIHk9IjE0OS40NTMxIj4mIzEwNDI7JiMxMDc0OyYjMTA4NjsmIzEwNzY7ICYjMTA3NjsmIzEwNzI7JiMxMDg1OyYjMTA4NTsmIzEwOTk7JiMxMDkzOyAmIzEwNzk7JiMxMDcyOyYjMTA4MjsmIzEwNzI7JiMxMDc5OyYjMTA3Mjs8L3RleHQ+PHBvbHlnb24gZmlsbD0iI0YxRjFGMSIgcG9pbnRzPSIxOTMuNzUsMTgwLjk1MzEsMjg5Ljc1LDE4MC45NTMxLDMwMS43NSwxOTIuOTUzMSwyODkuNzUsMjA0Ljk1MzEsMTkzLjc1LDIwNC45NTMxLDE4MS43NSwxOTIuOTUzMSwxOTMuNzUsMTgwLjk1MzEiIHN0eWxlPSJzdHJva2U6IzE4MTgxODtzdHJva2Utd2lkdGg6MC41OyIvPjx0ZXh0IGZpbGw9IiMwMDAwMDAiIGZvbnQtZmFtaWx5PSJzYW5zLXNlcmlmIiBmb250LXNpemU9IjExIiBsZW5ndGhBZGp1c3Q9InNwYWNpbmciIHRleHRMZW5ndGg9Ijk2IiB4PSIxOTMuNzUiIHk9IjE5Ny40NjQ4Ij4mIzEwNTg7JiMxMDg2OyYjMTA3NDsmIzEwNzI7JiMxMDg4OyAmIzEwODU7JiMxMDcyOyAmIzEwODk7JiMxMDgyOyYjMTA4MzsmIzEwNzI7JiMxMDc2OyYjMTA3Nzs/PC90ZXh0Pjx0ZXh0IGZpbGw9IiMwMDAwMDAiIGZvbnQtZmFtaWx5PSJzYW5zLXNlcmlmIiBmb250LXNpemU9IjExIiBsZW5ndGhBZGp1c3Q9InNwYWNpbmciIHRleHRMZW5ndGg9IjEyIiB4PSIxNjkuNzUiIHk9IjE5MS41NzgxIj4mIzEwNDQ7JiMxMDcyOzwvdGV4dD48dGV4dCBmaWxsPSIjMDAwMDAwIiBmb250LWZhbWlseT0ic2Fucy1zZXJpZiIgZm9udC1zaXplPSIxMSIgbGVuZ3RoQWRqdXN0PSJzcGFjaW5nIiB0ZXh0TGVuZ3RoPSIxOCIgeD0iMzAxLjc1IiB5PSIxOTEuNTc4MSI+JiMxMDUzOyYjMTA3NzsmIzEwOTA7PC90ZXh0PjxyZWN0IGZpbGw9IiNGMUYxRjEiIGhlaWdodD0iMzIuODQzOCIgcng9IjEyLjUiIHJ5PSIxMi41IiBzdHlsZT0ic3Ryb2tlOiMxODE4MTg7c3Ryb2tlLXdpZHRoOjAuNTsiIHdpZHRoPSIxNTUiIHg9IjIxIiB5PSIyMjQuOTUzMSIvPjx0ZXh0IGZpbGw9IiMwMDAwMDAiIGZvbnQtZmFtaWx5PSJzYW5zLXNlcmlmIiBmb250LXNpemU9IjEyIiBsZW5ndGhBZGp1c3Q9InNwYWNpbmciIHRleHRMZW5ndGg9IjEzNSIgeD0iMzEiIHk9IjI0Ni4yOTY5Ij4mIzEwNTU7JiMxMDg2OyYjMTA3NjsmIzEwOTA7JiMxMDc0OyYjMTA3NzsmIzEwODg7JiMxMDc4OyYjMTA3NjsmIzEwNzc7JiMxMDg1OyYjMTA4MDsmIzEwNzc7ICYjMTA3OTsmIzEwNzI7JiMxMDgyOyYjMTA3MjsmIzEwNzk7JiMxMDcyOzwvdGV4dD48cG9seWdvbiBmaWxsPSIjRjFGMUYxIiBwb2ludHM9IjI0MS43NSw3NjguNTQ2OSwyNTMuNzUsNzgwLjU0NjksMjQxLjc1LDc5Mi41NDY5LDIyOS43NSw3ODAuNTQ2OSwyNDEuNzUsNzY4LjU0NjkiIHN0eWxlPSJzdHJva2U6IzE4MTgxODtzdHJva2Utd2lkdGg6MC41OyIvPjxsaW5lIHN0eWxlPSJzdHJva2U6IzAwMDAwMDtzdHJva2Utd2lkdGg6MS41OyIgeDE9IjE1IiB4Mj0iMTUiIHkxPSIxMSIgeTI9IjgzNC41NDY5Ii8+PHJlY3QgZmlsbD0iI0YxRjFGMSIgaGVpZ2h0PSIzMi44NDM4IiByeD0iMTIuNSIgcnk9IjEyLjUiIHN0eWxlPSJzdHJva2U6IzE4MTgxODtzdHJva2Utd2lkdGg6MC41OyIgd2lkdGg9IjEyNyIgeD0iNDYwLjI1IiB5PSIyNzcuNzk2OSIvPjx0ZXh0IGZpbGw9IiMwMDAwMDAiIGZvbnQtZmFtaWx5PSJzYW5zLXNlcmlmIiBmb250LXNpemU9IjEyIiBsZW5ndGhBZGp1c3Q9InNwYWNpbmciIHRleHRMZW5ndGg9IjEwNyIgeD0iNDcwLjI1IiB5PSIyOTkuMTQwNiI+JiMxMDU1OyYjMTA3NzsmIzEwODg7JiMxMDc3OyYjMTA5MzsmIzEwODY7JiMxMDc2OyAmIzEwODI7ICYjMTA4NjsmIzEwODc7JiMxMDgzOyYjMTA3MjsmIzEwOTA7JiMxMDc3OzwvdGV4dD48cmVjdCBmaWxsPSIjRjFGMUYxIiBoZWlnaHQ9IjMyLjg0MzgiIHJ4PSIxMi41IiByeT0iMTIuNSIgc3R5bGU9InN0cm9rZTojMTgxODE4O3N0cm9rZS13aWR0aDowLjU7IiB3aWR0aD0iMTM0IiB4PSI0NTYuNzUiIHk9IjMzMC42NDA2Ii8+PHRleHQgZmlsbD0iIzAwMDAwMCIgZm9udC1mYW1pbHk9InNhbnMtc2VyaWYiIGZvbnQtc2l6ZT0iMTIiIGxlbmd0aEFkanVzdD0ic3BhY2luZyIgdGV4dExlbmd0aD0iMTE0IiB4PSI0NjYuNzUiIHk9IjM1MS45ODQ0Ij4mIzEwNTQ7JiMxMDczOyYjMTA4ODsmIzEwNzI7JiMxMDczOyYjMTA4NjsmIzEwOTA7JiMxMDgyOyYjMTA3MjsgJiMxMDg3OyYjMTA4MzsmIzEwNzI7JiMxMDkwOyYjMTA3NzsmIzEwNzg7JiMxMDcyOzwvdGV4dD48cG9seWdvbiBmaWxsPSIjRjFGMUYxIiBwb2ludHM9IjQ3OC43NSwzODMuNDg0NCw1NjguNzUsMzgzLjQ4NDQsNTgwLjc1LDM5NS40ODQ0LDU2OC43NSw0MDcuNDg0NCw0NzguNzUsNDA3LjQ4NDQsNDY2Ljc1LDM5NS40ODQ0LDQ3OC43NSwzODMuNDg0NCIgc3R5bGU9InN0cm9rZTojMTgxODE4O3N0cm9rZS13aWR0aDowLjU7Ii8+PHRleHQgZmlsbD0iIzAwMDAwMCIgZm9udC1mYW1pbHk9InNhbnMtc2VyaWYiIGZvbnQtc2l6ZT0iMTEiIGxlbmd0aEFkanVzdD0ic3BhY2luZyIgdGV4dExlbmd0aD0iOTAiIHg9IjQ3OC43NSIgeT0iMzk5Ljk5NjEiPiYjMTA1NDsmIzEwODc7JiMxMDgzOyYjMTA3MjsmIzEwOTA7JiMxMDcyOyAmIzEwOTE7JiMxMDg5OyYjMTA4NzsmIzEwNzc7JiMxMDk2OyYjMTA4NTsmIzEwNzI7PzwvdGV4dD48dGV4dCBmaWxsPSIjMDAwMDAwIiBmb250LWZhbWlseT0ic2Fucy1zZXJpZiIgZm9udC1zaXplPSIxMSIgbGVuZ3RoQWRqdXN0PSJzcGFjaW5nIiB0ZXh0TGVuZ3RoPSIxMiIgeD0iNDU0Ljc1IiB5PSIzOTQuMTA5NCI+JiMxMDQ0OyYjMTA3Mjs8L3RleHQ+PHRleHQgZmlsbD0iIzAwMDAwMCIgZm9udC1mYW1pbHk9InNhbnMtc2VyaWYiIGZvbnQtc2l6ZT0iMTEiIGxlbmd0aEFkanVzdD0ic3BhY2luZyIgdGV4dExlbmd0aD0iMTgiIHg9IjU4MC43NSIgeT0iMzk0LjEwOTQiPiYjMTA1MzsmIzEwNzc7JiMxMDkwOzwvdGV4dD48cmVjdCBmaWxsPSIjRjFGMUYxIiBoZWlnaHQ9IjMyLjg0MzgiIHJ4PSIxMi41IiByeT0iMTIuNSIgc3R5bGU9InN0cm9rZTojMTgxODE4O3N0cm9rZS13aWR0aDowLjU7IiB3aWR0aD0iMTU2IiB4PSIzMzAuNzUiIHk9IjQyNy40ODQ0Ii8+PHRleHQgZmlsbD0iIzAwMDAwMCIgZm9udC1mYW1pbHk9InNhbnMtc2VyaWYiIGZvbnQtc2l6ZT0iMTIiIGxlbmd0aEFkanVzdD0ic3BhY2luZyIgdGV4dExlbmd0aD0iMTM2IiB4PSIzNDAuNzUiIHk9IjQ0OC44MjgxIj4mIzEwNTU7JiMxMDg2OyYjMTA3NjsmIzEwOTA7JiMxMDc0OyYjMTA3NzsmIzEwODg7JiMxMDc4OyYjMTA3NjsmIzEwNzc7JiMxMDg1OyYjMTA4MDsmIzEwNzc7ICYjMTA4NjsmIzEwODc7JiMxMDgzOyYjMTA3MjsmIzEwOTA7JiMxMDk5OzwvdGV4dD48cG9seWdvbiBmaWxsPSIjRjFGMUYxIiBwb2ludHM9IjUyMy43NSw3MzQuNTQ2OSw1MzUuNzUsNzQ2LjU0NjksNTIzLjc1LDc1OC41NDY5LDUxMS43NSw3NDYuNTQ2OSw1MjMuNzUsNzM0LjU0NjkiIHN0eWxlPSJzdHJva2U6IzE4MTgxODtzdHJva2Utd2lkdGg6MC41OyIvPjxsaW5lIHN0eWxlPSJzdHJva2U6IzAwMDAwMDtzdHJva2Utd2lkdGg6MS41OyIgeDE9IjMyNC43NSIgeDI9IjMyNC43NSIgeTE9IjExIiB5Mj0iODM0LjU0NjkiLz48cmVjdCBmaWxsPSIjRjFGMUYxIiBoZWlnaHQ9IjMyLjg0MzgiIHJ4PSIxMi41IiByeT0iMTIuNSIgc3R5bGU9InN0cm9rZTojMTgxODE4O3N0cm9rZS13aWR0aDowLjU7IiB3aWR0aD0iMTYyIiB4PSI2NDYuNzUiIHk9IjQ4MC4zMjgxIi8+PHRleHQgZmlsbD0iIzAwMDAwMCIgZm9udC1mYW1pbHk9InNhbnMtc2VyaWYiIGZvbnQtc2l6ZT0iMTIiIGxlbmd0aEFkanVzdD0ic3BhY2luZyIgdGV4dExlbmd0aD0iMTQyIiB4PSI2NTYuNzUiIHk9IjUwMS42NzE5Ij4mIzEwNTU7JiMxMDgzOyYjMTA3MjsmIzEwODU7JiMxMDgwOyYjMTA4ODsmIzEwODY7JiMxMDc0OyYjMTA3MjsmIzEwODU7JiMxMDgwOyYjMTA3NzsgJiMxMDc2OyYjMTA4NjsmIzEwODk7JiMxMDkwOyYjMTA3MjsmIzEwNzQ7JiMxMDgyOyYjMTA4MDs8L3RleHQ+PHJlY3QgZmlsbD0iI0YxRjFGMSIgaGVpZ2h0PSIzMi44NDM4IiByeD0iMTIuNSIgcnk9IjEyLjUiIHN0eWxlPSJzdHJva2U6IzE4MTgxODtzdHJva2Utd2lkdGg6MC41OyIgd2lkdGg9IjIzNiIgeD0iNjA5Ljc1IiB5PSI1MzMuMTcxOSIvPjx0ZXh0IGZpbGw9IiMwMDAwMDAiIGZvbnQtZmFtaWx5PSJzYW5zLXNlcmlmIiBmb250LXNpemU9IjEyIiBsZW5ndGhBZGp1c3Q9InNwYWNpbmciIHRleHRMZW5ndGg9IjIxNiIgeD0iNjE5Ljc1IiB5PSI1NTQuNTE1NiI+JiMxMDU1OyYjMTA4NjsmIzEwNzY7JiMxMDkwOyYjMTA3NDsmIzEwNzc7JiMxMDg4OyYjMTA3ODsmIzEwNzY7JiMxMDc3OyYjMTA4NTsmIzEwODA7JiMxMDc3OyAmIzEwNzQ7JiMxMDg4OyYjMTA3NzsmIzEwODQ7JiMxMDc3OyYjMTA4NTsmIzEwODA7ICYjMTA4OTsgJiMxMDgyOyYjMTA4MzsmIzEwODA7JiMxMDc3OyYjMTA4NTsmIzEwOTA7JiMxMDg2OyYjMTA4NDs8L3RleHQ+PHJlY3QgZmlsbD0iI0YxRjFGMSIgaGVpZ2h0PSIzMi44NDM4IiByeD0iMTIuNSIgcnk9IjEyLjUiIHN0eWxlPSJzdHJva2U6IzE4MTgxODtzdHJva2Utd2lkdGg6MC41OyIgd2lkdGg9IjExOSIgeD0iNjY4LjI1IiB5PSI1ODYuMDE1NiIvPjx0ZXh0IGZpbGw9IiMwMDAwMDAiIGZvbnQtZmFtaWx5PSJzYW5zLXNlcmlmIiBmb250LXNpemU9IjEyIiBsZW5ndGhBZGp1c3Q9InNwYWNpbmciIHRleHRMZW5ndGg9Ijk5IiB4PSI2NzguMjUiIHk9IjYwNy4zNTk0Ij4mIzEwNTQ7JiMxMDkwOyYjMTA4NzsmIzEwODg7JiMxMDcyOyYjMTA3NDsmIzEwODI7JiMxMDcyOyAmIzEwNzk7JiMxMDcyOyYjMTA4MjsmIzEwNzI7JiMxMDc5OyYjMTA3Mjs8L3RleHQ+PHJlY3QgZmlsbD0iI0YxRjFGMSIgaGVpZ2h0PSIzMi44NDM4IiByeD0iMTIuNSIgcnk9IjEyLjUiIHN0eWxlPSJzdHJva2U6IzE4MTgxODtzdHJva2Utd2lkdGg6MC41OyIgd2lkdGg9IjE4MSIgeD0iNjM3LjI1IiB5PSI2MzguODU5NCIvPjx0ZXh0IGZpbGw9IiMwMDAwMDAiIGZvbnQtZmFtaWx5PSJzYW5zLXNlcmlmIiBmb250LXNpemU9IjEyIiBsZW5ndGhBZGp1c3Q9InNwYWNpbmciIHRleHRMZW5ndGg9IjE2MSIgeD0iNjQ3LjI1IiB5PSI2NjAuMjAzMSI+JiMxMDQ4OyYjMTA4NTsmIzEwOTI7JiMxMDg2OyYjMTA4ODsmIzEwODQ7JiMxMDgwOyYjMTA4ODsmIzEwODY7JiMxMDc0OyYjMTA3MjsmIzEwODU7JiMxMDgwOyYjMTA3NzsgJiMxMDg2OyAmIzEwODk7JiMxMDkwOyYjMTA3MjsmIzEwOTA7JiMxMDkxOyYjMTA4OTsmIzEwNzc7PC90ZXh0PjxsaW5lIHN0eWxlPSJzdHJva2U6IzAwMDAwMDtzdHJva2Utd2lkdGg6MS41OyIgeDE9IjYwMy43NSIgeDI9IjYwMy43NSIgeTE9IjExIiB5Mj0iODM0LjU0NjkiLz48cmVjdCBmaWxsPSIjRjFGMUYxIiBoZWlnaHQ9IjMyLjg0MzgiIHJ4PSIxMi41IiByeT0iMTIuNSIgc3R5bGU9InN0cm9rZTojMTgxODE4O3N0cm9rZS13aWR0aDowLjU7IiB3aWR0aD0iMjg1IiB4PSI4NTUuNzUiIHk9IjY5MS43MDMxIi8+PHRleHQgZmlsbD0iIzAwMDAwMCIgZm9udC1mYW1pbHk9InNhbnMtc2VyaWYiIGZvbnQtc2l6ZT0iMTIiIGxlbmd0aEFkanVzdD0ic3BhY2luZyIgdGV4dExlbmd0aD0iMjY1IiB4PSI4NjUuNzUiIHk9IjcxMy4wNDY5Ij4mIzEwNTU7JiMxMDg4OyYjMTA3NzsmIzEwNzY7JiMxMDg2OyYjMTA4OTsmIzEwOTA7JiMxMDcyOyYjMTA3NDsmIzEwODM7JiMxMDc3OyYjMTA4NTsmIzEwODA7JiMxMDc3OyAmIzEwODc7JiMxMDg2OyYjMTA4OTsmIzEwODM7JiMxMDc3OyYjMTA4NzsmIzEwODg7JiMxMDg2OyYjMTA3NjsmIzEwNzI7JiMxMDc4OyYjMTA4NTsmIzEwODY7JiMxMDgxOyAmIzEwODc7JiMxMDg2OyYjMTA3NjsmIzEwNzY7JiMxMDc3OyYjMTA4ODsmIzEwNzg7JiMxMDgyOyYjMTA4MDs8L3RleHQ+PHJlY3QgZmlsbD0iI0YxRjFGMSIgaGVpZ2h0PSIzMi44NDM4IiByeD0iMTIuNSIgcnk9IjEyLjUiIHN0eWxlPSJzdHJva2U6IzE4MTgxODtzdHJva2Utd2lkdGg6MC41OyIgd2lkdGg9IjEwNiIgeD0iMTE2NS4yNSIgeT0iNDI3LjQ4NDQiLz48dGV4dCBmaWxsPSIjMDAwMDAwIiBmb250LWZhbWlseT0ic2Fucy1zZXJpZiIgZm9udC1zaXplPSIxMiIgbGVuZ3RoQWRqdXN0PSJzcGFjaW5nIiB0ZXh0TGVuZ3RoPSI4NiIgeD0iMTE3NS4yNSIgeT0iNDQ4LjgyODEiPiYjMTA1NDsmIzEwOTY7JiMxMDgwOyYjMTA3MzsmIzEwODI7JiMxMDcyOyAmIzEwODY7JiMxMDg3OyYjMTA4MzsmIzEwNzI7JiMxMDkwOyYjMTA5OTs8L3RleHQ+PHJlY3QgZmlsbD0iI0YxRjFGMSIgaGVpZ2h0PSIzMi44NDM4IiByeD0iMTIuNSIgcnk9IjEyLjUiIHN0eWxlPSJzdHJva2U6IzE4MTgxODtzdHJva2Utd2lkdGg6MC41OyIgd2lkdGg9IjEzNSIgeD0iMTE1MC43NSIgeT0iNDgwLjMyODEiLz48dGV4dCBmaWxsPSIjMDAwMDAwIiBmb250LWZhbWlseT0ic2Fucy1zZXJpZiIgZm9udC1zaXplPSIxMiIgbGVuZ3RoQWRqdXN0PSJzcGFjaW5nIiB0ZXh0TGVuZ3RoPSIxMTUiIHg9IjExNjAuNzUiIHk9IjUwMS42NzE5Ij4mIzEwNTU7JiMxMDg2OyYjMTA3NDsmIzEwOTA7JiMxMDg2OyYjMTA4ODsmIzEwODU7JiMxMDcyOyYjMTEwMzsgJiMxMDg3OyYjMTA4NjsmIzEwODc7JiMxMDk5OyYjMTA5MDsmIzEwODI7JiMxMDcyOzwvdGV4dD48cmVjdCBmaWxsPSIjRjFGMUYxIiBoZWlnaHQ9IjMyLjg0MzgiIHJ4PSIxMi41IiByeT0iMTIuNSIgc3R5bGU9InN0cm9rZTojMTgxODE4O3N0cm9rZS13aWR0aDowLjU7IiB3aWR0aD0iMTQ4IiB4PSIxMjk1Ljc1IiB5PSIyMjQuOTUzMSIvPjx0ZXh0IGZpbGw9IiMwMDAwMDAiIGZvbnQtZmFtaWx5PSJzYW5zLXNlcmlmIiBmb250LXNpemU9IjEyIiBsZW5ndGhBZGp1c3Q9InNwYWNpbmciIHRleHRMZW5ndGg9IjEyOCIgeD0iMTMwNS43NSIgeT0iMjQ2LjI5NjkiPiYjMTA1OTsmIzEwNzQ7JiMxMDc3OyYjMTA3NjsmIzEwODY7JiMxMDg0OyYjMTA4MzsmIzEwNzc7JiMxMDg1OyYjMTA4MDsmIzEwNzc7ICYjMTA4MjsmIzEwODM7JiMxMDgwOyYjMTA3NzsmIzEwODU7JiMxMDkwOyYjMTA3Mjs8L3RleHQ+PHJlY3QgZmlsbD0iI0YxRjFGMSIgaGVpZ2h0PSIzMi44NDM4IiByeD0iMTIuNSIgcnk9IjEyLjUiIHN0eWxlPSJzdHJva2U6IzE4MTgxODtzdHJva2Utd2lkdGg6MC41OyIgd2lkdGg9IjEzMyIgeD0iMTMwMy4yNSIgeT0iMjc3Ljc5NjkiLz48dGV4dCBmaWxsPSIjMDAwMDAwIiBmb250LWZhbWlseT0ic2Fucy1zZXJpZiIgZm9udC1zaXplPSIxMiIgbGVuZ3RoQWRqdXN0PSJzcGFjaW5nIiB0ZXh0TGVuZ3RoPSIxMTMiIHg9IjEzMTMuMjUiIHk9IjI5OS4xNDA2Ij4mIzEwNDc7JiMxMDcyOyYjMTA3NDsmIzEwNzc7JiMxMDg4OyYjMTA5NjsmIzEwNzc7JiMxMDg1OyYjMTA4MDsmIzEwNzc7ICYjMTA3OTsmIzEwNzI7JiMxMDgyOyYjMTA3MjsmIzEwNzk7JiMxMDcyOzwvdGV4dD48ZWxsaXBzZSBjeD0iMTI0Ni41IiBjeT0iODIzLjU0NjkiIGZpbGw9Im5vbmUiIHJ4PSIxMSIgcnk9IjExIiBzdHlsZT0ic3Ryb2tlOiMyMjIyMjI7c3Ryb2tlLXdpZHRoOjEuMDsiLz48ZWxsaXBzZSBjeD0iMTI0Ni41IiBjeT0iODIzLjU0NjkiIGZpbGw9IiMyMjIyMjIiIHJ4PSI2IiByeT0iNiIgc3R5bGU9InN0cm9rZTojMjIyMjIyO3N0cm9rZS13aWR0aDoxLjA7Ii8+PGxpbmUgc3R5bGU9InN0cm9rZTojMDAwMDAwO3N0cm9rZS13aWR0aDoxLjU7IiB4MT0iODQ5Ljc1IiB4Mj0iODQ5Ljc1IiB5MT0iMTEiIHkyPSI4MzQuNTQ2OSIvPjxsaW5lIHN0eWxlPSJzdHJva2U6IzAwMDAwMDtzdHJva2Utd2lkdGg6MS41OyIgeDE9IjE0NDcuNzUiIHgyPSIxNDQ3Ljc1IiB5MT0iMTEiIHkyPSI4MzQuNTQ2OSIvPjxsaW5lIHN0eWxlPSJzdHJva2U6IzE4MTgxODtzdHJva2Utd2lkdGg6MS4wOyIgeDE9IjI0MS43NSIgeDI9IjI0MS43NSIgeTE9IjU1LjI2NTYiIHkyPSI3NS4yNjU2Ii8+PHBvbHlnb24gZmlsbD0iIzE4MTgxOCIgcG9pbnRzPSIyMzcuNzUsNjUuMjY1NiwyNDEuNzUsNzUuMjY1NiwyNDUuNzUsNjUuMjY1NiwyNDEuNzUsNjkuMjY1NiIgc3R5bGU9InN0cm9rZTojMTgxODE4O3N0cm9rZS13aWR0aDoxLjA7Ii8+PGxpbmUgc3R5bGU9InN0cm9rZTojMTgxODE4O3N0cm9rZS13aWR0aDoxLjA7IiB4MT0iMjQxLjc1IiB4Mj0iMjQxLjc1IiB5MT0iMTA4LjEwOTQiIHkyPSIxMjguMTA5NCIvPjxwb2x5Z29uIGZpbGw9IiMxODE4MTgiIHBvaW50cz0iMjM3Ljc1LDExOC4xMDk0LDI0MS43NSwxMjguMTA5NCwyNDUuNzUsMTE4LjEwOTQsMjQxLjc1LDEyMi4xMDk0IiBzdHlsZT0ic3Ryb2tlOiMxODE4MTg7c3Ryb2tlLXdpZHRoOjEuMDsiLz48bGluZSBzdHlsZT0ic3Ryb2tlOiMxODE4MTg7c3Ryb2tlLXdpZHRoOjEuMDsiIHgxPSIxODEuNzUiIHgyPSI5OC41IiB5MT0iMTkyLjk1MzEiIHkyPSIxOTIuOTUzMSIvPjxsaW5lIHN0eWxlPSJzdHJva2U6IzE4MTgxODtzdHJva2Utd2lkdGg6MS4wOyIgeDE9Ijk4LjUiIHgyPSI5OC41IiB5MT0iMTkyLjk1MzEiIHkyPSIyMjQuOTUzMSIvPjxwb2x5Z29uIGZpbGw9IiMxODE4MTgiIHBvaW50cz0iOTQuNSwyMTQuOTUzMSw5OC41LDIyNC45NTMxLDEwMi41LDIxNC45NTMxLDk4LjUsMjE4Ljk1MzEiIHN0eWxlPSJzdHJva2U6IzE4MTgxODtzdHJva2Utd2lkdGg6MS4wOyIvPjxsaW5lIHN0eWxlPSJzdHJva2U6IzE4MTgxODtzdHJva2Utd2lkdGg6MS4wOyIgeDE9IjI0MS43NSIgeDI9IjI0MS43NSIgeTE9IjE2MC45NTMxIiB5Mj0iMTgwLjk1MzEiLz48cG9seWdvbiBmaWxsPSIjMTgxODE4IiBwb2ludHM9IjIzNy43NSwxNzAuOTUzMSwyNDEuNzUsMTgwLjk1MzEsMjQ1Ljc1LDE3MC45NTMxLDI0MS43NSwxNzQuOTUzMSIgc3R5bGU9InN0cm9rZTojMTgxODE4O3N0cm9rZS13aWR0aDoxLjA7Ii8+PGxpbmUgc3R5bGU9InN0cm9rZTojMTgxODE4O3N0cm9rZS13aWR0aDoxLjA7IiB4MT0iNTIzLjc1IiB4Mj0iNTIzLjc1IiB5MT0iMzEwLjY0MDYiIHkyPSIzMzAuNjQwNiIvPjxwb2x5Z29uIGZpbGw9IiMxODE4MTgiIHBvaW50cz0iNTE5Ljc1LDMyMC42NDA2LDUyMy43NSwzMzAuNjQwNiw1MjcuNzUsMzIwLjY0MDYsNTIzLjc1LDMyNC42NDA2IiBzdHlsZT0ic3Ryb2tlOiMxODE4MTg7c3Ryb2tlLXdpZHRoOjEuMDsiLz48bGluZSBzdHlsZT0ic3Ryb2tlOiMxODE4MTg7c3Ryb2tlLXdpZHRoOjEuMDsiIHgxPSI0NjYuNzUiIHgyPSI0MDguNzUiIHkxPSIzOTUuNDg0NCIgeTI9IjM5NS40ODQ0Ii8+PGxpbmUgc3R5bGU9InN0cm9rZTojMTgxODE4O3N0cm9rZS13aWR0aDoxLjA7IiB4MT0iNDA4Ljc1IiB4Mj0iNDA4Ljc1IiB5MT0iMzk1LjQ4NDQiIHkyPSI0MjcuNDg0NCIvPjxwb2x5Z29uIGZpbGw9IiMxODE4MTgiIHBvaW50cz0iNDA0Ljc1LDQxNy40ODQ0LDQwOC43NSw0MjcuNDg0NCw0MTIuNzUsNDE3LjQ4NDQsNDA4Ljc1LDQyMS40ODQ0IiBzdHlsZT0ic3Ryb2tlOiMxODE4MTg7c3Ryb2tlLXdpZHRoOjEuMDsiLz48bGluZSBzdHlsZT0ic3Ryb2tlOiMxODE4MTg7c3Ryb2tlLXdpZHRoOjEuMDsiIHgxPSI1MjMuNzUiIHgyPSI1MjMuNzUiIHkxPSIzNjMuNDg0NCIgeTI9IjM4My40ODQ0Ii8+PHBvbHlnb24gZmlsbD0iIzE4MTgxOCIgcG9pbnRzPSI1MTkuNzUsMzczLjQ4NDQsNTIzLjc1LDM4My40ODQ0LDUyNy43NSwzNzMuNDg0NCw1MjMuNzUsMzc3LjQ4NDQiIHN0eWxlPSJzdHJva2U6IzE4MTgxODtzdHJva2Utd2lkdGg6MS4wOyIvPjxsaW5lIHN0eWxlPSJzdHJva2U6IzE4MTgxODtzdHJva2Utd2lkdGg6MS4wOyIgeDE9IjcyNy43NSIgeDI9IjcyNy43NSIgeTE9IjUxMy4xNzE5IiB5Mj0iNTMzLjE3MTkiLz48cG9seWdvbiBmaWxsPSIjMTgxODE4IiBwb2ludHM9IjcyMy43NSw1MjMuMTcxOSw3MjcuNzUsNTMzLjE3MTksNzMxLjc1LDUyMy4xNzE5LDcyNy43NSw1MjcuMTcxOSIgc3R5bGU9InN0cm9rZTojMTgxODE4O3N0cm9rZS13aWR0aDoxLjA7Ii8+PGxpbmUgc3R5bGU9InN0cm9rZTojMTgxODE4O3N0cm9rZS13aWR0aDoxLjA7IiB4MT0iNzI3Ljc1IiB4Mj0iNzI3Ljc1IiB5MT0iNTY2LjAxNTYiIHkyPSI1ODYuMDE1NiIvPjxwb2x5Z29uIGZpbGw9IiMxODE4MTgiIHBvaW50cz0iNzIzLjc1LDU3Ni4wMTU2LDcyNy43NSw1ODYuMDE1Niw3MzEuNzUsNTc2LjAxNTYsNzI3Ljc1LDU4MC4wMTU2IiBzdHlsZT0ic3Ryb2tlOiMxODE4MTg7c3Ryb2tlLXdpZHRoOjEuMDsiLz48bGluZSBzdHlsZT0ic3Ryb2tlOiMxODE4MTg7c3Ryb2tlLXdpZHRoOjEuMDsiIHgxPSI3MjcuNzUiIHgyPSI3MjcuNzUiIHkxPSI2MTguODU5NCIgeTI9IjYzOC44NTk0Ii8+PHBvbHlnb24gZmlsbD0iIzE4MTgxOCIgcG9pbnRzPSI3MjMuNzUsNjI4Ljg1OTQsNzI3Ljc1LDYzOC44NTk0LDczMS43NSw2MjguODU5NCw3MjcuNzUsNjMyLjg1OTQiIHN0eWxlPSJzdHJva2U6IzE4MTgxODtzdHJva2Utd2lkdGg6MS4wOyIvPjxsaW5lIHN0eWxlPSJzdHJva2U6IzE4MTgxODtzdHJva2Utd2lkdGg6MS4wOyIgeDE9IjEyMTguMjUiIHgyPSIxMjE4LjI1IiB5MT0iNDYwLjMyODEiIHkyPSI0ODAuMzI4MSIvPjxwb2x5Z29uIGZpbGw9IiMxODE4MTgiIHBvaW50cz0iMTIxNC4yNSw0NzAuMzI4MSwxMjE4LjI1LDQ4MC4zMjgxLDEyMjIuMjUsNDcwLjMyODEsMTIxOC4yNSw0NzQuMzI4MSIgc3R5bGU9InN0cm9rZTojMTgxODE4O3N0cm9rZS13aWR0aDoxLjA7Ii8+PGxpbmUgc3R5bGU9InN0cm9rZTojMTgxODE4O3N0cm9rZS13aWR0aDoxLjA7IiB4MT0iMTM2OS43NSIgeDI9IjEzNjkuNzUiIHkxPSIyNTcuNzk2OSIgeTI9IjI3Ny43OTY5Ii8+PHBvbHlnb24gZmlsbD0iIzE4MTgxOCIgcG9pbnRzPSIxMzY1Ljc1LDI2Ny43OTY5LDEzNjkuNzUsMjc3Ljc5NjksMTM3My43NSwyNjcuNzk2OSwxMzY5Ljc1LDI3MS43OTY5IiBzdHlsZT0ic3Ryb2tlOiMxODE4MTg7c3Ryb2tlLXdpZHRoOjEuMDsiLz48bGluZSBzdHlsZT0ic3Ryb2tlOiMxODE4MTg7c3Ryb2tlLXdpZHRoOjEuMDsiIHgxPSI5OC41IiB4Mj0iOTguNSIgeTE9IjI1Ny43OTY5IiB5Mj0iMjYyLjc5NjkiLz48bGluZSBzdHlsZT0ic3Ryb2tlOiMxODE4MTg7c3Ryb2tlLXdpZHRoOjEuMDsiIHgxPSI5OC41IiB4Mj0iNTIzLjc1IiB5MT0iMjYyLjc5NjkiIHkyPSIyNjIuNzk2OSIvPjxsaW5lIHN0eWxlPSJzdHJva2U6IzE4MTgxODtzdHJva2Utd2lkdGg6MS4wOyIgeDE9IjUyMy43NSIgeDI9IjUyMy43NSIgeTE9IjI2Mi43OTY5IiB5Mj0iMjc3Ljc5NjkiLz48cG9seWdvbiBmaWxsPSIjMTgxODE4IiBwb2ludHM9IjUxOS43NSwyNjcuNzk2OSw1MjMuNzUsMjc3Ljc5NjksNTI3Ljc1LDI2Ny43OTY5LDUyMy43NSwyNzEuNzk2OSIgc3R5bGU9InN0cm9rZTojMTgxODE4O3N0cm9rZS13aWR0aDoxLjA7Ii8+PGxpbmUgc3R5bGU9InN0cm9rZTojMTgxODE4O3N0cm9rZS13aWR0aDoxLjA7IiB4MT0iNDA4Ljc1IiB4Mj0iNDA4Ljc1IiB5MT0iNDYwLjMyODEiIHkyPSI0NjUuMzI4MSIvPjxsaW5lIHN0eWxlPSJzdHJva2U6IzE4MTgxODtzdHJva2Utd2lkdGg6MS4wOyIgeDE9IjQwOC43NSIgeDI9IjcyNy43NSIgeTE9IjQ2NS4zMjgxIiB5Mj0iNDY1LjMyODEiLz48bGluZSBzdHlsZT0ic3Ryb2tlOiMxODE4MTg7c3Ryb2tlLXdpZHRoOjEuMDsiIHgxPSI3MjcuNzUiIHgyPSI3MjcuNzUiIHkxPSI0NjUuMzI4MSIgeTI9IjQ4MC4zMjgxIi8+PHBvbHlnb24gZmlsbD0iIzE4MTgxOCIgcG9pbnRzPSI3MjMuNzUsNDcwLjMyODEsNzI3Ljc1LDQ4MC4zMjgxLDczMS43NSw0NzAuMzI4MSw3MjcuNzUsNDc0LjMyODEiIHN0eWxlPSJzdHJva2U6IzE4MTgxODtzdHJva2Utd2lkdGg6MS4wOyIvPjxsaW5lIHN0eWxlPSJzdHJva2U6IzE4MTgxODtzdHJva2Utd2lkdGg6MS4wOyIgeDE9IjcyNy43NSIgeDI9IjcyNy43NSIgeTE9IjY3MS43MDMxIiB5Mj0iNjc2LjcwMzEiLz48bGluZSBzdHlsZT0ic3Ryb2tlOiMxODE4MTg7c3Ryb2tlLXdpZHRoOjEuMDsiIHgxPSI3MjcuNzUiIHgyPSI5OTguMjUiIHkxPSI2NzYuNzAzMSIgeTI9IjY3Ni43MDMxIi8+PGxpbmUgc3R5bGU9InN0cm9rZTojMTgxODE4O3N0cm9rZS13aWR0aDoxLjA7IiB4MT0iOTk4LjI1IiB4Mj0iOTk4LjI1IiB5MT0iNjc2LjcwMzEiIHkyPSI2OTEuNzAzMSIvPjxwb2x5Z29uIGZpbGw9IiMxODE4MTgiIHBvaW50cz0iOTk0LjI1LDY4MS43MDMxLDk5OC4yNSw2OTEuNzAzMSwxMDAyLjI1LDY4MS43MDMxLDk5OC4yNSw2ODUuNzAzMSIgc3R5bGU9InN0cm9rZTojMTgxODE4O3N0cm9rZS13aWR0aDoxLjA7Ii8+PGxpbmUgc3R5bGU9InN0cm9rZTojMTgxODE4O3N0cm9rZS13aWR0aDoxLjA7IiB4MT0iNTgwLjc1IiB4Mj0iMTIxOC4yNSIgeTE9IjM5NS40ODQ0IiB5Mj0iMzk1LjQ4NDQiLz48bGluZSBzdHlsZT0ic3Ryb2tlOiMxODE4MTg7c3Ryb2tlLXdpZHRoOjEuMDsiIHgxPSIxMjE4LjI1IiB4Mj0iMTIxOC4yNSIgeTE9IjM5NS40ODQ0IiB5Mj0iNDI3LjQ4NDQiLz48cG9seWdvbiBmaWxsPSIjMTgxODE4IiBwb2ludHM9IjEyMTQuMjUsNDE3LjQ4NDQsMTIxOC4yNSw0MjcuNDg0NCwxMjIyLjI1LDQxNy40ODQ0LDEyMTguMjUsNDIxLjQ4NDQiIHN0eWxlPSJzdHJva2U6IzE4MTgxODtzdHJva2Utd2lkdGg6MS4wOyIvPjxsaW5lIHN0eWxlPSJzdHJva2U6IzE4MTgxODtzdHJva2Utd2lkdGg6MS4wOyIgeDE9Ijk5OC4yNSIgeDI9Ijk5OC4yNSIgeTE9IjcyNC41NDY5IiB5Mj0iNzI4LjU0NjkiLz48bGluZSBzdHlsZT0ic3Ryb2tlOiMxODE4MTg7c3Ryb2tlLXdpZHRoOjEuMDsiIHgxPSI5OTguMjUiIHgyPSI0OTMuNzUiIHkxPSI3MjguNTQ2OSIgeTI9IjcyOC41NDY5Ii8+PGxpbmUgc3R5bGU9InN0cm9rZTojMTgxODE4O3N0cm9rZS13aWR0aDoxLjA7IiB4MT0iNDkzLjc1IiB4Mj0iNDkzLjc1IiB5MT0iNzI4LjU0NjkiIHkyPSI3NDYuNTQ2OSIvPjxsaW5lIHN0eWxlPSJzdHJva2U6IzE4MTgxODtzdHJva2Utd2lkdGg6MS4wOyIgeDE9IjQ5My43NSIgeDI9IjUxMS43NSIgeTE9Ijc0Ni41NDY5IiB5Mj0iNzQ2LjU0NjkiLz48cG9seWdvbiBmaWxsPSIjMTgxODE4IiBwb2ludHM9IjUwMS43NSw3NDIuNTQ2OSw1MTEuNzUsNzQ2LjU0NjksNTAxLjc1LDc1MC41NDY5LDUwNS43NSw3NDYuNTQ2OSIgc3R5bGU9InN0cm9rZTojMTgxODE4O3N0cm9rZS13aWR0aDoxLjA7Ii8+PGxpbmUgc3R5bGU9InN0cm9rZTojMTgxODE4O3N0cm9rZS13aWR0aDoxLjA7IiB4MT0iMTIxOC4yNSIgeDI9IjEyMTguMjUiIHkxPSI1MTMuMTcxOSIgeTI9Ijc0Ni41NDY5Ii8+PGxpbmUgc3R5bGU9InN0cm9rZTojMTgxODE4O3N0cm9rZS13aWR0aDoxLjA7IiB4MT0iMTIxOC4yNSIgeDI9IjUzNS43NSIgeTE9Ijc0Ni41NDY5IiB5Mj0iNzQ2LjU0NjkiLz48cG9seWdvbiBmaWxsPSIjMTgxODE4IiBwb2ludHM9IjU0NS43NSw3NDIuNTQ2OSw1MzUuNzUsNzQ2LjU0NjksNTQ1Ljc1LDc1MC41NDY5LDU0MS43NSw3NDYuNTQ2OSIgc3R5bGU9InN0cm9rZTojMTgxODE4O3N0cm9rZS13aWR0aDoxLjA7Ii8+PGxpbmUgc3R5bGU9InN0cm9rZTojMTgxODE4O3N0cm9rZS13aWR0aDoxLjA7IiB4MT0iMzAxLjc1IiB4Mj0iMTM2OS43NSIgeTE9IjE5Mi45NTMxIiB5Mj0iMTkyLjk1MzEiLz48bGluZSBzdHlsZT0ic3Ryb2tlOiMxODE4MTg7c3Ryb2tlLXdpZHRoOjEuMDsiIHgxPSIxMzY5Ljc1IiB4Mj0iMTM2OS43NSIgeTE9IjE5Mi45NTMxIiB5Mj0iMjI0Ljk1MzEiLz48cG9seWdvbiBmaWxsPSIjMTgxODE4IiBwb2ludHM9IjEzNjUuNzUsMjE0Ljk1MzEsMTM2OS43NSwyMjQuOTUzMSwxMzczLjc1LDIxNC45NTMxLDEzNjkuNzUsMjE4Ljk1MzEiIHN0eWxlPSJzdHJva2U6IzE4MTgxODtzdHJva2Utd2lkdGg6MS4wOyIvPjxsaW5lIHN0eWxlPSJzdHJva2U6IzE4MTgxODtzdHJva2Utd2lkdGg6MS4wOyIgeDE9IjUyMy43NSIgeDI9IjUyMy43NSIgeTE9Ijc1OC41NDY5IiB5Mj0iNzYyLjU0NjkiLz48bGluZSBzdHlsZT0ic3Ryb2tlOiMxODE4MTg7c3Ryb2tlLXdpZHRoOjEuMDsiIHgxPSI1MjMuNzUiIHgyPSIyMTEuNzUiIHkxPSI3NjIuNTQ2OSIgeTI9Ijc2Mi41NDY5Ii8+PGxpbmUgc3R5bGU9InN0cm9rZTojMTgxODE4O3N0cm9rZS13aWR0aDoxLjA7IiB4MT0iMjExLjc1IiB4Mj0iMjExLjc1IiB5MT0iNzYyLjU0NjkiIHkyPSI3ODAuNTQ2OSIvPjxsaW5lIHN0eWxlPSJzdHJva2U6IzE4MTgxODtzdHJva2Utd2lkdGg6MS4wOyIgeDE9IjIxMS43NSIgeDI9IjIyOS43NSIgeTE9Ijc4MC41NDY5IiB5Mj0iNzgwLjU0NjkiLz48cG9seWdvbiBmaWxsPSIjMTgxODE4IiBwb2ludHM9IjIxOS43NSw3NzYuNTQ2OSwyMjkuNzUsNzgwLjU0NjksMjE5Ljc1LDc4NC41NDY5LDIyMy43NSw3ODAuNTQ2OSIgc3R5bGU9InN0cm9rZTojMTgxODE4O3N0cm9rZS13aWR0aDoxLjA7Ii8+PGxpbmUgc3R5bGU9InN0cm9rZTojMTgxODE4O3N0cm9rZS13aWR0aDoxLjA7IiB4MT0iMTM2OS43NSIgeDI9IjEzNjkuNzUiIHkxPSIzMTAuNjQwNiIgeTI9Ijc4MC41NDY5Ii8+PGxpbmUgc3R5bGU9InN0cm9rZTojMTgxODE4O3N0cm9rZS13aWR0aDoxLjA7IiB4MT0iMTM2OS43NSIgeDI9IjI1My43NSIgeTE9Ijc4MC41NDY5IiB5Mj0iNzgwLjU0NjkiLz48cG9seWdvbiBmaWxsPSIjMTgxODE4IiBwb2ludHM9IjI2My43NSw3NzYuNTQ2OSwyNTMuNzUsNzgwLjU0NjksMjYzLjc1LDc4NC41NDY5LDI1OS43NSw3ODAuNTQ2OSIgc3R5bGU9InN0cm9rZTojMTgxODE4O3N0cm9rZS13aWR0aDoxLjA7Ii8+PGxpbmUgc3R5bGU9InN0cm9rZTojMTgxODE4O3N0cm9rZS13aWR0aDoxLjA7IiB4MT0iMjQxLjc1IiB4Mj0iMjQxLjc1IiB5MT0iNzkyLjU0NjkiIHkyPSI3OTcuNTQ2OSIvPjxsaW5lIHN0eWxlPSJzdHJva2U6IzE4MTgxODtzdHJva2Utd2lkdGg6MS4wOyIgeDE9IjI0MS43NSIgeDI9IjEyNDYuNSIgeTE9Ijc5Ny41NDY5IiB5Mj0iNzk3LjU0NjkiLz48bGluZSBzdHlsZT0ic3Ryb2tlOiMxODE4MTg7c3Ryb2tlLXdpZHRoOjEuMDsiIHgxPSIxMjQ2LjUiIHgyPSIxMjQ2LjUiIHkxPSI3OTcuNTQ2OSIgeTI9IjgxMi41NDY5Ii8+PHBvbHlnb24gZmlsbD0iIzE4MTgxOCIgcG9pbnRzPSIxMjQyLjUsODAyLjU0NjksMTI0Ni41LDgxMi41NDY5LDEyNTAuNSw4MDIuNTQ2OSwxMjQ2LjUsODA2LjU0NjkiIHN0eWxlPSJzdHJva2U6IzE4MTgxODtzdHJva2Utd2lkdGg6MS4wOyIvPjx0ZXh0IGZpbGw9IiMwMDAwMDAiIGZvbnQtZmFtaWx5PSJzYW5zLXNlcmlmIiBmb250LXNpemU9IjE4IiBsZW5ndGhBZGp1c3Q9InNwYWNpbmciIHRleHRMZW5ndGg9IjE3MSIgeD0iODQuMzc1IiB5PSIyOC4wMTU2Ij4mIzEwNTk7JiMxMDg3OyYjMTA4ODsmIzEwNzI7JiMxMDc0OyYjMTA4MzsmIzEwNzc7JiMxMDg1OyYjMTA4MDsmIzEwNzc7ICYjMTA3OTsmIzEwNzI7JiMxMDgyOyYjMTA3MjsmIzEwNzk7JiMxMDcyOyYjMTA4NDsmIzEwODA7PC90ZXh0Pjx0ZXh0IGZpbGw9IiMwMDAwMDAiIGZvbnQtZmFtaWx5PSJzYW5zLXNlcmlmIiBmb250LXNpemU9IjE4IiBsZW5ndGhBZGp1c3Q9InNwYWNpbmciIHRleHRMZW5ndGg9IjE2MSIgeD0iMzgzLjc1IiB5PSIyOC4wMTU2Ij4mIzEwNTQ7JiMxMDczOyYjMTA4ODsmIzEwNzI7JiMxMDczOyYjMTA4NjsmIzEwOTA7JiMxMDgyOyYjMTA3MjsgJiMxMDg3OyYjMTA4MzsmIzEwNzI7JiMxMDkwOyYjMTA3NzsmIzEwNzg7JiMxMDc3OyYjMTA4MTs8L3RleHQ+PHRleHQgZmlsbD0iIzAwMDAwMCIgZm9udC1mYW1pbHk9InNhbnMtc2VyaWYiIGZvbnQtc2l6ZT0iMTgiIGxlbmd0aEFkanVzdD0ic3BhY2luZyIgdGV4dExlbmd0aD0iMTgwIiB4PSI2MzYuNzUiIHk9IjI4LjAxNTYiPiYjMTA1MTsmIzEwODY7JiMxMDc1OyYjMTA4MDsmIzEwODk7JiMxMDkwOyYjMTA4MDsmIzEwODI7JiMxMDcyOyAmIzEwODA7ICYjMTA3NjsmIzEwODY7JiMxMDg5OyYjMTA5MDsmIzEwNzI7JiMxMDc0OyYjMTA4MjsmIzEwNzI7PC90ZXh0Pjx0ZXh0IGZpbGw9IiMwMDAwMDAiIGZvbnQtZmFtaWx5PSJzYW5zLXNlcmlmIiBmb250LXNpemU9IjE4IiBsZW5ndGhBZGp1c3Q9InNwYWNpbmciIHRleHRMZW5ndGg9IjE2MiIgeD0iMTA2Ny43NSIgeT0iMjguMDE1NiI+JiMxMDU1OyYjMTA4NjsmIzEwNzY7JiMxMDc2OyYjMTA3NzsmIzEwODg7JiMxMDc4OyYjMTA4MjsmIzEwNzI7ICYjMTA4MjsmIzEwODM7JiMxMDgwOyYjMTA3NzsmIzEwODU7JiMxMDkwOyYjMTA4NjsmIzEwNzQ7PC90ZXh0PjwhLS1TUkM9W1pMRkJJaURHNER0ZEEteElfYUFweTVpNE1vbjg1UGpiNWRyT0I3R1hZQTBXTGowVkk2RGtsTXRRdjFWY19mNWR2WU9YaU81UUEyNHBQLVFTQ3BDOXdPam9Fd1E4T2FmOXF1NENRS0tfMkVwbXYtVVVKRVlEV2VreG1FbEkxc01Lc2Ziek82bUR2b0Z0WDF1UDlPZUlIMHZxaTRpeFJ4Sm9sSzVWZFQ0ZEszNTVUZ28wWWZJVDg5eTJhUDAteHdaV2daUzR3OWNZWmdWbVN2bzlkUTk2Ry1jNlNJcXdWSzY3akFBci01YkpYWGVhNVVOUzdZeVFuUGdzT1RNTi1zYXhUd2Z0Mml5QXdYVVc0LXFBTWw2cmdaOG1ET0VqN0NxTnhCNzVyYWJoYkhReHpBa0FhRHdHLTJQWjl3V29KZV9YWU1TSXVKS1k1Wk9lS2JjNzBPN0NsSUhlclhaX1Z4OVk3WGJrR1dCT2RQQmI2TnY3R0tSeFVmeUxHa0xyWVRJWlZKZFNBdWhsOE1WQ25fUE5Qd1FTSjRvMlh3aGhxbjJYQjR6YTJhTEpKam1PWE1ZbC13d1RWQ3ZYMlVJWVc4enVXc0g2TXFhc1U4ZmZ6UXY3RklwcjdWNWZmLTV4V1FQaDl3WHJhTXg2Q01qNEl2bzhWTkdpRVJ1UWtSRTJPTld2dzdsN0Y1cnlqeDRwV3ZkTFJESmpILUtIbHVYUFk4VWt6Y183eU9vMmN6alZdLS0+PC9nPjwvc3ZnPg==;" vertex="1" parent="1">
            <mxGeometry x="-450" y="790" width="1469" height="846" as="geometry" />
          </mxCell>
        </UserObject>
        <UserObject label="" plantUmlData="{&#xa;  &quot;data&quot;: &quot;@startuml\n|Управление заказами|\nstart\n:Получен заказ;\n:Ввод данных заказа клиентом;\n:Проверка наличия товара;\nif (Товар на складе?) then (Да)\n    :Создание заказа в системе;\n    :Подтверждение заказа клиенту;\n    |Обработка платежей|\n    :Проверка информации о платеже;\n    :Инициализация платежа;\n    :Отправка запроса на оплату в банк;\n    if (Оплата успешна?) then (Да)\n        :Подтверждение успешной оплаты;\n        |Логистика и доставка|\n        :Создание плана доставки;\n        :Определение времени доставки;\n        :Уведомление клиента о времени доставки;\n        :Назначение курьера;\n        :Отправка товара;\n        :Отслеживание доставки;\n        |Поддержка клиентов|\n        :Информирование клиента о статусе заказа;\n        :Предоставление клиенту информации о доставке;\n        :Обеспечение послепродажной поддержки;\n    else (Нет)\n        |Обработка платежей|\n        :Ошибка оплаты;\n        :Уведомление клиента о неудаче;\n        :Запрос повторного платежа;\n    endif\nelse (Нет)\n    |Управление заказами|\n    :Уведомление клиента о нехватке товара;\n    :Предложение замены или отмена заказа;\nendif\nstop\n@enduml\n&quot;,&#xa;  &quot;format&quot;: &quot;svg&quot;&#xa;}" id="rWyMwrhODxbir77O0bZQ-3">
          <mxCell style="shape=image;noLabel=1;verticalAlign=top;aspect=fixed;imageAspect=0;image=data:image/svg+xml,PD94bWwgdmVyc2lvbj0iMS4wIiBlbmNvZGluZz0idXMtYXNjaWkiIHN0YW5kYWxvbmU9Im5vIj8+PHN2ZyB4bWxucz0iaHR0cDovL3d3dy53My5vcmcvMjAwMC9zdmciIHhtbG5zOnhsaW5rPSJodHRwOi8vd3d3LnczLm9yZy8xOTk5L3hsaW5rIiBjb250ZW50U3R5bGVUeXBlPSJ0ZXh0L2NzcyIgaGVpZ2h0PSIxMjE2cHgiIHByZXNlcnZlQXNwZWN0UmF0aW89Im5vbmUiIHN0eWxlPSJ3aWR0aDoxODE4cHg7aGVpZ2h0OjEyMTZweDtiYWNrZ3JvdW5kOiNGRkZGRkY7IiB2ZXJzaW9uPSIxLjEiIHZpZXdCb3g9IjAgMCAxODE4IDEyMTYiIHdpZHRoPSIxODE4cHgiIHpvb21BbmRQYW49Im1hZ25pZnkiPjxkZWZzLz48Zz48cmVjdCBmaWxsPSJub25lIiBoZWlnaHQ9IjE5LjI2NTYiIHN0eWxlPSJzdHJva2U6bm9uZTtzdHJva2Utd2lkdGg6MS4wOyIgd2lkdGg9IjE3ODUuNSIgeD0iMTUiIHk9IjExIi8+PGVsbGlwc2UgY3g9IjMzMS43NSIgY3k9IjQ1LjI2NTYiIGZpbGw9IiMyMjIyMjIiIHJ4PSIxMCIgcnk9IjEwIiBzdHlsZT0ic3Ryb2tlOiMyMjIyMjI7c3Ryb2tlLXdpZHRoOjEuMDsiLz48cmVjdCBmaWxsPSIjRjFGMUYxIiBoZWlnaHQ9IjMyLjg0MzgiIHJ4PSIxMi41IiByeT0iMTIuNSIgc3R5bGU9InN0cm9rZTojMTgxODE4O3N0cm9rZS13aWR0aDowLjU7IiB3aWR0aD0iMTA2IiB4PSIyNzguNzUiIHk9Ijc1LjI2NTYiLz48dGV4dCBmaWxsPSIjMDAwMDAwIiBmb250LWZhbWlseT0ic2Fucy1zZXJpZiIgZm9udC1zaXplPSIxMiIgbGVuZ3RoQWRqdXN0PSJzcGFjaW5nIiB0ZXh0TGVuZ3RoPSI4NiIgeD0iMjg4Ljc1IiB5PSI5Ni42MDk0Ij4mIzEwNTU7JiMxMDg2OyYjMTA4MzsmIzEwOTE7JiMxMDk1OyYjMTA3NzsmIzEwODU7ICYjMTA3OTsmIzEwNzI7JiMxMDgyOyYjMTA3MjsmIzEwNzk7PC90ZXh0PjxyZWN0IGZpbGw9IiNGMUYxRjEiIGhlaWdodD0iMzIuODQzOCIgcng9IjEyLjUiIHJ5PSIxMi41IiBzdHlsZT0ic3Ryb2tlOiMxODE4MTg7c3Ryb2tlLXdpZHRoOjAuNTsiIHdpZHRoPSIyMDAiIHg9IjIzMS43NSIgeT0iMTI4LjEwOTQiLz48dGV4dCBmaWxsPSIjMDAwMDAwIiBmb250LWZhbWlseT0ic2Fucy1zZXJpZiIgZm9udC1zaXplPSIxMiIgbGVuZ3RoQWRqdXN0PSJzcGFjaW5nIiB0ZXh0TGVuZ3RoPSIxODAiIHg9IjI0MS43NSIgeT0iMTQ5LjQ1MzEiPiYjMTA0MjsmIzEwNzQ7JiMxMDg2OyYjMTA3NjsgJiMxMDc2OyYjMTA3MjsmIzEwODU7JiMxMDg1OyYjMTA5OTsmIzEwOTM7ICYjMTA3OTsmIzEwNzI7JiMxMDgyOyYjMTA3MjsmIzEwNzk7JiMxMDcyOyAmIzEwODI7JiMxMDgzOyYjMTA4MDsmIzEwNzc7JiMxMDg1OyYjMTA5MDsmIzEwODY7JiMxMDg0OzwvdGV4dD48cmVjdCBmaWxsPSIjRjFGMUYxIiBoZWlnaHQ9IjMyLjg0MzgiIHJ4PSIxMi41IiByeT0iMTIuNSIgc3R5bGU9InN0cm9rZTojMTgxODE4O3N0cm9rZS13aWR0aDowLjU7IiB3aWR0aD0iMTc2IiB4PSIyNDMuNzUiIHk9IjE4MC45NTMxIi8+PHRleHQgZmlsbD0iIzAwMDAwMCIgZm9udC1mYW1pbHk9InNhbnMtc2VyaWYiIGZvbnQtc2l6ZT0iMTIiIGxlbmd0aEFkanVzdD0ic3BhY2luZyIgdGV4dExlbmd0aD0iMTU2IiB4PSIyNTMuNzUiIHk9IjIwMi4yOTY5Ij4mIzEwNTU7JiMxMDg4OyYjMTA4NjsmIzEwNzQ7JiMxMDc3OyYjMTA4ODsmIzEwODI7JiMxMDcyOyAmIzEwODU7JiMxMDcyOyYjMTA4MzsmIzEwODA7JiMxMDk1OyYjMTA4MDsmIzExMDM7ICYjMTA5MDsmIzEwODY7JiMxMDc0OyYjMTA3MjsmIzEwODg7JiMxMDcyOzwvdGV4dD48cG9seWdvbiBmaWxsPSIjRjFGMUYxIiBwb2ludHM9IjI4My43NSwyMzMuNzk2OSwzNzkuNzUsMjMzLjc5NjksMzkxLjc1LDI0NS43OTY5LDM3OS43NSwyNTcuNzk2OSwyODMuNzUsMjU3Ljc5NjksMjcxLjc1LDI0NS43OTY5LDI4My43NSwyMzMuNzk2OSIgc3R5bGU9InN0cm9rZTojMTgxODE4O3N0cm9rZS13aWR0aDowLjU7Ii8+PHRleHQgZmlsbD0iIzAwMDAwMCIgZm9udC1mYW1pbHk9InNhbnMtc2VyaWYiIGZvbnQtc2l6ZT0iMTEiIGxlbmd0aEFkanVzdD0ic3BhY2luZyIgdGV4dExlbmd0aD0iOTYiIHg9IjI4My43NSIgeT0iMjUwLjMwODYiPiYjMTA1ODsmIzEwODY7JiMxMDc0OyYjMTA3MjsmIzEwODg7ICYjMTA4NTsmIzEwNzI7ICYjMTA4OTsmIzEwODI7JiMxMDgzOyYjMTA3MjsmIzEwNzY7JiMxMDc3Oz88L3RleHQ+PHRleHQgZmlsbD0iIzAwMDAwMCIgZm9udC1mYW1pbHk9InNhbnMtc2VyaWYiIGZvbnQtc2l6ZT0iMTEiIGxlbmd0aEFkanVzdD0ic3BhY2luZyIgdGV4dExlbmd0aD0iMTIiIHg9IjI1OS43NSIgeT0iMjQ0LjQyMTkiPiYjMTA0NDsmIzEwNzI7PC90ZXh0Pjx0ZXh0IGZpbGw9IiMwMDAwMDAiIGZvbnQtZmFtaWx5PSJzYW5zLXNlcmlmIiBmb250LXNpemU9IjExIiBsZW5ndGhBZGp1c3Q9InNwYWNpbmciIHRleHRMZW5ndGg9IjE4IiB4PSIzOTEuNzUiIHk9IjI0NC40MjE5Ij4mIzEwNTM7JiMxMDc3OyYjMTA5MDs8L3RleHQ+PHJlY3QgZmlsbD0iI0YxRjFGMSIgaGVpZ2h0PSIzMi44NDM4IiByeD0iMTIuNSIgcnk9IjEyLjUiIHN0eWxlPSJzdHJva2U6IzE4MTgxODtzdHJva2Utd2lkdGg6MC41OyIgd2lkdGg9IjE4NSIgeD0iMzIiIHk9IjI3Ny43OTY5Ii8+PHRleHQgZmlsbD0iIzAwMDAwMCIgZm9udC1mYW1pbHk9InNhbnMtc2VyaWYiIGZvbnQtc2l6ZT0iMTIiIGxlbmd0aEFkanVzdD0ic3BhY2luZyIgdGV4dExlbmd0aD0iMTY1IiB4PSI0MiIgeT0iMjk5LjE0MDYiPiYjMTA1NzsmIzEwODY7JiMxMDc5OyYjMTA3NjsmIzEwNzI7JiMxMDg1OyYjMTA4MDsmIzEwNzc7ICYjMTA3OTsmIzEwNzI7JiMxMDgyOyYjMTA3MjsmIzEwNzk7JiMxMDcyOyAmIzEwNzQ7ICYjMTA4OTsmIzEwODA7JiMxMDg5OyYjMTA5MDsmIzEwNzc7JiMxMDg0OyYjMTA3Nzs8L3RleHQ+PHJlY3QgZmlsbD0iI0YxRjFGMSIgaGVpZ2h0PSIzMi44NDM4IiByeD0iMTIuNSIgcnk9IjEyLjUiIHN0eWxlPSJzdHJva2U6IzE4MTgxODtzdHJva2Utd2lkdGg6MC41OyIgd2lkdGg9IjIwNyIgeD0iMjEiIHk9IjMzMC42NDA2Ii8+PHRleHQgZmlsbD0iIzAwMDAwMCIgZm9udC1mYW1pbHk9InNhbnMtc2VyaWYiIGZvbnQtc2l6ZT0iMTIiIGxlbmd0aEFkanVzdD0ic3BhY2luZyIgdGV4dExlbmd0aD0iMTg3IiB4PSIzMSIgeT0iMzUxLjk4NDQiPiYjMTA1NTsmIzEwODY7JiMxMDc2OyYjMTA5MDsmIzEwNzQ7JiMxMDc3OyYjMTA4ODsmIzEwNzg7JiMxMDc2OyYjMTA3NzsmIzEwODU7JiMxMDgwOyYjMTA3NzsgJiMxMDc5OyYjMTA3MjsmIzEwODI7JiMxMDcyOyYjMTA3OTsmIzEwNzI7ICYjMTA4MjsmIzEwODM7JiMxMDgwOyYjMTA3NzsmIzEwODU7JiMxMDkwOyYjMTA5MTs8L3RleHQ+PHJlY3QgZmlsbD0iI0YxRjFGMSIgaGVpZ2h0PSIzMi44NDM4IiByeD0iMTIuNSIgcnk9IjEyLjUiIHN0eWxlPSJzdHJva2U6IzE4MTgxODtzdHJva2Utd2lkdGg6MC41OyIgd2lkdGg9IjI2OCIgeD0iNDA1IiB5PSIyNzcuNzk2OSIvPjx0ZXh0IGZpbGw9IiMwMDAwMDAiIGZvbnQtZmFtaWx5PSJzYW5zLXNlcmlmIiBmb250LXNpemU9IjEyIiBsZW5ndGhBZGp1c3Q9InNwYWNpbmciIHRleHRMZW5ndGg9IjI0OCIgeD0iNDE1IiB5PSIyOTkuMTQwNiI+JiMxMDU5OyYjMTA3NDsmIzEwNzc7JiMxMDc2OyYjMTA4NjsmIzEwODQ7JiMxMDgzOyYjMTA3NzsmIzEwODU7JiMxMDgwOyYjMTA3NzsgJiMxMDgyOyYjMTA4MzsmIzEwODA7JiMxMDc3OyYjMTA4NTsmIzEwOTA7JiMxMDcyOyAmIzEwODY7ICYjMTA4NTsmIzEwNzc7JiMxMDkzOyYjMTA3NDsmIzEwNzI7JiMxMDkwOyYjMTA4MjsmIzEwNzc7ICYjMTA5MDsmIzEwODY7JiMxMDc0OyYjMTA3MjsmIzEwODg7JiMxMDcyOzwvdGV4dD48cmVjdCBmaWxsPSIjRjFGMUYxIiBoZWlnaHQ9IjMyLjg0MzgiIHJ4PSIxMi41IiByeT0iMTIuNSIgc3R5bGU9InN0cm9rZTojMTgxODE4O3N0cm9rZS13aWR0aDowLjU7IiB3aWR0aD0iMjYxIiB4PSI0MDguNSIgeT0iMzMwLjY0MDYiLz48dGV4dCBmaWxsPSIjMDAwMDAwIiBmb250LWZhbWlseT0ic2Fucy1zZXJpZiIgZm9udC1zaXplPSIxMiIgbGVuZ3RoQWRqdXN0PSJzcGFjaW5nIiB0ZXh0TGVuZ3RoPSIyNDEiIHg9IjQxOC41IiB5PSIzNTEuOTg0NCI+JiMxMDU1OyYjMTA4ODsmIzEwNzc7JiMxMDc2OyYjMTA4MzsmIzEwODY7JiMxMDc4OyYjMTA3NzsmIzEwODU7JiMxMDgwOyYjMTA3NzsgJiMxMDc5OyYjMTA3MjsmIzEwODQ7JiMxMDc3OyYjMTA4NTsmIzEwOTk7ICYjMTA4MDsmIzEwODM7JiMxMDgwOyAmIzEwODY7JiMxMDkwOyYjMTA4NDsmIzEwNzc7JiMxMDg1OyYjMTA3MjsgJiMxMDc5OyYjMTA3MjsmIzEwODI7JiMxMDcyOyYjMTA3OTsmIzEwNzI7PC90ZXh0Pjxwb2x5Z29uIGZpbGw9IiNGMUYxRjEiIHBvaW50cz0iMzMxLjc1LDExMzguNDUzMSwzNDMuNzUsMTE1MC40NTMxLDMzMS43NSwxMTYyLjQ1MzEsMzE5Ljc1LDExNTAuNDUzMSwzMzEuNzUsMTEzOC40NTMxIiBzdHlsZT0ic3Ryb2tlOiMxODE4MTg7c3Ryb2tlLXdpZHRoOjAuNTsiLz48ZWxsaXBzZSBjeD0iMzMxLjc1IiBjeT0iMTE5My40NTMxIiBmaWxsPSJub25lIiByeD0iMTEiIHJ5PSIxMSIgc3R5bGU9InN0cm9rZTojMjIyMjIyO3N0cm9rZS13aWR0aDoxLjA7Ii8+PGVsbGlwc2UgY3g9IjMzMS43NSIgY3k9IjExOTMuNDUzMSIgZmlsbD0iIzIyMjIyMiIgcng9IjYiIHJ5PSI2IiBzdHlsZT0ic3Ryb2tlOiMyMjIyMjI7c3Ryb2tlLXdpZHRoOjEuMDsiLz48bGluZSBzdHlsZT0ic3Ryb2tlOiMwMDAwMDA7c3Ryb2tlLXdpZHRoOjEuNTsiIHgxPSIxNSIgeDI9IjE1IiB5MT0iMTEiIHkyPSIxMjA0LjQ1MzEiLz48cmVjdCBmaWxsPSIjRjFGMUYxIiBoZWlnaHQ9IjMyLjg0MzgiIHJ4PSIxMi41IiByeT0iMTIuNSIgc3R5bGU9InN0cm9rZTojMTgxODE4O3N0cm9rZS13aWR0aDowLjU7IiB3aWR0aD0iMjE2IiB4PSI4MjUuNSIgeT0iMzgzLjQ4NDQiLz48dGV4dCBmaWxsPSIjMDAwMDAwIiBmb250LWZhbWlseT0ic2Fucy1zZXJpZiIgZm9udC1zaXplPSIxMiIgbGVuZ3RoQWRqdXN0PSJzcGFjaW5nIiB0ZXh0TGVuZ3RoPSIxOTYiIHg9IjgzNS41IiB5PSI0MDQuODI4MSI+JiMxMDU1OyYjMTA4ODsmIzEwODY7JiMxMDc0OyYjMTA3NzsmIzEwODg7JiMxMDgyOyYjMTA3MjsgJiMxMDgwOyYjMTA4NTsmIzEwOTI7JiMxMDg2OyYjMTA4ODsmIzEwODQ7JiMxMDcyOyYjMTA5NDsmIzEwODA7JiMxMDgwOyAmIzEwODY7ICYjMTA4NzsmIzEwODM7JiMxMDcyOyYjMTA5MDsmIzEwNzc7JiMxMDc4OyYjMTA3Nzs8L3RleHQ+PHJlY3QgZmlsbD0iI0YxRjFGMSIgaGVpZ2h0PSIzMi44NDM4IiByeD0iMTIuNSIgcnk9IjEyLjUiIHN0eWxlPSJzdHJva2U6IzE4MTgxODtzdHJva2Utd2lkdGg6MC41OyIgd2lkdGg9IjE2MiIgeD0iODUyLjUiIHk9IjQzNi4zMjgxIi8+PHRleHQgZmlsbD0iIzAwMDAwMCIgZm9udC1mYW1pbHk9InNhbnMtc2VyaWYiIGZvbnQtc2l6ZT0iMTIiIGxlbmd0aEFkanVzdD0ic3BhY2luZyIgdGV4dExlbmd0aD0iMTQyIiB4PSI4NjIuNSIgeT0iNDU3LjY3MTkiPiYjMTA0ODsmIzEwODU7JiMxMDgwOyYjMTA5NDsmIzEwODA7JiMxMDcyOyYjMTA4MzsmIzEwODA7JiMxMDc5OyYjMTA3MjsmIzEwOTQ7JiMxMDgwOyYjMTEwMzsgJiMxMDg3OyYjMTA4MzsmIzEwNzI7JiMxMDkwOyYjMTA3NzsmIzEwNzg7JiMxMDcyOzwvdGV4dD48cmVjdCBmaWxsPSIjRjFGMUYxIiBoZWlnaHQ9IjMyLjg0MzgiIHJ4PSIxMi41IiByeT0iMTIuNSIgc3R5bGU9InN0cm9rZTojMTgxODE4O3N0cm9rZS13aWR0aDowLjU7IiB3aWR0aD0iMjM5IiB4PSI4MTQiIHk9IjQ4OS4xNzE5Ii8+PHRleHQgZmlsbD0iIzAwMDAwMCIgZm9udC1mYW1pbHk9InNhbnMtc2VyaWYiIGZvbnQtc2l6ZT0iMTIiIGxlbmd0aEFkanVzdD0ic3BhY2luZyIgdGV4dExlbmd0aD0iMjE5IiB4PSI4MjQiIHk9IjUxMC41MTU2Ij4mIzEwNTQ7JiMxMDkwOyYjMTA4NzsmIzEwODg7JiMxMDcyOyYjMTA3NDsmIzEwODI7JiMxMDcyOyAmIzEwNzk7JiMxMDcyOyYjMTA4NzsmIzEwODg7JiMxMDg2OyYjMTA4OTsmIzEwNzI7ICYjMTA4NTsmIzEwNzI7ICYjMTA4NjsmIzEwODc7JiMxMDgzOyYjMTA3MjsmIzEwOTA7JiMxMDkxOyAmIzEwNzQ7ICYjMTA3MzsmIzEwNzI7JiMxMDg1OyYjMTA4Mjs8L3RleHQ+PHBvbHlnb24gZmlsbD0iI0YxRjFGMSIgcG9pbnRzPSI4ODguNSw1NDIuMDE1Niw5NzguNSw1NDIuMDE1Niw5OTAuNSw1NTQuMDE1Niw5NzguNSw1NjYuMDE1Niw4ODguNSw1NjYuMDE1Niw4NzYuNSw1NTQuMDE1Niw4ODguNSw1NDIuMDE1NiIgc3R5bGU9InN0cm9rZTojMTgxODE4O3N0cm9rZS13aWR0aDowLjU7Ii8+PHRleHQgZmlsbD0iIzAwMDAwMCIgZm9udC1mYW1pbHk9InNhbnMtc2VyaWYiIGZvbnQtc2l6ZT0iMTEiIGxlbmd0aEFkanVzdD0ic3BhY2luZyIgdGV4dExlbmd0aD0iOTAiIHg9Ijg4OC41IiB5PSI1NTguNTI3MyI+JiMxMDU0OyYjMTA4NzsmIzEwODM7JiMxMDcyOyYjMTA5MDsmIzEwNzI7ICYjMTA5MTsmIzEwODk7JiMxMDg3OyYjMTA3NzsmIzEwOTY7JiMxMDg1OyYjMTA3Mjs/PC90ZXh0Pjx0ZXh0IGZpbGw9IiMwMDAwMDAiIGZvbnQtZmFtaWx5PSJzYW5zLXNlcmlmIiBmb250LXNpemU9IjExIiBsZW5ndGhBZGp1c3Q9InNwYWNpbmciIHRleHRMZW5ndGg9IjEyIiB4PSI4NjQuNSIgeT0iNTUyLjY0MDYiPiYjMTA0NDsmIzEwNzI7PC90ZXh0Pjx0ZXh0IGZpbGw9IiMwMDAwMDAiIGZvbnQtZmFtaWx5PSJzYW5zLXNlcmlmIiBmb250LXNpemU9IjExIiBsZW5ndGhBZGp1c3Q9InNwYWNpbmciIHRleHRMZW5ndGg9IjE4IiB4PSI5OTAuNSIgeT0iNTUyLjY0MDYiPiYjMTA1MzsmIzEwNzc7JiMxMDkwOzwvdGV4dD48cmVjdCBmaWxsPSIjRjFGMUYxIiBoZWlnaHQ9IjMyLjg0MzgiIHJ4PSIxMi41IiByeT0iMTIuNSIgc3R5bGU9InN0cm9rZTojMTgxODE4O3N0cm9rZS13aWR0aDowLjU7IiB3aWR0aD0iMjE2IiB4PSI2ODMiIHk9IjU4Ni4wMTU2Ii8+PHRleHQgZmlsbD0iIzAwMDAwMCIgZm9udC1mYW1pbHk9InNhbnMtc2VyaWYiIGZvbnQtc2l6ZT0iMTIiIGxlbmd0aEFkanVzdD0ic3BhY2luZyIgdGV4dExlbmd0aD0iMTk2IiB4PSI2OTMiIHk9IjYwNy4zNTk0Ij4mIzEwNTU7JiMxMDg2OyYjMTA3NjsmIzEwOTA7JiMxMDc0OyYjMTA3NzsmIzEwODg7JiMxMDc4OyYjMTA3NjsmIzEwNzc7JiMxMDg1OyYjMTA4MDsmIzEwNzc7ICYjMTA5MTsmIzEwODk7JiMxMDg3OyYjMTA3NzsmIzEwOTY7JiMxMDg1OyYjMTA4NjsmIzEwODE7ICYjMTA4NjsmIzEwODc7JiMxMDgzOyYjMTA3MjsmIzEwOTA7JiMxMDk5OzwvdGV4dD48cmVjdCBmaWxsPSIjRjFGMUYxIiBoZWlnaHQ9IjMyLjg0MzgiIHJ4PSIxMi41IiByeT0iMTIuNSIgc3R5bGU9InN0cm9rZTojMTgxODE4O3N0cm9rZS13aWR0aDowLjU7IiB3aWR0aD0iMTA2IiB4PSIxMDIzIiB5PSI1ODYuMDE1NiIvPjx0ZXh0IGZpbGw9IiMwMDAwMDAiIGZvbnQtZmFtaWx5PSJzYW5zLXNlcmlmIiBmb250LXNpemU9IjEyIiBsZW5ndGhBZGp1c3Q9InNwYWNpbmciIHRleHRMZW5ndGg9Ijg2IiB4PSIxMDMzIiB5PSI2MDcuMzU5NCI+JiMxMDU0OyYjMTA5NjsmIzEwODA7JiMxMDczOyYjMTA4MjsmIzEwNzI7ICYjMTA4NjsmIzEwODc7JiMxMDgzOyYjMTA3MjsmIzEwOTA7JiMxMDk5OzwvdGV4dD48cmVjdCBmaWxsPSIjRjFGMUYxIiBoZWlnaHQ9IjMyLjg0MzgiIHJ4PSIxMi41IiByeT0iMTIuNSIgc3R5bGU9InN0cm9rZTojMTgxODE4O3N0cm9rZS13aWR0aDowLjU7IiB3aWR0aD0iMjE2IiB4PSI5NjgiIHk9IjYzOC44NTk0Ii8+PHRleHQgZmlsbD0iIzAwMDAwMCIgZm9udC1mYW1pbHk9InNhbnMtc2VyaWYiIGZvbnQtc2l6ZT0iMTIiIGxlbmd0aEFkanVzdD0ic3BhY2luZyIgdGV4dExlbmd0aD0iMTk2IiB4PSI5NzgiIHk9IjY2MC4yMDMxIj4mIzEwNTk7JiMxMDc0OyYjMTA3NzsmIzEwNzY7JiMxMDg2OyYjMTA4NDsmIzEwODM7JiMxMDc3OyYjMTA4NTsmIzEwODA7JiMxMDc3OyAmIzEwODI7JiMxMDgzOyYjMTA4MDsmIzEwNzc7JiMxMDg1OyYjMTA5MDsmIzEwNzI7ICYjMTA4NjsgJiMxMDg1OyYjMTA3NzsmIzEwOTE7JiMxMDc2OyYjMTA3MjsmIzEwOTU7JiMxMDc3OzwvdGV4dD48cmVjdCBmaWxsPSIjRjFGMUYxIiBoZWlnaHQ9IjMyLjg0MzgiIHJ4PSIxMi41IiByeT0iMTIuNSIgc3R5bGU9InN0cm9rZTojMTgxODE4O3N0cm9rZS13aWR0aDowLjU7IiB3aWR0aD0iMTg3IiB4PSI5ODIuNSIgeT0iNjkxLjcwMzEiLz48dGV4dCBmaWxsPSIjMDAwMDAwIiBmb250LWZhbWlseT0ic2Fucy1zZXJpZiIgZm9udC1zaXplPSIxMiIgbGVuZ3RoQWRqdXN0PSJzcGFjaW5nIiB0ZXh0TGVuZ3RoPSIxNjciIHg9Ijk5Mi41IiB5PSI3MTMuMDQ2OSI+JiMxMDQ3OyYjMTA3MjsmIzEwODc7JiMxMDg4OyYjMTA4NjsmIzEwODk7ICYjMTA4NzsmIzEwODY7JiMxMDc0OyYjMTA5MDsmIzEwODY7JiMxMDg4OyYjMTA4NTsmIzEwODY7JiMxMDc1OyYjMTA4NjsgJiMxMDg3OyYjMTA4MzsmIzEwNzI7JiMxMDkwOyYjMTA3NzsmIzEwNzg7JiMxMDcyOzwvdGV4dD48cG9seWdvbiBmaWxsPSIjRjFGMUYxIiBwb2ludHM9IjkzMy41LDExMDQuNDUzMSw5NDUuNSwxMTE2LjQ1MzEsOTMzLjUsMTEyOC40NTMxLDkyMS41LDExMTYuNDUzMSw5MzMuNSwxMTA0LjQ1MzEiIHN0eWxlPSJzdHJva2U6IzE4MTgxODtzdHJva2Utd2lkdGg6MC41OyIvPjxsaW5lIHN0eWxlPSJzdHJva2U6IzAwMDAwMDtzdHJva2Utd2lkdGg6MS41OyIgeDE9IjY3NyIgeDI9IjY3NyIgeTE9IjExIiB5Mj0iMTIwNC40NTMxIi8+PHJlY3QgZmlsbD0iI0YxRjFGMSIgaGVpZ2h0PSIzMi44NDM4IiByeD0iMTIuNSIgcnk9IjEyLjUiIHN0eWxlPSJzdHJva2U6IzE4MTgxODtzdHJva2Utd2lkdGg6MC41OyIgd2lkdGg9IjE3NCIgeD0iMTI0NC41IiB5PSI2MzguODU5NCIvPjx0ZXh0IGZpbGw9IiMwMDAwMDAiIGZvbnQtZmFtaWx5PSJzYW5zLXNlcmlmIiBmb250LXNpemU9IjEyIiBsZW5ndGhBZGp1c3Q9InNwYWNpbmciIHRleHRMZW5ndGg9IjE1NCIgeD0iMTI1NC41IiB5PSI2NjAuMjAzMSI+JiMxMDU3OyYjMTA4NjsmIzEwNzk7JiMxMDc2OyYjMTA3MjsmIzEwODU7JiMxMDgwOyYjMTA3NzsgJiMxMDg3OyYjMTA4MzsmIzEwNzI7JiMxMDg1OyYjMTA3MjsgJiMxMDc2OyYjMTA4NjsmIzEwODk7JiMxMDkwOyYjMTA3MjsmIzEwNzQ7JiMxMDgyOyYjMTA4MDs8L3RleHQ+PHJlY3QgZmlsbD0iI0YxRjFGMSIgaGVpZ2h0PSIzMi44NDM4IiByeD0iMTIuNSIgcnk9IjEyLjUiIHN0eWxlPSJzdHJva2U6IzE4MTgxODtzdHJva2Utd2lkdGg6MC41OyIgd2lkdGg9IjIxMCIgeD0iMTIyNi41IiB5PSI2OTEuNzAzMSIvPjx0ZXh0IGZpbGw9IiMwMDAwMDAiIGZvbnQtZmFtaWx5PSJzYW5zLXNlcmlmIiBmb250LXNpemU9IjEyIiBsZW5ndGhBZGp1c3Q9InNwYWNpbmciIHRleHRMZW5ndGg9IjE5MCIgeD0iMTIzNi41IiB5PSI3MTMuMDQ2OSI+JiMxMDU0OyYjMTA4NzsmIzEwODg7JiMxMDc3OyYjMTA3NjsmIzEwNzc7JiMxMDgzOyYjMTA3NzsmIzEwODU7JiMxMDgwOyYjMTA3NzsgJiMxMDc0OyYjMTA4ODsmIzEwNzc7JiMxMDg0OyYjMTA3NzsmIzEwODU7JiMxMDgwOyAmIzEwNzY7JiMxMDg2OyYjMTA4OTsmIzEwOTA7JiMxMDcyOyYjMTA3NDsmIzEwODI7JiMxMDgwOzwvdGV4dD48cmVjdCBmaWxsPSIjRjFGMUYxIiBoZWlnaHQ9IjMyLjg0MzgiIHJ4PSIxMi41IiByeT0iMTIuNSIgc3R5bGU9InN0cm9rZTojMTgxODE4O3N0cm9rZS13aWR0aDowLjU7IiB3aWR0aD0iMjc1IiB4PSIxMTk0IiB5PSI3NDQuNTQ2OSIvPjx0ZXh0IGZpbGw9IiMwMDAwMDAiIGZvbnQtZmFtaWx5PSJzYW5zLXNlcmlmIiBmb250LXNpemU9IjEyIiBsZW5ndGhBZGp1c3Q9InNwYWNpbmciIHRleHRMZW5ndGg9IjI1NSIgeD0iMTIwNCIgeT0iNzY1Ljg5MDYiPiYjMTA1OTsmIzEwNzQ7JiMxMDc3OyYjMTA3NjsmIzEwODY7JiMxMDg0OyYjMTA4MzsmIzEwNzc7JiMxMDg1OyYjMTA4MDsmIzEwNzc7ICYjMTA4MjsmIzEwODM7JiMxMDgwOyYjMTA3NzsmIzEwODU7JiMxMDkwOyYjMTA3MjsgJiMxMDg2OyAmIzEwNzQ7JiMxMDg4OyYjMTA3NzsmIzEwODQ7JiMxMDc3OyYjMTA4NTsmIzEwODA7ICYjMTA3NjsmIzEwODY7JiMxMDg5OyYjMTA5MDsmIzEwNzI7JiMxMDc0OyYjMTA4MjsmIzEwODA7PC90ZXh0PjxyZWN0IGZpbGw9IiNGMUYxRjEiIGhlaWdodD0iMzIuODQzOCIgcng9IjEyLjUiIHJ5PSIxMi41IiBzdHlsZT0ic3Ryb2tlOiMxODE4MTg7c3Ryb2tlLXdpZHRoOjAuNTsiIHdpZHRoPSIxNDMiIHg9IjEyNjAiIHk9Ijc5Ny4zOTA2Ii8+PHRleHQgZmlsbD0iIzAwMDAwMCIgZm9udC1mYW1pbHk9InNhbnMtc2VyaWYiIGZvbnQtc2l6ZT0iMTIiIGxlbmd0aEFkanVzdD0ic3BhY2luZyIgdGV4dExlbmd0aD0iMTIzIiB4PSIxMjcwIiB5PSI4MTguNzM0NCI+JiMxMDUzOyYjMTA3MjsmIzEwNzk7JiMxMDg1OyYjMTA3MjsmIzEwOTU7JiMxMDc3OyYjMTA4NTsmIzEwODA7JiMxMDc3OyAmIzEwODI7JiMxMDkxOyYjMTA4ODsmIzExMDA7JiMxMDc3OyYjMTA4ODsmIzEwNzI7PC90ZXh0PjxyZWN0IGZpbGw9IiNGMUYxRjEiIGhlaWdodD0iMzIuODQzOCIgcng9IjEyLjUiIHJ5PSIxMi41IiBzdHlsZT0ic3Ryb2tlOiMxODE4MTg7c3Ryb2tlLXdpZHRoOjAuNTsiIHdpZHRoPSIxMjEiIHg9IjEyNzEiIHk9Ijg1MC4yMzQ0Ii8+PHRleHQgZmlsbD0iIzAwMDAwMCIgZm9udC1mYW1pbHk9InNhbnMtc2VyaWYiIGZvbnQtc2l6ZT0iMTIiIGxlbmd0aEFkanVzdD0ic3BhY2luZyIgdGV4dExlbmd0aD0iMTAxIiB4PSIxMjgxIiB5PSI4NzEuNTc4MSI+JiMxMDU0OyYjMTA5MDsmIzEwODc7JiMxMDg4OyYjMTA3MjsmIzEwNzQ7JiMxMDgyOyYjMTA3MjsgJiMxMDkwOyYjMTA4NjsmIzEwNzQ7JiMxMDcyOyYjMTA4ODsmIzEwNzI7PC90ZXh0PjxyZWN0IGZpbGw9IiNGMUYxRjEiIGhlaWdodD0iMzIuODQzOCIgcng9IjEyLjUiIHJ5PSIxMi41IiBzdHlsZT0ic3Ryb2tlOiMxODE4MTg7c3Ryb2tlLXdpZHRoOjAuNTsiIHdpZHRoPSIxNjAiIHg9IjEyNTEuNSIgeT0iOTAzLjA3ODEiLz48dGV4dCBmaWxsPSIjMDAwMDAwIiBmb250LWZhbWlseT0ic2Fucy1zZXJpZiIgZm9udC1zaXplPSIxMiIgbGVuZ3RoQWRqdXN0PSJzcGFjaW5nIiB0ZXh0TGVuZ3RoPSIxNDAiIHg9IjEyNjEuNSIgeT0iOTI0LjQyMTkiPiYjMTA1NDsmIzEwOTA7JiMxMDg5OyYjMTA4MzsmIzEwNzc7JiMxMDc4OyYjMTA4MDsmIzEwNzQ7JiMxMDcyOyYjMTA4NTsmIzEwODA7JiMxMDc3OyAmIzEwNzY7JiMxMDg2OyYjMTA4OTsmIzEwOTA7JiMxMDcyOyYjMTA3NDsmIzEwODI7JiMxMDgwOzwvdGV4dD48bGluZSBzdHlsZT0ic3Ryb2tlOiMwMDAwMDA7c3Ryb2tlLXdpZHRoOjEuNTsiIHgxPSIxMTg4IiB4Mj0iMTE4OCIgeTE9IjExIiB5Mj0iMTIwNC40NTMxIi8+PHJlY3QgZmlsbD0iI0YxRjFGMSIgaGVpZ2h0PSIzMi44NDM4IiByeD0iMTIuNSIgcnk9IjEyLjUiIHN0eWxlPSJzdHJva2U6IzE4MTgxODtzdHJva2Utd2lkdGg6MC41OyIgd2lkdGg9IjI3OCIgeD0iMTQ5NyIgeT0iOTU1LjkyMTkiLz48dGV4dCBmaWxsPSIjMDAwMDAwIiBmb250LWZhbWlseT0ic2Fucy1zZXJpZiIgZm9udC1zaXplPSIxMiIgbGVuZ3RoQWRqdXN0PSJzcGFjaW5nIiB0ZXh0TGVuZ3RoPSIyNTgiIHg9IjE1MDciIHk9Ijk3Ny4yNjU2Ij4mIzEwNDg7JiMxMDg1OyYjMTA5MjsmIzEwODY7JiMxMDg4OyYjMTA4NDsmIzEwODA7JiMxMDg4OyYjMTA4NjsmIzEwNzQ7JiMxMDcyOyYjMTA4NTsmIzEwODA7JiMxMDc3OyAmIzEwODI7JiMxMDgzOyYjMTA4MDsmIzEwNzc7JiMxMDg1OyYjMTA5MDsmIzEwNzI7ICYjMTA4NjsgJiMxMDg5OyYjMTA5MDsmIzEwNzI7JiMxMDkwOyYjMTA5MTsmIzEwODk7JiMxMDc3OyAmIzEwNzk7JiMxMDcyOyYjMTA4MjsmIzEwNzI7JiMxMDc5OyYjMTA3Mjs8L3RleHQ+PHJlY3QgZmlsbD0iI0YxRjFGMSIgaGVpZ2h0PSIzMi44NDM4IiByeD0iMTIuNSIgcnk9IjEyLjUiIHN0eWxlPSJzdHJva2U6IzE4MTgxODtzdHJva2Utd2lkdGg6MC41OyIgd2lkdGg9IjMxNCIgeD0iMTQ3OSIgeT0iMTAwOC43NjU2Ii8+PHRleHQgZmlsbD0iIzAwMDAwMCIgZm9udC1mYW1pbHk9InNhbnMtc2VyaWYiIGZvbnQtc2l6ZT0iMTIiIGxlbmd0aEFkanVzdD0ic3BhY2luZyIgdGV4dExlbmd0aD0iMjk0IiB4PSIxNDg5IiB5PSIxMDMwLjEwOTQiPiYjMTA1NTsmIzEwODg7JiMxMDc3OyYjMTA3NjsmIzEwODY7JiMxMDg5OyYjMTA5MDsmIzEwNzI7JiMxMDc0OyYjMTA4MzsmIzEwNzc7JiMxMDg1OyYjMTA4MDsmIzEwNzc7ICYjMTA4MjsmIzEwODM7JiMxMDgwOyYjMTA3NzsmIzEwODU7JiMxMDkwOyYjMTA5MTsgJiMxMDgwOyYjMTA4NTsmIzEwOTI7JiMxMDg2OyYjMTA4ODsmIzEwODQ7JiMxMDcyOyYjMTA5NDsmIzEwODA7JiMxMDgwOyAmIzEwODY7ICYjMTA3NjsmIzEwODY7JiMxMDg5OyYjMTA5MDsmIzEwNzI7JiMxMDc0OyYjMTA4MjsmIzEwNzc7PC90ZXh0PjxyZWN0IGZpbGw9IiNGMUYxRjEiIGhlaWdodD0iMzIuODQzOCIgcng9IjEyLjUiIHJ5PSIxMi41IiBzdHlsZT0ic3Ryb2tlOiMxODE4MTg7c3Ryb2tlLXdpZHRoOjAuNTsiIHdpZHRoPSIyNjYiIHg9IjE1MDMiIHk9IjEwNjEuNjA5NCIvPjx0ZXh0IGZpbGw9IiMwMDAwMDAiIGZvbnQtZmFtaWx5PSJzYW5zLXNlcmlmIiBmb250LXNpemU9IjEyIiBsZW5ndGhBZGp1c3Q9InNwYWNpbmciIHRleHRMZW5ndGg9IjI0NiIgeD0iMTUxMyIgeT0iMTA4Mi45NTMxIj4mIzEwNTQ7JiMxMDczOyYjMTA3NzsmIzEwODk7JiMxMDg3OyYjMTA3NzsmIzEwOTU7JiMxMDc3OyYjMTA4NTsmIzEwODA7JiMxMDc3OyAmIzEwODc7JiMxMDg2OyYjMTA4OTsmIzEwODM7JiMxMDc3OyYjMTA4NzsmIzEwODg7JiMxMDg2OyYjMTA3NjsmIzEwNzI7JiMxMDc4OyYjMTA4NTsmIzEwODY7JiMxMDgxOyAmIzEwODc7JiMxMDg2OyYjMTA3NjsmIzEwNzY7JiMxMDc3OyYjMTA4ODsmIzEwNzg7JiMxMDgyOyYjMTA4MDs8L3RleHQ+PGxpbmUgc3R5bGU9InN0cm9rZTojMDAwMDAwO3N0cm9rZS13aWR0aDoxLjU7IiB4MT0iMTQ3MyIgeDI9IjE0NzMiIHkxPSIxMSIgeTI9IjEyMDQuNDUzMSIvPjxsaW5lIHN0eWxlPSJzdHJva2U6IzAwMDAwMDtzdHJva2Utd2lkdGg6MS41OyIgeDE9IjE3OTciIHgyPSIxNzk3IiB5MT0iMTEiIHkyPSIxMjA0LjQ1MzEiLz48bGluZSBzdHlsZT0ic3Ryb2tlOiMxODE4MTg7c3Ryb2tlLXdpZHRoOjEuMDsiIHgxPSIzMzEuNzUiIHgyPSIzMzEuNzUiIHkxPSI1NS4yNjU2IiB5Mj0iNzUuMjY1NiIvPjxwb2x5Z29uIGZpbGw9IiMxODE4MTgiIHBvaW50cz0iMzI3Ljc1LDY1LjI2NTYsMzMxLjc1LDc1LjI2NTYsMzM1Ljc1LDY1LjI2NTYsMzMxLjc1LDY5LjI2NTYiIHN0eWxlPSJzdHJva2U6IzE4MTgxODtzdHJva2Utd2lkdGg6MS4wOyIvPjxsaW5lIHN0eWxlPSJzdHJva2U6IzE4MTgxODtzdHJva2Utd2lkdGg6MS4wOyIgeDE9IjMzMS43NSIgeDI9IjMzMS43NSIgeTE9IjEwOC4xMDk0IiB5Mj0iMTI4LjEwOTQiLz48cG9seWdvbiBmaWxsPSIjMTgxODE4IiBwb2ludHM9IjMyNy43NSwxMTguMTA5NCwzMzEuNzUsMTI4LjEwOTQsMzM1Ljc1LDExOC4xMDk0LDMzMS43NSwxMjIuMTA5NCIgc3R5bGU9InN0cm9rZTojMTgxODE4O3N0cm9rZS13aWR0aDoxLjA7Ii8+PGxpbmUgc3R5bGU9InN0cm9rZTojMTgxODE4O3N0cm9rZS13aWR0aDoxLjA7IiB4MT0iMzMxLjc1IiB4Mj0iMzMxLjc1IiB5MT0iMTYwLjk1MzEiIHkyPSIxODAuOTUzMSIvPjxwb2x5Z29uIGZpbGw9IiMxODE4MTgiIHBvaW50cz0iMzI3Ljc1LDE3MC45NTMxLDMzMS43NSwxODAuOTUzMSwzMzUuNzUsMTcwLjk1MzEsMzMxLjc1LDE3NC45NTMxIiBzdHlsZT0ic3Ryb2tlOiMxODE4MTg7c3Ryb2tlLXdpZHRoOjEuMDsiLz48bGluZSBzdHlsZT0ic3Ryb2tlOiMxODE4MTg7c3Ryb2tlLXdpZHRoOjEuMDsiIHgxPSIxMjQuNSIgeDI9IjEyNC41IiB5MT0iMzEwLjY0MDYiIHkyPSIzMzAuNjQwNiIvPjxwb2x5Z29uIGZpbGw9IiMxODE4MTgiIHBvaW50cz0iMTIwLjUsMzIwLjY0MDYsMTI0LjUsMzMwLjY0MDYsMTI4LjUsMzIwLjY0MDYsMTI0LjUsMzI0LjY0MDYiIHN0eWxlPSJzdHJva2U6IzE4MTgxODtzdHJva2Utd2lkdGg6MS4wOyIvPjxsaW5lIHN0eWxlPSJzdHJva2U6IzE4MTgxODtzdHJva2Utd2lkdGg6MS4wOyIgeDE9IjUzOSIgeDI9IjUzOSIgeTE9IjMxMC42NDA2IiB5Mj0iMzMwLjY0MDYiLz48cG9seWdvbiBmaWxsPSIjMTgxODE4IiBwb2ludHM9IjUzNSwzMjAuNjQwNiw1MzksMzMwLjY0MDYsNTQzLDMyMC42NDA2LDUzOSwzMjQuNjQwNiIgc3R5bGU9InN0cm9rZTojMTgxODE4O3N0cm9rZS13aWR0aDoxLjA7Ii8+PGxpbmUgc3R5bGU9InN0cm9rZTojMTgxODE4O3N0cm9rZS13aWR0aDoxLjA7IiB4MT0iMjcxLjc1IiB4Mj0iMTI0LjUiIHkxPSIyNDUuNzk2OSIgeTI9IjI0NS43OTY5Ii8+PGxpbmUgc3R5bGU9InN0cm9rZTojMTgxODE4O3N0cm9rZS13aWR0aDoxLjA7IiB4MT0iMTI0LjUiIHgyPSIxMjQuNSIgeTE9IjI0NS43OTY5IiB5Mj0iMjc3Ljc5NjkiLz48cG9seWdvbiBmaWxsPSIjMTgxODE4IiBwb2ludHM9IjEyMC41LDI2Ny43OTY5LDEyNC41LDI3Ny43OTY5LDEyOC41LDI2Ny43OTY5LDEyNC41LDI3MS43OTY5IiBzdHlsZT0ic3Ryb2tlOiMxODE4MTg7c3Ryb2tlLXdpZHRoOjEuMDsiLz48bGluZSBzdHlsZT0ic3Ryb2tlOiMxODE4MTg7c3Ryb2tlLXdpZHRoOjEuMDsiIHgxPSIzOTEuNzUiIHgyPSI1MzkiIHkxPSIyNDUuNzk2OSIgeTI9IjI0NS43OTY5Ii8+PGxpbmUgc3R5bGU9InN0cm9rZTojMTgxODE4O3N0cm9rZS13aWR0aDoxLjA7IiB4MT0iNTM5IiB4Mj0iNTM5IiB5MT0iMjQ1Ljc5NjkiIHkyPSIyNzcuNzk2OSIvPjxwb2x5Z29uIGZpbGw9IiMxODE4MTgiIHBvaW50cz0iNTM1LDI2Ny43OTY5LDUzOSwyNzcuNzk2OSw1NDMsMjY3Ljc5NjksNTM5LDI3MS43OTY5IiBzdHlsZT0ic3Ryb2tlOiMxODE4MTg7c3Ryb2tlLXdpZHRoOjEuMDsiLz48bGluZSBzdHlsZT0ic3Ryb2tlOiMxODE4MTg7c3Ryb2tlLXdpZHRoOjEuMDsiIHgxPSI1MzkiIHgyPSI1MzkiIHkxPSIzNjMuNDg0NCIgeTI9IjExNTAuNDUzMSIvPjxsaW5lIHN0eWxlPSJzdHJva2U6IzE4MTgxODtzdHJva2Utd2lkdGg6MS4wOyIgeDE9IjUzOSIgeDI9IjM0My43NSIgeTE9IjExNTAuNDUzMSIgeTI9IjExNTAuNDUzMSIvPjxwb2x5Z29uIGZpbGw9IiMxODE4MTgiIHBvaW50cz0iMzUzLjc1LDExNDYuNDUzMSwzNDMuNzUsMTE1MC40NTMxLDM1My43NSwxMTU0LjQ1MzEsMzQ5Ljc1LDExNTAuNDUzMSIgc3R5bGU9InN0cm9rZTojMTgxODE4O3N0cm9rZS13aWR0aDoxLjA7Ii8+PGxpbmUgc3R5bGU9InN0cm9rZTojMTgxODE4O3N0cm9rZS13aWR0aDoxLjA7IiB4MT0iMzMxLjc1IiB4Mj0iMzMxLjc1IiB5MT0iMjEzLjc5NjkiIHkyPSIyMzMuNzk2OSIvPjxwb2x5Z29uIGZpbGw9IiMxODE4MTgiIHBvaW50cz0iMzI3Ljc1LDIyMy43OTY5LDMzMS43NSwyMzMuNzk2OSwzMzUuNzUsMjIzLjc5NjksMzMxLjc1LDIyNy43OTY5IiBzdHlsZT0ic3Ryb2tlOiMxODE4MTg7c3Ryb2tlLXdpZHRoOjEuMDsiLz48bGluZSBzdHlsZT0ic3Ryb2tlOiMxODE4MTg7c3Ryb2tlLXdpZHRoOjEuMDsiIHgxPSIzMzEuNzUiIHgyPSIzMzEuNzUiIHkxPSIxMTYyLjQ1MzEiIHkyPSIxMTgyLjQ1MzEiLz48cG9seWdvbiBmaWxsPSIjMTgxODE4IiBwb2ludHM9IjMyNy43NSwxMTcyLjQ1MzEsMzMxLjc1LDExODIuNDUzMSwzMzUuNzUsMTE3Mi40NTMxLDMzMS43NSwxMTc2LjQ1MzEiIHN0eWxlPSJzdHJva2U6IzE4MTgxODtzdHJva2Utd2lkdGg6MS4wOyIvPjxsaW5lIHN0eWxlPSJzdHJva2U6IzE4MTgxODtzdHJva2Utd2lkdGg6MS4wOyIgeDE9IjkzMy41IiB4Mj0iOTMzLjUiIHkxPSI0MTYuMzI4MSIgeTI9IjQzNi4zMjgxIi8+PHBvbHlnb24gZmlsbD0iIzE4MTgxOCIgcG9pbnRzPSI5MjkuNSw0MjYuMzI4MSw5MzMuNSw0MzYuMzI4MSw5MzcuNSw0MjYuMzI4MSw5MzMuNSw0MzAuMzI4MSIgc3R5bGU9InN0cm9rZTojMTgxODE4O3N0cm9rZS13aWR0aDoxLjA7Ii8+PGxpbmUgc3R5bGU9InN0cm9rZTojMTgxODE4O3N0cm9rZS13aWR0aDoxLjA7IiB4MT0iOTMzLjUiIHgyPSI5MzMuNSIgeTE9IjQ2OS4xNzE5IiB5Mj0iNDg5LjE3MTkiLz48cG9seWdvbiBmaWxsPSIjMTgxODE4IiBwb2ludHM9IjkyOS41LDQ3OS4xNzE5LDkzMy41LDQ4OS4xNzE5LDkzNy41LDQ3OS4xNzE5LDkzMy41LDQ4My4xNzE5IiBzdHlsZT0ic3Ryb2tlOiMxODE4MTg7c3Ryb2tlLXdpZHRoOjEuMDsiLz48bGluZSBzdHlsZT0ic3Ryb2tlOiMxODE4MTg7c3Ryb2tlLXdpZHRoOjEuMDsiIHgxPSIxMDc2IiB4Mj0iMTA3NiIgeTE9IjYxOC44NTk0IiB5Mj0iNjM4Ljg1OTQiLz48cG9seWdvbiBmaWxsPSIjMTgxODE4IiBwb2ludHM9IjEwNzIsNjI4Ljg1OTQsMTA3Niw2MzguODU5NCwxMDgwLDYyOC44NTk0LDEwNzYsNjMyLjg1OTQiIHN0eWxlPSJzdHJva2U6IzE4MTgxODtzdHJva2Utd2lkdGg6MS4wOyIvPjxsaW5lIHN0eWxlPSJzdHJva2U6IzE4MTgxODtzdHJva2Utd2lkdGg6MS4wOyIgeDE9IjEwNzYiIHgyPSIxMDc2IiB5MT0iNjcxLjcwMzEiIHkyPSI2OTEuNzAzMSIvPjxwb2x5Z29uIGZpbGw9IiMxODE4MTgiIHBvaW50cz0iMTA3Miw2ODEuNzAzMSwxMDc2LDY5MS43MDMxLDEwODAsNjgxLjcwMzEsMTA3Niw2ODUuNzAzMSIgc3R5bGU9InN0cm9rZTojMTgxODE4O3N0cm9rZS13aWR0aDoxLjA7Ii8+PGxpbmUgc3R5bGU9InN0cm9rZTojMTgxODE4O3N0cm9rZS13aWR0aDoxLjA7IiB4MT0iODc2LjUiIHgyPSI3OTEiIHkxPSI1NTQuMDE1NiIgeTI9IjU1NC4wMTU2Ii8+PGxpbmUgc3R5bGU9InN0cm9rZTojMTgxODE4O3N0cm9rZS13aWR0aDoxLjA7IiB4MT0iNzkxIiB4Mj0iNzkxIiB5MT0iNTU0LjAxNTYiIHkyPSI1ODYuMDE1NiIvPjxwb2x5Z29uIGZpbGw9IiMxODE4MTgiIHBvaW50cz0iNzg3LDU3Ni4wMTU2LDc5MSw1ODYuMDE1Niw3OTUsNTc2LjAxNTYsNzkxLDU4MC4wMTU2IiBzdHlsZT0ic3Ryb2tlOiMxODE4MTg7c3Ryb2tlLXdpZHRoOjEuMDsiLz48bGluZSBzdHlsZT0ic3Ryb2tlOiMxODE4MTg7c3Ryb2tlLXdpZHRoOjEuMDsiIHgxPSI5OTAuNSIgeDI9IjEwNzYiIHkxPSI1NTQuMDE1NiIgeTI9IjU1NC4wMTU2Ii8+PGxpbmUgc3R5bGU9InN0cm9rZTojMTgxODE4O3N0cm9rZS13aWR0aDoxLjA7IiB4MT0iMTA3NiIgeDI9IjEwNzYiIHkxPSI1NTQuMDE1NiIgeTI9IjU4Ni4wMTU2Ii8+PHBvbHlnb24gZmlsbD0iIzE4MTgxOCIgcG9pbnRzPSIxMDcyLDU3Ni4wMTU2LDEwNzYsNTg2LjAxNTYsMTA4MCw1NzYuMDE1NiwxMDc2LDU4MC4wMTU2IiBzdHlsZT0ic3Ryb2tlOiMxODE4MTg7c3Ryb2tlLXdpZHRoOjEuMDsiLz48bGluZSBzdHlsZT0ic3Ryb2tlOiMxODE4MTg7c3Ryb2tlLXdpZHRoOjEuMDsiIHgxPSIxMDc2IiB4Mj0iMTA3NiIgeTE9IjcyNC41NDY5IiB5Mj0iMTExNi40NTMxIi8+PGxpbmUgc3R5bGU9InN0cm9rZTojMTgxODE4O3N0cm9rZS13aWR0aDoxLjA7IiB4MT0iMTA3NiIgeDI9Ijk0NS41IiB5MT0iMTExNi40NTMxIiB5Mj0iMTExNi40NTMxIi8+PHBvbHlnb24gZmlsbD0iIzE4MTgxOCIgcG9pbnRzPSI5NTUuNSwxMTEyLjQ1MzEsOTQ1LjUsMTExNi40NTMxLDk1NS41LDExMjAuNDUzMSw5NTEuNSwxMTE2LjQ1MzEiIHN0eWxlPSJzdHJva2U6IzE4MTgxODtzdHJva2Utd2lkdGg6MS4wOyIvPjxsaW5lIHN0eWxlPSJzdHJva2U6IzE4MTgxODtzdHJva2Utd2lkdGg6MS4wOyIgeDE9IjkzMy41IiB4Mj0iOTMzLjUiIHkxPSI1MjIuMDE1NiIgeTI9IjU0Mi4wMTU2Ii8+PHBvbHlnb24gZmlsbD0iIzE4MTgxOCIgcG9pbnRzPSI5MjkuNSw1MzIuMDE1Niw5MzMuNSw1NDIuMDE1Niw5MzcuNSw1MzIuMDE1Niw5MzMuNSw1MzYuMDE1NiIgc3R5bGU9InN0cm9rZTojMTgxODE4O3N0cm9rZS13aWR0aDoxLjA7Ii8+PGxpbmUgc3R5bGU9InN0cm9rZTojMTgxODE4O3N0cm9rZS13aWR0aDoxLjA7IiB4MT0iMTMzMS41IiB4Mj0iMTMzMS41IiB5MT0iNjcxLjcwMzEiIHkyPSI2OTEuNzAzMSIvPjxwb2x5Z29uIGZpbGw9IiMxODE4MTgiIHBvaW50cz0iMTMyNy41LDY4MS43MDMxLDEzMzEuNSw2OTEuNzAzMSwxMzM1LjUsNjgxLjcwMzEsMTMzMS41LDY4NS43MDMxIiBzdHlsZT0ic3Ryb2tlOiMxODE4MTg7c3Ryb2tlLXdpZHRoOjEuMDsiLz48bGluZSBzdHlsZT0ic3Ryb2tlOiMxODE4MTg7c3Ryb2tlLXdpZHRoOjEuMDsiIHgxPSIxMzMxLjUiIHgyPSIxMzMxLjUiIHkxPSI3MjQuNTQ2OSIgeTI9Ijc0NC41NDY5Ii8+PHBvbHlnb24gZmlsbD0iIzE4MTgxOCIgcG9pbnRzPSIxMzI3LjUsNzM0LjU0NjksMTMzMS41LDc0NC41NDY5LDEzMzUuNSw3MzQuNTQ2OSwxMzMxLjUsNzM4LjU0NjkiIHN0eWxlPSJzdHJva2U6IzE4MTgxODtzdHJva2Utd2lkdGg6MS4wOyIvPjxsaW5lIHN0eWxlPSJzdHJva2U6IzE4MTgxODtzdHJva2Utd2lkdGg6MS4wOyIgeDE9IjEzMzEuNSIgeDI9IjEzMzEuNSIgeTE9Ijc3Ny4zOTA2IiB5Mj0iNzk3LjM5MDYiLz48cG9seWdvbiBmaWxsPSIjMTgxODE4IiBwb2ludHM9IjEzMjcuNSw3ODcuMzkwNiwxMzMxLjUsNzk3LjM5MDYsMTMzNS41LDc4Ny4zOTA2LDEzMzEuNSw3OTEuMzkwNiIgc3R5bGU9InN0cm9rZTojMTgxODE4O3N0cm9rZS13aWR0aDoxLjA7Ii8+PGxpbmUgc3R5bGU9InN0cm9rZTojMTgxODE4O3N0cm9rZS13aWR0aDoxLjA7IiB4MT0iMTMzMS41IiB4Mj0iMTMzMS41IiB5MT0iODMwLjIzNDQiIHkyPSI4NTAuMjM0NCIvPjxwb2x5Z29uIGZpbGw9IiMxODE4MTgiIHBvaW50cz0iMTMyNy41LDg0MC4yMzQ0LDEzMzEuNSw4NTAuMjM0NCwxMzM1LjUsODQwLjIzNDQsMTMzMS41LDg0NC4yMzQ0IiBzdHlsZT0ic3Ryb2tlOiMxODE4MTg7c3Ryb2tlLXdpZHRoOjEuMDsiLz48bGluZSBzdHlsZT0ic3Ryb2tlOiMxODE4MTg7c3Ryb2tlLXdpZHRoOjEuMDsiIHgxPSIxMzMxLjUiIHgyPSIxMzMxLjUiIHkxPSI4ODMuMDc4MSIgeTI9IjkwMy4wNzgxIi8+PHBvbHlnb24gZmlsbD0iIzE4MTgxOCIgcG9pbnRzPSIxMzI3LjUsODkzLjA3ODEsMTMzMS41LDkwMy4wNzgxLDEzMzUuNSw4OTMuMDc4MSwxMzMxLjUsODk3LjA3ODEiIHN0eWxlPSJzdHJva2U6IzE4MTgxODtzdHJva2Utd2lkdGg6MS4wOyIvPjxsaW5lIHN0eWxlPSJzdHJva2U6IzE4MTgxODtzdHJva2Utd2lkdGg6MS4wOyIgeDE9IjE2MzYiIHgyPSIxNjM2IiB5MT0iOTg4Ljc2NTYiIHkyPSIxMDA4Ljc2NTYiLz48cG9seWdvbiBmaWxsPSIjMTgxODE4IiBwb2ludHM9IjE2MzIsOTk4Ljc2NTYsMTYzNiwxMDA4Ljc2NTYsMTY0MCw5OTguNzY1NiwxNjM2LDEwMDIuNzY1NiIgc3R5bGU9InN0cm9rZTojMTgxODE4O3N0cm9rZS13aWR0aDoxLjA7Ii8+PGxpbmUgc3R5bGU9InN0cm9rZTojMTgxODE4O3N0cm9rZS13aWR0aDoxLjA7IiB4MT0iMTYzNiIgeDI9IjE2MzYiIHkxPSIxMDQxLjYwOTQiIHkyPSIxMDYxLjYwOTQiLz48cG9seWdvbiBmaWxsPSIjMTgxODE4IiBwb2ludHM9IjE2MzIsMTA1MS42MDk0LDE2MzYsMTA2MS42MDk0LDE2NDAsMTA1MS42MDk0LDE2MzYsMTA1NS42MDk0IiBzdHlsZT0ic3Ryb2tlOiMxODE4MTg7c3Ryb2tlLXdpZHRoOjEuMDsiLz48bGluZSBzdHlsZT0ic3Ryb2tlOiMxODE4MTg7c3Ryb2tlLXdpZHRoOjEuMDsiIHgxPSIxMjQuNSIgeDI9IjEyNC41IiB5MT0iMzYzLjQ4NDQiIHkyPSIzNjguNDg0NCIvPjxsaW5lIHN0eWxlPSJzdHJva2U6IzE4MTgxODtzdHJva2Utd2lkdGg6MS4wOyIgeDE9IjEyNC41IiB4Mj0iOTMzLjUiIHkxPSIzNjguNDg0NCIgeTI9IjM2OC40ODQ0Ii8+PGxpbmUgc3R5bGU9InN0cm9rZTojMTgxODE4O3N0cm9rZS13aWR0aDoxLjA7IiB4MT0iOTMzLjUiIHgyPSI5MzMuNSIgeTE9IjM2OC40ODQ0IiB5Mj0iMzgzLjQ4NDQiLz48cG9seWdvbiBmaWxsPSIjMTgxODE4IiBwb2ludHM9IjkyOS41LDM3My40ODQ0LDkzMy41LDM4My40ODQ0LDkzNy41LDM3My40ODQ0LDkzMy41LDM3Ny40ODQ0IiBzdHlsZT0ic3Ryb2tlOiMxODE4MTg7c3Ryb2tlLXdpZHRoOjEuMDsiLz48bGluZSBzdHlsZT0ic3Ryb2tlOiMxODE4MTg7c3Ryb2tlLXdpZHRoOjEuMDsiIHgxPSI3OTEiIHgyPSI3OTEiIHkxPSI2MTguODU5NCIgeTI9IjYyMy44NTk0Ii8+PGxpbmUgc3R5bGU9InN0cm9rZTojMTgxODE4O3N0cm9rZS13aWR0aDoxLjA7IiB4MT0iNzkxIiB4Mj0iMTMzMS41IiB5MT0iNjIzLjg1OTQiIHkyPSI2MjMuODU5NCIvPjxsaW5lIHN0eWxlPSJzdHJva2U6IzE4MTgxODtzdHJva2Utd2lkdGg6MS4wOyIgeDE9IjEzMzEuNSIgeDI9IjEzMzEuNSIgeTE9IjYyMy44NTk0IiB5Mj0iNjM4Ljg1OTQiLz48cG9seWdvbiBmaWxsPSIjMTgxODE4IiBwb2ludHM9IjEzMjcuNSw2MjguODU5NCwxMzMxLjUsNjM4Ljg1OTQsMTMzNS41LDYyOC44NTk0LDEzMzEuNSw2MzIuODU5NCIgc3R5bGU9InN0cm9rZTojMTgxODE4O3N0cm9rZS13aWR0aDoxLjA7Ii8+PGxpbmUgc3R5bGU9InN0cm9rZTojMTgxODE4O3N0cm9rZS13aWR0aDoxLjA7IiB4MT0iMTMzMS41IiB4Mj0iMTMzMS41IiB5MT0iOTM1LjkyMTkiIHkyPSI5NDAuOTIxOSIvPjxsaW5lIHN0eWxlPSJzdHJva2U6IzE4MTgxODtzdHJva2Utd2lkdGg6MS4wOyIgeDE9IjEzMzEuNSIgeDI9IjE2MzYiIHkxPSI5NDAuOTIxOSIgeTI9Ijk0MC45MjE5Ii8+PGxpbmUgc3R5bGU9InN0cm9rZTojMTgxODE4O3N0cm9rZS13aWR0aDoxLjA7IiB4MT0iMTYzNiIgeDI9IjE2MzYiIHkxPSI5NDAuOTIxOSIgeTI9Ijk1NS45MjE5Ii8+PHBvbHlnb24gZmlsbD0iIzE4MTgxOCIgcG9pbnRzPSIxNjMyLDk0NS45MjE5LDE2MzYsOTU1LjkyMTksMTY0MCw5NDUuOTIxOSwxNjM2LDk0OS45MjE5IiBzdHlsZT0ic3Ryb2tlOiMxODE4MTg7c3Ryb2tlLXdpZHRoOjEuMDsiLz48bGluZSBzdHlsZT0ic3Ryb2tlOiMxODE4MTg7c3Ryb2tlLXdpZHRoOjEuMDsiIHgxPSIxNjM2IiB4Mj0iMTYzNiIgeTE9IjEwOTQuNDUzMSIgeTI9IjEwOTguNDUzMSIvPjxsaW5lIHN0eWxlPSJzdHJva2U6IzE4MTgxODtzdHJva2Utd2lkdGg6MS4wOyIgeDE9IjE2MzYiIHgyPSI5MDMuNSIgeTE9IjEwOTguNDUzMSIgeTI9IjEwOTguNDUzMSIvPjxsaW5lIHN0eWxlPSJzdHJva2U6IzE4MTgxODtzdHJva2Utd2lkdGg6MS4wOyIgeDE9IjkwMy41IiB4Mj0iOTAzLjUiIHkxPSIxMDk4LjQ1MzEiIHkyPSIxMTE2LjQ1MzEiLz48bGluZSBzdHlsZT0ic3Ryb2tlOiMxODE4MTg7c3Ryb2tlLXdpZHRoOjEuMDsiIHgxPSI5MDMuNSIgeDI9IjkyMS41IiB5MT0iMTExNi40NTMxIiB5Mj0iMTExNi40NTMxIi8+PHBvbHlnb24gZmlsbD0iIzE4MTgxOCIgcG9pbnRzPSI5MTEuNSwxMTEyLjQ1MzEsOTIxLjUsMTExNi40NTMxLDkxMS41LDExMjAuNDUzMSw5MTUuNSwxMTE2LjQ1MzEiIHN0eWxlPSJzdHJva2U6IzE4MTgxODtzdHJva2Utd2lkdGg6MS4wOyIvPjxsaW5lIHN0eWxlPSJzdHJva2U6IzE4MTgxODtzdHJva2Utd2lkdGg6MS4wOyIgeDE9IjkzMy41IiB4Mj0iOTMzLjUiIHkxPSIxMTI4LjQ1MzEiIHkyPSIxMTMyLjQ1MzEiLz48bGluZSBzdHlsZT0ic3Ryb2tlOiMxODE4MTg7c3Ryb2tlLXdpZHRoOjEuMDsiIHgxPSI5MzMuNSIgeDI9IjMwMS43NSIgeTE9IjExMzIuNDUzMSIgeTI9IjExMzIuNDUzMSIvPjxsaW5lIHN0eWxlPSJzdHJva2U6IzE4MTgxODtzdHJva2Utd2lkdGg6MS4wOyIgeDE9IjMwMS43NSIgeDI9IjMwMS43NSIgeTE9IjExMzIuNDUzMSIgeTI9IjExNTAuNDUzMSIvPjxsaW5lIHN0eWxlPSJzdHJva2U6IzE4MTgxODtzdHJva2Utd2lkdGg6MS4wOyIgeDE9IjMwMS43NSIgeDI9IjMxOS43NSIgeTE9IjExNTAuNDUzMSIgeTI9IjExNTAuNDUzMSIvPjxwb2x5Z29uIGZpbGw9IiMxODE4MTgiIHBvaW50cz0iMzA5Ljc1LDExNDYuNDUzMSwzMTkuNzUsMTE1MC40NTMxLDMwOS43NSwxMTU0LjQ1MzEsMzEzLjc1LDExNTAuNDUzMSIgc3R5bGU9InN0cm9rZTojMTgxODE4O3N0cm9rZS13aWR0aDoxLjA7Ii8+PHRleHQgZmlsbD0iIzAwMDAwMCIgZm9udC1mYW1pbHk9InNhbnMtc2VyaWYiIGZvbnQtc2l6ZT0iMTgiIGxlbmd0aEFkanVzdD0ic3BhY2luZyIgdGV4dExlbmd0aD0iMTcxIiB4PSIyNjAuNSIgeT0iMjguMDE1NiI+JiMxMDU5OyYjMTA4NzsmIzEwODg7JiMxMDcyOyYjMTA3NDsmIzEwODM7JiMxMDc3OyYjMTA4NTsmIzEwODA7JiMxMDc3OyAmIzEwNzk7JiMxMDcyOyYjMTA4MjsmIzEwNzI7JiMxMDc5OyYjMTA3MjsmIzEwODQ7JiMxMDgwOzwvdGV4dD48dGV4dCBmaWxsPSIjMDAwMDAwIiBmb250LWZhbWlseT0ic2Fucy1zZXJpZiIgZm9udC1zaXplPSIxOCIgbGVuZ3RoQWRqdXN0PSJzcGFjaW5nIiB0ZXh0TGVuZ3RoPSIxNjEiIHg9Ijg1MiIgeT0iMjguMDE1NiI+JiMxMDU0OyYjMTA3MzsmIzEwODg7JiMxMDcyOyYjMTA3MzsmIzEwODY7JiMxMDkwOyYjMTA4MjsmIzEwNzI7ICYjMTA4NzsmIzEwODM7JiMxMDcyOyYjMTA5MDsmIzEwNzc7JiMxMDc4OyYjMTA3NzsmIzEwODE7PC90ZXh0Pjx0ZXh0IGZpbGw9IiMwMDAwMDAiIGZvbnQtZmFtaWx5PSJzYW5zLXNlcmlmIiBmb250LXNpemU9IjE4IiBsZW5ndGhBZGp1c3Q9InNwYWNpbmciIHRleHRMZW5ndGg9IjE4MCIgeD0iMTI0MC41IiB5PSIyOC4wMTU2Ij4mIzEwNTE7JiMxMDg2OyYjMTA3NTsmIzEwODA7JiMxMDg5OyYjMTA5MDsmIzEwODA7JiMxMDgyOyYjMTA3MjsgJiMxMDgwOyAmIzEwNzY7JiMxMDg2OyYjMTA4OTsmIzEwOTA7JiMxMDcyOyYjMTA3NDsmIzEwODI7JiMxMDcyOzwvdGV4dD48dGV4dCBmaWxsPSIjMDAwMDAwIiBmb250LWZhbWlseT0ic2Fucy1zZXJpZiIgZm9udC1zaXplPSIxOCIgbGVuZ3RoQWRqdXN0PSJzcGFjaW5nIiB0ZXh0TGVuZ3RoPSIxNjIiIHg9IjE1NTQiIHk9IjI4LjAxNTYiPiYjMTA1NTsmIzEwODY7JiMxMDc2OyYjMTA3NjsmIzEwNzc7JiMxMDg4OyYjMTA3ODsmIzEwODI7JiMxMDcyOyAmIzEwODI7JiMxMDgzOyYjMTA4MDsmIzEwNzc7JiMxMDg1OyYjMTA5MDsmIzEwODY7JiMxMDc0OzwvdGV4dD48IS0tU1JDPVtkTExIUWpqMDRGdE5BVlFwbGFCcXFSQzR3ajEwSUtsakp0cXVLVEM2TjJZS0dXOGJEY2FraTVPalBzRFBxWExjUnpHdGlyQXlBeWs5Y3UxbkY3aHB2aXNSNkprWFV3aGpYM0hiTDUxRTlIZEE1SnFXaUNRQnRwVGFhY1dxRmx1eVpldmVKWEtMRGhOVjZFbFhPWnB4Mk93QWJlZ01ZOUhLc2djejNBV0tfWWN1MDl2VDBCaFhoM2NnTHlaQ3lSdmNKMGFtSzJYWHgweWJtOG1xUXVvWnFuRnJYbHdxNFM0Z1Vvd3E2Y05wam1DclZaeXkwLVdOd0s2YXk3VDRUeTBfREFBd3RJZEFjQzNPU25KQXFNaVVEcmRTd0g5MWZzcDV4QnR2TmFpc1RTYTlwTVdYZll3ZTBlTXFMUkQ2QVJCMndwNWZvdEpSRHMzd1doRzluNlp4NVAtRGVnZ0p0dWd5T0thMjRpek80Ti0yUm01VWpfV1Awa3N1ZkhndG1lNEE5WlpsS1FwRGpJZFJXb1JPa1JOWmEwZENkalhYVnVoSzZsZ2xFQmpkMDJfUDZIMUt6RVdCY0NQRjUwZHpuZUVfcFFYQ09uT2xNb01IZmdONGd4YXBVQTVySk9QZjlsUklQazk4QlhBemN5V2FrNzYxUG1ka2tLaTYwRXFILUNrbFBRUTdLenhBa2E2dmt4bzY0RFBEeDdUbkwwU1RUQ09TN2I2MFdfVTV4OFhYR0NreUxxZFkxaWRVbzFaTmtyVVQtSUV1eVJSUERBa2t6bmhZUWxCWUdMUHVRQnhpVUpFVWhTUC1idGJfenZySnM2NFVwZC0xeGpuRVVjeE5TWUhTSUd2NnpjaExoY3BUU1FNblJGWFhEQ0dqdDI5LUNWMUNGRkp4ZUh0SjVJR2k3QXh0RUZ2WnZxZmVJTGF5ei1PcE42LV8yYm1fNk95SldMQmtoa2h6SVhjVWxKaXpZTlJSSjB4eU5OYzUtNGxQUDdPanhyZGl4Tk9LVUJHQUl5a2JzSWJsSEk1eFc3bnRWUmdwUkF3bHFWWlpmdHkwXS0tPjwvZz48L3N2Zz4=;" vertex="1" parent="1">
            <mxGeometry x="-810" y="1740" width="1818" height="1216" as="geometry" />
          </mxCell>
        </UserObject>
      </root>
    </mxGraphModel>
  </diagram>
</mxfile>
